{
.appVersion = "1231";
classes = (
{
code = "A B C D E F G H I J K L M N O P Q R S T U V W X Y Z";
name = aalt1;
},
{
code = "a b c d e f g h i j k l m n o p q r s t u v w x y z";
name = aalt2;
}
);
copyright = "Copyright © 2019 by Red Hat. All rights reserved.";
customParameters = (
{
name = description;
value = "Copyright (c) 2019 by Red Hat. All rights reserved.";
},
{
name = license;
value = "This Font Software is licensed under the SIL Open Font License, Version 1.1. This license is available with a FAQ at: http://scripts.sil.org/OFL";
},
{
name = licenseURL;
value = "http://scripts.sil.org/OFL";
}
);
date = "2019-04-22 16:24:06 +0000";
designer = "Liz Wetzel, Aaron Williamson, Russ McMullin";
designerURL = "https://www.redhat.com/en/open-source-stories/because-we-had-to";
disablesAutomaticAlignment = 1;
familyName = "Because We Build";
featurePrefixes = (
{
automatic = 1;
code = "languagesystem DFLT dflt;\012languagesystem latn dflt;\012";
name = Languagesystems;
}
);
features = (
{
code = "feature calt;\012";
name = aalt;
},
{
code = "# Contextual Alternates\012 # DEFAULT\012    sub @aalt1 @aalt1' by [a b c d e f g h i j k l m n o p q r s t u v w x y z];\012 script latn; # Latin\012lookup calt2 {\012    sub @aalt1 @aalt1' by [a b c d e f g h i j k l m n o p q r s t u v w x y z];\012} calt2;\012lookup calt3 {\012    sub @aalt1 @aalt1' by [a b c d e f g h i j k l m n o p q r s t u v w x y z];\012} calt3;\012";
name = calt;
}
);
fontMaster = (
{
alignmentZones = (
"{800, 16}",
"{615, 14}",
"{330, 15}",
"{0, -16}",
"{-200, -16}"
);
ascender = 800;
capHeight = 615;
descender = -200;
id = UUID0;
xHeight = 330;
}
);
glyphs = (
{
glyphname = A;
lastChange = "2019-03-20 22:33:18 +0000";
layers = (
{
hints = (
{
horizontal = 1;
place = "{-183, 68}";
type = Stem;
},
{
horizontal = 1;
place = "{90, 64}";
type = Stem;
},
{
horizontal = 1;
place = "{365, 70}";
type = Stem;
}
);
layerId = UUID0;
paths = (
{
closed = 1;
nodes = (
"146 392 OFFCURVE",
"102 247 OFFCURVE",
"54 73 CURVE",
"26 72 OFFCURVE",
"12 62 OFFCURVE",
"12 40 CURVE SMOOTH",
"12 12 OFFCURVE",
"45 6 OFFCURVE",
"79 6 CURVE SMOOTH",
"87 6 OFFCURVE",
"94 7 OFFCURVE",
"101 7 CURVE SMOOTH",
"119 7 LINE SMOOTH",
"136 7 OFFCURVE",
"154 19 OFFCURVE",
"154 38 CURVE SMOOTH",
"154 60 OFFCURVE",
"136 68 OFFCURVE",
"121 71 CURVE",
"142 142 OFFCURVE",
"162 208 OFFCURVE",
"182 279 CURVE",
"242 279 LINE",
"275 66 LINE",
"261 59 OFFCURVE",
"250 46 OFFCURVE",
"250 35 CURVE SMOOTH",
"250 15 OFFCURVE",
"265 6 OFFCURVE",
"286 6 CURVE SMOOTH",
"325 6 LINE SMOOTH",
"330 6 OFFCURVE",
"334 5 OFFCURVE",
"339 5 CURVE SMOOTH",
"366 5 OFFCURVE",
"393 10 OFFCURVE",
"393 41 CURVE SMOOTH",
"393 58 OFFCURVE",
"377 74 OFFCURVE",
"360 74 CURVE SMOOTH",
"343 74 LINE",
"333 123 OFFCURVE",
"279 486 OFFCURVE",
"272 554 CURVE",
"292 557 OFFCURVE",
"318 568 OFFCURVE",
"318 592 CURVE SMOOTH",
"318 608 OFFCURVE",
"303 625 OFFCURVE",
"284 625 CURVE SMOOTH",
"238 625 LINE SMOOTH",
"197 625 OFFCURVE",
"156 621 OFFCURVE",
"156 590 CURVE SMOOTH",
"156 574 OFFCURVE",
"172 560 OFFCURVE",
"190 560 CURVE",
"190 560 LINE"
);
},
{
closed = 1;
nodes = (
"229 349 OFFCURVE",
"215 346 OFFCURVE",
"206 345 CURVE",
"225 422 LINE",
"238 351 LINE"
);
}
);
width = 413;
}
);
unicode = 0041;
},
{
glyphname = B;
lastChange = "2019-03-20 22:33:18 +0000";
layers = (
{
hints = (
{
place = "{120, 68}";
type = Stem;
},
{
place = "{365, 67}";
type = Stem;
},
{
horizontal = 1;
place = "{-185, 63}";
type = Stem;
},
{
horizontal = 1;
place = "{328, 60}";
type = Stem;
},
{
horizontal = 1;
place = "{369, 67}";
type = Stem;
}
);
layerId = UUID0;
paths = (
{
closed = 1;
nodes = (
"341 450 OFFCURVE",
"367 491 OFFCURVE",
"367 523 CURVE SMOOTH",
"367 546 OFFCURVE",
"352 576 OFFCURVE",
"335 591 CURVE SMOOTH",
"312 612 OFFCURVE",
"261 627 OFFCURVE",
"221 627 CURVE SMOOTH",
"211 627 LINE SMOOTH",
"151 625 OFFCURVE",
"13 597 OFFCURVE",
"13 552 CURVE SMOOTH",
"13 536 OFFCURVE",
"29 521 OFFCURVE",
"44 521 CURVE SMOOTH",
"48 521 OFFCURVE",
"54 522 OFFCURVE",
"57 524 CURVE SMOOTH",
"72 531 OFFCURVE",
"95 537 OFFCURVE",
"112 543 CURVE",
"119 464 OFFCURVE",
"121 384 OFFCURVE",
"121 306 CURVE SMOOTH",
"121 231 OFFCURVE",
"119 156 OFFCURVE",
"119 81 CURVE",
"110 75 OFFCURVE",
"98 74 OFFCURVE",
"89 68 CURVE",
"80 64 OFFCURVE",
"72 50 OFFCURVE",
"72 40 CURVE SMOOTH",
"72 22 OFFCURVE",
"91 7 OFFCURVE",
"107 7 CURVE",
"118 9 LINE",
"227 47 OFFCURVE",
"381 98 OFFCURVE",
"423 235 CURVE SMOOTH",
"426 246 OFFCURVE",
"429 264 OFFCURVE",
"429 277 CURVE SMOOTH",
"429 355 OFFCURVE",
"375 403 OFFCURVE",
"312 421 CURVE",
"312 421 LINE"
);
},
{
closed = 1;
nodes = (
"183 220 LINE SMOOTH",
"183 257 OFFCURVE",
"184 294 OFFCURVE",
"184 332 CURVE SMOOTH",
"184 338 LINE",
"189 342 LINE",
"207 352 OFFCURVE",
"237 360 OFFCURVE",
"256 360 CURVE SMOOTH",
"305 360 OFFCURVE",
"360 334 OFFCURVE",
"360 277 CURVE SMOOTH",
"360 196 OFFCURVE",
"258 130 OFFCURVE",
"183 103 CURVE",
"183 103 LINE"
);
},
{
closed = 1;
nodes = (
"229 558 OFFCURVE",
"294 557 OFFCURVE",
"294 524 CURVE SMOOTH",
"294 486 OFFCURVE",
"217 423 OFFCURVE",
"182 416 CURVE",
"175 554 LINE",
"185 556 OFFCURVE",
"196 558 OFFCURVE",
"203 558 CURVE SMOOTH",
"203 558 LINE"
);
}
);
width = 451;
}
);
unicode = 0042;
},
{
glyphname = C;
lastChange = "2019-03-20 22:33:18 +0000";
layers = (
{
hints = (
{
place = "{12, 63}";
type = Stem;
},
{
horizontal = 1;
place = "{265, 63}";
type = Stem;
},
{
horizontal = 1;
place = "{435, -20}";
target = down;
type = TopGhost;
}
);
layerId = UUID0;
paths = (
{
closed = 1;
nodes = (
"105 70 OFFCURVE",
"86 128 OFFCURVE",
"81 159 CURVE",
"73 193 OFFCURVE",
"72 238 OFFCURVE",
"72 261 CURVE SMOOTH",
"72 273 LINE SMOOTH",
"72 368 OFFCURVE",
"98 562 OFFCURVE",
"141 562 CURVE SMOOTH",
"147 562 OFFCURVE",
"160 519 OFFCURVE",
"162 509 CURVE",
"142 507 OFFCURVE",
"128 497 OFFCURVE",
"128 478 CURVE SMOOTH",
"128 462 OFFCURVE",
"143 447 OFFCURVE",
"159 447 CURVE SMOOTH",
"210 447 OFFCURVE",
"255 455 OFFCURVE",
"255 486 CURVE SMOOTH",
"255 510 OFFCURVE",
"238 513 OFFCURVE",
"221 516 CURVE",
"215 565 OFFCURVE",
"187 624 OFFCURVE",
"140 624 CURVE SMOOTH",
"28 624 OFFCURVE",
"6 374 OFFCURVE",
"6 253 CURVE SMOOTH",
"6 175 OFFCURVE",
"29 5 OFFCURVE",
"114 5 CURVE SMOOTH",
"162 5 OFFCURVE",
"183 44 OFFCURVE",
"197 115 CURVE",
"198 124 OFFCURVE",
"204 129 OFFCURVE",
"210 133 CURVE SMOOTH",
"220 139 OFFCURVE",
"228 145 OFFCURVE",
"228 165 CURVE",
"225 178 OFFCURVE",
"212 190 OFFCURVE",
"198 190 CURVE SMOOTH",
"172 190 LINE SMOOTH",
"142 190 OFFCURVE",
"111 187 OFFCURVE",
"111 159 CURVE SMOOTH",
"111 139 OFFCURVE",
"122 133 OFFCURVE",
"140 127 CURVE",
"137 115 LINE SMOOTH",
"132 94 OFFCURVE",
"126 70 OFFCURVE",
"116 70 CURVE SMOOTH",
"116 70 LINE"
);
}
);
width = 276;
}
);
unicode = 0043;
},
{
glyphname = D;
lastChange = "2019-03-20 22:33:18 +0000";
layers = (
{
hints = (
{
place = "{94, 72}";
type = Stem;
},
{
horizontal = 1;
place = "{-186, 21}";
target = up;
type = BottomGhost;
},
{
horizontal = 1;
place = "{340, 96}";
type = Stem;
},
{
horizontal = 1;
place = "{364, 72}";
type = Stem;
}
);
layerId = UUID0;
paths = (
{
closed = 1;
nodes = (
"100 83 OFFCURVE",
"94 82 OFFCURVE",
"87 80 CURVE",
"66 78 OFFCURVE",
"52 63 OFFCURVE",
"52 45 CURVE SMOOTH",
"52 23 OFFCURVE",
"70 10 OFFCURVE",
"92 10 CURVE",
"181 22 OFFCURVE",
"248 52 OFFCURVE",
"284 77 CURVE SMOOTH",
"368 136 OFFCURVE",
"429 220 OFFCURVE",
"429 326 CURVE SMOOTH",
"429 329 OFFCURVE",
"428 332 OFFCURVE",
"428 335 CURVE SMOOTH",
"428 345 LINE",
"420 454 OFFCURVE",
"376 572 OFFCURVE",
"268 611 CURVE SMOOTH",
"239 622 OFFCURVE",
"192 630 OFFCURVE",
"163 630 CURVE SMOOTH",
"134 630 OFFCURVE",
"89 623 OFFCURVE",
"61 613 CURVE SMOOTH",
"40 606 OFFCURVE",
"10 590 OFFCURVE",
"10 566 CURVE SMOOTH",
"10 547 OFFCURVE",
"26 534 OFFCURVE",
"43 534 CURVE SMOOTH",
"62 534 OFFCURVE",
"76 547 OFFCURVE",
"92 549 CURVE",
"110 84 LINE"
);
},
{
closed = 1;
nodes = (
"163 548 OFFCURVE",
"163 553 OFFCURVE",
"164 557 CURVE",
"168 557 OFFCURVE",
"173 558 OFFCURVE",
"176 558 CURVE SMOOTH",
"188 558 OFFCURVE",
"210 555 OFFCURVE",
"223 551 CURVE",
"275 539 OFFCURVE",
"306 505 OFFCURVE",
"328 460 CURVE SMOOTH",
"342 432 OFFCURVE",
"355 382 OFFCURVE",
"355 349 CURVE SMOOTH",
"355 334 LINE SMOOTH",
"355 325 OFFCURVE",
"354 310 OFFCURVE",
"353 300 CURVE SMOOTH",
"349 250 OFFCURVE",
"321 210 OFFCURVE",
"288 175 CURVE SMOOTH",
"257 143 OFFCURVE",
"219 123 OFFCURVE",
"181 104 CURVE",
"175 166 OFFCURVE",
"163 453 OFFCURVE",
"163 542 CURVE SMOOTH",
"163 542 LINE"
);
}
);
width = 450;
}
);
unicode = 0044;
},
{
glyphname = E;
lastChange = "2019-03-20 22:33:18 +0000";
layers = (
{
hints = (
{
place = "{18, 64}";
type = Stem;
},
{
place = "{26, 64}";
type = Stem;
},
{
place = "{154, 60}";
type = Stem;
},
{
place = "{218, 60}";
type = Stem;
},
{
place = "{226, 68}";
type = Stem;
},
{
horizontal = 1;
place = "{-186, 21}";
target = up;
type = BottomGhost;
},
{
horizontal = 1;
place = "{95, 66}";
type = Stem;
},
{
horizontal = 1;
place = "{331, 64}";
type = Stem;
},
{
horizontal = 1;
place = "{435, -20}";
target = down;
type = TopGhost;
}
);
layerId = UUID0;
paths = (
{
closed = 1;
nodes = (
"178 96 OFFCURVE",
"136 96 OFFCURVE",
"89 94 CURVE",
"89 128 OFFCURVE",
"87 160 OFFCURVE",
"85 192 CURVE SMOOTH",
"83 224 OFFCURVE",
"82 255 OFFCURVE",
"82 287 CURVE SMOOTH",
"82 298 LINE",
"153 298 LINE",
"156 289 LINE",
"162 280 OFFCURVE",
"174 273 OFFCURVE",
"184 273 CURVE SMOOTH",
"190 273 OFFCURVE",
"201 278 OFFCURVE",
"207 284 CURVE SMOOTH",
"212 290 OFFCURVE",
"215 300 OFFCURVE",
"215 308 CURVE SMOOTH",
"215 312 LINE",
"213 361 LINE",
"211 377 OFFCURVE",
"198 389 OFFCURVE",
"183 389 CURVE SMOOTH",
"170 389 OFFCURVE",
"157 378 OFFCURVE",
"153 367 CURVE SMOOTH",
"151 361 LINE",
"147 361 LINE SMOOTH",
"135 361 OFFCURVE",
"124 360 OFFCURVE",
"115 359 CURVE SMOOTH",
"105 358 OFFCURVE",
"95 358 OFFCURVE",
"87 358 CURVE SMOOTH",
"79 358 LINE",
"76 386 OFFCURVE",
"75 441 OFFCURVE",
"75 486 CURVE SMOOTH",
"75 503 OFFCURVE",
"75 519 OFFCURVE",
"76 528 CURVE",
"217 534 LINE",
"221 525 LINE SMOOTH",
"226 516 OFFCURVE",
"238 508 OFFCURVE",
"247 508 CURVE SMOOTH",
"260 508 OFFCURVE",
"273 515 OFFCURVE",
"276 527 CURVE",
"279 532 OFFCURVE",
"280 539 OFFCURVE",
"280 545 CURVE SMOOTH",
"274 606 LINE SMOOTH",
"272 620 OFFCURVE",
"259 632 OFFCURVE",
"245 632 CURVE SMOOTH",
"236 632 OFFCURVE",
"215 627 OFFCURVE",
"215 607 CURVE SMOOTH",
"215 598 LINE",
"208 597 OFFCURVE",
"212 597 OFFCURVE",
"202 597 CURVE SMOOTH",
"159 597 OFFCURVE",
"116 593 OFFCURVE",
"73 592 CURVE SMOOTH",
"62 592 OFFCURVE",
"53 592 OFFCURVE",
"43 590 CURVE SMOOTH",
"20 585 OFFCURVE",
"12 578 OFFCURVE",
"10 553 CURVE SMOOTH",
"9 534 OFFCURVE",
"8 513 OFFCURVE",
"8 494 CURVE SMOOTH",
"9 438 OFFCURVE",
"11 373 OFFCURVE",
"13 317 CURVE SMOOTH",
"15 236 OFFCURVE",
"18 147 OFFCURVE",
"21 67 CURVE SMOOTH",
"21 58 LINE SMOOTH",
"21 41 OFFCURVE",
"34 25 OFFCURVE",
"50 22 CURVE SMOOTH",
"55 21 OFFCURVE",
"64 20 OFFCURVE",
"69 20 CURVE SMOOTH",
"115 20 OFFCURVE",
"178 20 OFFCURVE",
"223 21 CURVE SMOOTH",
"228 21 OFFCURVE",
"234 19 OFFCURVE",
"237 16 CURVE SMOOTH",
"243 11 OFFCURVE",
"252 7 OFFCURVE",
"259 7 CURVE SMOOTH",
"282 7 OFFCURVE",
"292 28 OFFCURVE",
"292 46 CURVE SMOOTH",
"291 71 OFFCURVE",
"289 88 OFFCURVE",
"287 102 CURVE SMOOTH",
"284 122 OFFCURVE",
"272 134 OFFCURVE",
"256 134 CURVE SMOOTH",
"240 134 OFFCURVE",
"229 123 OFFCURVE",
"226 104 CURVE",
"226 98 LINE"
);
}
);
width = 310;
}
);
unicode = 0045;
},
{
glyphname = F;
lastChange = "2019-03-20 22:33:18 +0000";
layers = (
{
hints = (
{
place = "{46, 61}";
type = Stem;
},
{
place = "{148, 56}";
type = Stem;
},
{
place = "{176, 60}";
type = Stem;
},
{
horizontal = 1;
place = "{-182, 60}";
type = Stem;
},
{
horizontal = 1;
place = "{169, 59}";
type = Stem;
},
{
horizontal = 1;
place = "{357, 58}";
type = Stem;
},
{
horizontal = 1;
place = "{434, -20}";
target = down;
type = TopGhost;
}
);
layerId = UUID0;
paths = (
{
closed = 1;
nodes = (
"151 354 LINE",
"155 342 LINE SMOOTH",
"160 330 OFFCURVE",
"171 321 OFFCURVE",
"183 321 CURVE SMOOTH",
"201 321 OFFCURVE",
"211 336 OFFCURVE",
"211 348 CURVE SMOOTH",
"211 353 OFFCURVE",
"208 397 OFFCURVE",
"206 418 CURVE",
"204 429 OFFCURVE",
"194 440 OFFCURVE",
"183 442 CURVE",
"178 442 LINE SMOOTH",
"168 442 OFFCURVE",
"157 434 OFFCURVE",
"152 423 CURVE",
"152 421 OFFCURVE",
"152 420 OFFCURVE",
"151 419 CURVE",
"106 416 LINE",
"105 461 OFFCURVE",
"102 503 OFFCURVE",
"101 546 CURVE",
"129 545 OFFCURVE",
"150 542 OFFCURVE",
"177 541 CURVE",
"177 535 LINE SMOOTH",
"177 530 OFFCURVE",
"178 522 OFFCURVE",
"179 518 CURVE SMOOTH",
"182 506 OFFCURVE",
"196 497 OFFCURVE",
"207 497 CURVE SMOOTH",
"224 497 OFFCURVE",
"235 512 OFFCURVE",
"237 524 CURVE",
"237 538 OFFCURVE",
"236 559 OFFCURVE",
"235 572 CURVE SMOOTH",
"235 579 OFFCURVE",
"234 585 OFFCURVE",
"234 592 CURVE SMOOTH",
"234 595 OFFCURVE",
"233 602 OFFCURVE",
"231 608 CURVE SMOOTH",
"227 616 OFFCURVE",
"217 623 OFFCURVE",
"206 623 CURVE SMOOTH",
"198 623 OFFCURVE",
"187 616 OFFCURVE",
"182 608 CURVE",
"182 607 OFFCURVE",
"181 604 OFFCURVE",
"180 602 CURVE",
"110 605 LINE SMOOTH",
"100 605 OFFCURVE",
"90 605 OFFCURVE",
"79 606 CURVE SMOOTH",
"73 606 LINE SMOOTH",
"54 606 OFFCURVE",
"46 595 OFFCURVE",
"45 576 CURVE SMOOTH",
"44 555 OFFCURVE",
"44 534 OFFCURVE",
"44 512 CURVE SMOOTH",
"44 497 OFFCURVE",
"45 481 OFFCURVE",
"45 466 CURVE SMOOTH",
"46 435 OFFCURVE",
"47 404 OFFCURVE",
"47 373 CURVE SMOOTH",
"47 61 LINE",
"44 60 OFFCURVE",
"41 60 OFFCURVE",
"39 60 CURVE SMOOTH",
"24 58 OFFCURVE",
"13 46 OFFCURVE",
"13 31 CURVE SMOOTH",
"13 29 OFFCURVE",
"17 6 OFFCURVE",
"42 6 CURVE SMOOTH",
"61 6 OFFCURVE",
"84 7 OFFCURVE",
"102 8 CURVE SMOOTH",
"110 8 OFFCURVE",
"120 9 OFFCURVE",
"129 9 CURVE SMOOTH",
"146 9 OFFCURVE",
"159 21 OFFCURVE",
"159 38 CURVE SMOOTH",
"159 56 OFFCURVE",
"148 68 OFFCURVE",
"134 70 CURVE SMOOTH",
"130 71 OFFCURVE",
"122 71 OFFCURVE",
"118 71 CURVE SMOOTH",
"111 71 LINE",
"111 113 LINE SMOOTH",
"111 148 OFFCURVE",
"110 183 OFFCURVE",
"110 218 CURVE SMOOTH",
"109 253 OFFCURVE",
"108 288 OFFCURVE",
"108 322 CURVE SMOOTH",
"108 347 LINE SMOOTH",
"108 352 OFFCURVE",
"109 357 OFFCURVE",
"109 362 CURVE",
"151 361 LINE"
);
}
);
width = 253;
}
);
unicode = 0046;
},
{
glyphname = G;
lastChange = "2019-03-20 22:33:18 +0000";
layers = (
{
hints = (
{
place = "{12, 57}";
type = Stem;
},
{
place = "{86, 62}";
type = Stem;
},
{
place = "{171, 55}";
type = Stem;
},
{
horizontal = 1;
place = "{-186, 53}";
type = Stem;
},
{
horizontal = 1;
place = "{-186, 63}";
type = Stem;
},
{
horizontal = 1;
place = "{-142, 58}";
type = Stem;
},
{
horizontal = 1;
place = "{66, 56}";
type = Stem;
},
{
horizontal = 1;
place = "{238, 68}";
type = Stem;
},
{
horizontal = 1;
place = "{251, 55}";
type = Stem;
},
{
horizontal = 1;
place = "{436, -20}";
target = down;
type = TopGhost;
}
);
layerId = UUID0;
paths = (
{
closed = 1;
nodes = (
"226 518 OFFCURVE",
"220 551 OFFCURVE",
"211 569 CURVE SMOOTH",
"197 597 OFFCURVE",
"174 631 OFFCURVE",
"141 631 CURVE SMOOTH",
"109 631 OFFCURVE",
"86 605 OFFCURVE",
"74 583 CURVE SMOOTH",
"57 552 OFFCURVE",
"37 497 OFFCURVE",
"31 464 CURVE SMOOTH",
"20 395 OFFCURVE",
"13 332 OFFCURVE",
"13 269 CURVE SMOOTH",
"13 196 OFFCURVE",
"34 54 OFFCURVE",
"128 54 CURVE SMOOTH",
"161 54 OFFCURVE",
"192 77 OFFCURVE",
"208 103 CURVE",
"214 66 LINE",
"211 65 LINE SMOOTH",
"198 62 OFFCURVE",
"190 49 OFFCURVE",
"190 38 CURVE SMOOTH",
"190 22 OFFCURVE",
"201 11 OFFCURVE",
"217 11 CURVE",
"253 13 LINE",
"286 17 LINE SMOOTH",
"299 19 OFFCURVE",
"310 31 OFFCURVE",
"310 45 CURVE SMOOTH",
"310 50 LINE",
"307 63 OFFCURVE",
"294 74 OFFCURVE",
"281 74 CURVE SMOOTH",
"271 74 LINE",
"262 129 OFFCURVE",
"257 170 OFFCURVE",
"255 211 CURVE SMOOTH",
"253 241 OFFCURVE",
"251 271 OFFCURVE",
"247 299 CURVE",
"243 318 OFFCURVE",
"235 327 OFFCURVE",
"217 327 CURVE SMOOTH",
"213 327 OFFCURVE",
"211 326 OFFCURVE",
"209 326 CURVE SMOOTH",
"187 323 OFFCURVE",
"165 321 OFFCURVE",
"137 318 CURVE",
"129 327 OFFCURVE",
"123 332 OFFCURVE",
"114 332 CURVE SMOOTH",
"96 332 OFFCURVE",
"88 317 OFFCURVE",
"88 302 CURVE SMOOTH",
"88 273 LINE SMOOTH",
"88 251 OFFCURVE",
"95 225 OFFCURVE",
"120 225 CURVE SMOOTH",
"123 225 OFFCURVE",
"127 225 OFFCURVE",
"130 227 CURVE SMOOTH",
"140 231 OFFCURVE",
"149 242 OFFCURVE",
"149 254 CURVE SMOOTH",
"149 261 LINE",
"196 266 LINE",
"197 253 LINE SMOOTH",
"197 248 OFFCURVE",
"198 239 OFFCURVE",
"198 232 CURVE SMOOTH",
"199 223 OFFCURVE",
"199 215 OFFCURVE",
"199 208 CURVE SMOOTH",
"199 203 LINE",
"191 168 OFFCURVE",
"160 112 OFFCURVE",
"127 112 CURVE SMOOTH",
"97 112 OFFCURVE",
"83 161 OFFCURVE",
"78 183 CURVE SMOOTH",
"73 207 OFFCURVE",
"69 245 OFFCURVE",
"69 268 CURVE SMOOTH",
"69 279 OFFCURVE",
"70 298 OFFCURVE",
"71 310 CURVE SMOOTH",
"74 349 OFFCURVE",
"78 386 OFFCURVE",
"83 425 CURVE SMOOTH",
"89 469 OFFCURVE",
"101 514 OFFCURVE",
"120 549 CURVE SMOOTH",
"124 558 OFFCURVE",
"132 574 OFFCURVE",
"138 574 CURVE SMOOTH",
"139 574 OFFCURVE",
"142 571 OFFCURVE",
"143 570 CURVE SMOOTH",
"157 551 OFFCURVE",
"169 517 OFFCURVE",
"170 494 CURVE",
"160 490 OFFCURVE",
"152 484 OFFCURVE",
"145 477 CURVE SMOOTH",
"141 474 OFFCURVE",
"138 466 OFFCURVE",
"138 461 CURVE SMOOTH",
"138 446 OFFCURVE",
"151 434 OFFCURVE",
"164 434 CURVE SMOOTH",
"167 434 OFFCURVE",
"172 435 OFFCURVE",
"175 437 CURVE SMOOTH",
"188 442 OFFCURVE",
"204 444 OFFCURVE",
"218 444 CURVE SMOOTH",
"224 444 OFFCURVE",
"229 445 OFFCURVE",
"234 446 CURVE SMOOTH",
"246 448 OFFCURVE",
"256 460 OFFCURVE",
"256 473 CURVE SMOOTH",
"256 486 OFFCURVE",
"243 500 OFFCURVE",
"226 500 CURVE",
"226 500 LINE"
);
}
);
width = 324;
}
);
unicode = 0047;
},
{
glyphname = H;
lastChange = "2019-03-20 22:33:18 +0000";
layers = (
{
hints = (
{
place = "{55, 59}";
type = Stem;
},
{
place = "{71, 61}";
type = Stem;
},
{
place = "{222, 60}";
type = Stem;
},
{
horizontal = 1;
place = "{-178, 55}";
type = Stem;
},
{
horizontal = 1;
place = "{-173, 60}";
type = Stem;
},
{
horizontal = 1;
place = "{189, 60}";
type = Stem;
},
{
horizontal = 1;
place = "{358, 56}";
type = Stem;
},
{
horizontal = 1;
place = "{371, 57}";
type = Stem;
},
{
horizontal = 1;
place = "{376, 59}";
type = Stem;
}
);
layerId = UUID0;
paths = (
{
closed = 1;
nodes = (
"273 564 LINE",
"276 564 OFFCURVE",
"280 565 OFFCURVE",
"283 566 CURVE SMOOTH",
"296 568 OFFCURVE",
"312 580 OFFCURVE",
"312 595 CURVE SMOOTH",
"312 610 OFFCURVE",
"300 625 OFFCURVE",
"283 625 CURVE SMOOTH",
"251 625 OFFCURVE",
"222 620 OFFCURVE",
"194 612 CURVE",
"182 610 OFFCURVE",
"172 599 OFFCURVE",
"172 585 CURVE SMOOTH",
"172 569 OFFCURVE",
"184 558 OFFCURVE",
"199 558 CURVE SMOOTH",
"204 558 LINE SMOOTH",
"206 558 OFFCURVE",
"212 560 OFFCURVE",
"215 560 CURVE",
"215 452 LINE",
"117 439 LINE",
"110 557 LINE",
"119 561 LINE SMOOTH",
"129 565 OFFCURVE",
"137 576 OFFCURVE",
"137 588 CURVE SMOOTH",
"137 606 OFFCURVE",
"122 618 OFFCURVE",
"106 618 CURVE",
"30 603 LINE SMOOTH",
"20 601 OFFCURVE",
"11 593 OFFCURVE",
"10 583 CURVE",
"10 562 OFFCURVE",
"21 550 OFFCURVE",
"37 550 CURVE SMOOTH",
"51 550 LINE",
"56 386 OFFCURVE",
"63 232 OFFCURVE",
"68 69 CURVE",
"60 67 LINE SMOOTH",
"48 65 OFFCURVE",
"40 50 OFFCURVE",
"40 40 CURVE SMOOTH",
"40 22 OFFCURVE",
"56 12 OFFCURVE",
"68 12 CURVE SMOOTH",
"74 12 OFFCURVE",
"82 13 OFFCURVE",
"86 13 CURVE SMOOTH",
"136 16 LINE",
"151 18 OFFCURVE",
"164 31 OFFCURVE",
"164 46 CURVE SMOOTH",
"164 64 OFFCURVE",
"152 77 OFFCURVE",
"134 77 CURVE SMOOTH",
"127 77 LINE",
"126 122 OFFCURVE",
"124 166 OFFCURVE",
"122 210 CURVE SMOOTH",
"122 220 OFFCURVE",
"121 224 OFFCURVE",
"121 229 CURVE SMOOTH",
"119 280 OFFCURVE",
"118 329 OFFCURVE",
"117 381 CURVE",
"146 385 OFFCURVE",
"194 390 OFFCURVE",
"215 391 CURVE",
"226 60 LINE",
"209 51 OFFCURVE",
"205 44 OFFCURVE",
"205 33 CURVE SMOOTH",
"205 16 OFFCURVE",
"220 7 OFFCURVE",
"233 7 CURVE SMOOTH",
"237 7 OFFCURVE",
"240 8 OFFCURVE",
"242 8 CURVE SMOOTH",
"254 10 OFFCURVE",
"269 11 OFFCURVE",
"282 12 CURVE SMOOTH",
"293 12 OFFCURVE",
"301 12 OFFCURVE",
"306 13 CURVE SMOOTH",
"319 15 OFFCURVE",
"331 27 OFFCURVE",
"331 42 CURVE SMOOTH",
"331 57 OFFCURVE",
"317 71 OFFCURVE",
"302 71 CURVE SMOOTH",
"290 71 LINE"
);
}
);
width = 348;
}
);
unicode = 0048;
},
{
glyphname = I;
lastChange = "2019-03-20 22:33:18 +0000";
layers = (
{
hints = (
{
place = "{67, 61}";
type = Stem;
},
{
place = "{74, 62}";
type = Stem;
},
{
horizontal = 1;
place = "{-185, 60}";
type = Stem;
},
{
horizontal = 1;
place = "{366, 68}";
type = Stem;
}
);
layerId = UUID0;
paths = (
{
closed = 1;
nodes = (
"74 70 LINE",
"58 68 LINE SMOOTH",
"44 66 OFFCURVE",
"33 53 OFFCURVE",
"33 40 CURVE SMOOTH",
"33 25 OFFCURVE",
"44 13 OFFCURVE",
"59 11 CURVE",
"158 11 LINE SMOOTH",
"175 11 OFFCURVE",
"190 23 OFFCURVE",
"190 42 CURVE SMOOTH",
"190 60 OFFCURVE",
"180 70 OFFCURVE",
"159 71 CURVE SMOOTH",
"136 73 LINE",
"119 566 LINE",
"139 569 LINE",
"151 574 OFFCURVE",
"161 587 OFFCURVE",
"161 599 CURVE SMOOTH",
"161 616 OFFCURVE",
"145 627 OFFCURVE",
"133 629 CURVE",
"125 629 LINE SMOOTH",
"109 629 OFFCURVE",
"91 627 OFFCURVE",
"79 625 CURVE SMOOTH",
"62 623 OFFCURVE",
"39 620 OFFCURVE",
"23 616 CURVE",
"10 614 OFFCURVE",
"1 602 OFFCURVE",
"1 589 CURVE SMOOTH",
"1 574 OFFCURVE",
"14 561 OFFCURVE",
"29 561 CURVE SMOOTH",
"31 561 OFFCURVE",
"44 562 OFFCURVE",
"51 563 CURVE SMOOTH",
"57 564 LINE"
);
}
);
width = 205;
}
);
unicode = 0049;
},
{
glyphname = J;
lastChange = "2019-03-20 22:33:18 +0000";
layers = (
{
hints = (
{
place = "{186, 62}";
type = Stem;
},
{
horizontal = 1;
place = "{-184, 64}";
type = Stem;
},
{
horizontal = 1;
place = "{87, 56}";
type = Stem;
},
{
horizontal = 1;
place = "{358, 58}";
type = Stem;
},
{
horizontal = 1;
place = "{375, 61}";
type = Stem;
}
);
layerId = UUID0;
paths = (
{
closed = 1;
nodes = (
"184 498 OFFCURVE",
"183 441 OFFCURVE",
"181 384 CURVE SMOOTH",
"177 274 LINE SMOOTH",
"175 237 OFFCURVE",
"174 200 OFFCURVE",
"173 163 CURVE SMOOTH",
"173 150 OFFCURVE",
"173 72 OFFCURVE",
"154 72 CURVE SMOOTH",
"139 72 OFFCURVE",
"133 113 OFFCURVE",
"129 128 CURVE",
"122 173 OFFCURVE",
"116 219 OFFCURVE",
"110 264 CURVE",
"110 272 OFFCURVE",
"108 279 OFFCURVE",
"108 288 CURVE",
"112 289 OFFCURVE",
"115 289 OFFCURVE",
"117 289 CURVE SMOOTH",
"130 292 OFFCURVE",
"142 306 OFFCURVE",
"142 320 CURVE SMOOTH",
"142 325 LINE",
"139 339 OFFCURVE",
"127 351 OFFCURVE",
"112 351 CURVE SMOOTH",
"106 351 LINE",
"78 347 OFFCURVE",
"54 341 OFFCURVE",
"31 335 CURVE SMOOTH",
"20 332 OFFCURVE",
"12 321 OFFCURVE",
"12 308 CURVE SMOOTH",
"12 292 OFFCURVE",
"22 281 OFFCURVE",
"35 279 CURVE SMOOTH",
"43 277 LINE",
"61 123 LINE SMOOTH",
"64 101 OFFCURVE",
"74 67 OFFCURVE",
"84 48 CURVE SMOOTH",
"95 27 OFFCURVE",
"125 8 OFFCURVE",
"150 8 CURVE SMOOTH",
"186 8 OFFCURVE",
"219 37 OFFCURVE",
"224 70 CURVE SMOOTH",
"227 88 OFFCURVE",
"231 122 OFFCURVE",
"233 142 CURVE SMOOTH",
"236 188 OFFCURVE",
"238 234 OFFCURVE",
"239 280 CURVE SMOOTH",
"239 303 OFFCURVE",
"241 341 OFFCURVE",
"241 364 CURVE SMOOTH",
"241 420 OFFCURVE",
"244 477 OFFCURVE",
"245 533 CURVE SMOOTH",
"245 560 LINE",
"278 562 LINE SMOOTH",
"282 562 OFFCURVE",
"284 563 OFFCURVE",
"288 563 CURVE SMOOTH",
"294 563 OFFCURVE",
"304 564 OFFCURVE",
"310 565 CURVE SMOOTH",
"324 567 OFFCURVE",
"338 580 OFFCURVE",
"338 596 CURVE SMOOTH",
"338 612 OFFCURVE",
"323 627 OFFCURVE",
"307 627 CURVE SMOOTH",
"293 627 LINE SMOOTH",
"275 626 OFFCURVE",
"253 625 OFFCURVE",
"234 623 CURVE SMOOTH",
"130 612 LINE SMOOTH",
"120 611 OFFCURVE",
"108 610 OFFCURVE",
"100 608 CURVE SMOOTH",
"86 606 LINE SMOOTH",
"71 604 OFFCURVE",
"58 592 OFFCURVE",
"58 576 CURVE SMOOTH",
"58 560 OFFCURVE",
"71 547 OFFCURVE",
"87 547 CURVE SMOOTH",
"103 547 LINE",
"185 557 LINE"
);
}
);
width = 358;
}
);
unicode = 004A;
},
{
glyphname = K;
lastChange = "2019-03-20 22:33:18 +0000";
layers = (
{
hints = (
{
place = "{12, 129}";
type = Stem;
},
{
place = "{34, 61}";
type = Stem;
},
{
place = "{176, 129}";
type = Stem;
},
{
horizontal = 1;
place = "{-184, 55}";
type = Stem;
},
{
horizontal = 1;
place = "{371, 65}";
type = Stem;
}
);
layerId = UUID0;
paths = (
{
closed = 1;
nodes = (
"220 475 LINE SMOOTH",
"241 503 OFFCURVE",
"260 532 OFFCURVE",
"274 567 CURVE",
"293 575 OFFCURVE",
"300 585 OFFCURVE",
"300 598 CURVE SMOOTH",
"300 616 OFFCURVE",
"282 627 OFFCURVE",
"265 627 CURVE SMOOTH",
"244 626 OFFCURVE",
"220 624 OFFCURVE",
"200 621 CURVE SMOOTH",
"186 619 OFFCURVE",
"174 607 OFFCURVE",
"174 593 CURVE SMOOTH",
"174 585 OFFCURVE",
"177 565 OFFCURVE",
"206 565 CURVE",
"185 531 OFFCURVE",
"135 458 OFFCURVE",
"109 423 CURVE",
"115 567 LINE",
"120 569 LINE SMOOTH",
"130 573 OFFCURVE",
"140 586 OFFCURVE",
"140 598 CURVE SMOOTH",
"140 613 OFFCURVE",
"127 626 OFFCURVE",
"112 628 CURVE",
"100 628 LINE",
"42 622 LINE SMOOTH",
"27 620 OFFCURVE",
"14 608 OFFCURVE",
"14 593 CURVE SMOOTH",
"14 578 OFFCURVE",
"26 565 OFFCURVE",
"41 565 CURVE SMOOTH",
"45 565 OFFCURVE",
"49 565 OFFCURVE",
"53 564 CURVE",
"32 63 LINE",
"26 62 LINE SMOOTH",
"16 59 OFFCURVE",
"8 47 OFFCURVE",
"8 36 CURVE SMOOTH",
"8 19 OFFCURVE",
"23 8 OFFCURVE",
"37 8 CURVE SMOOTH",
"95 10 LINE SMOOTH",
"98 10 OFFCURVE",
"109 10 OFFCURVE",
"114 11 CURVE SMOOTH",
"127 14 OFFCURVE",
"139 26 OFFCURVE",
"139 41 CURVE SMOOTH",
"139 58 OFFCURVE",
"124 72 OFFCURVE",
"108 72 CURVE SMOOTH",
"94 72 LINE",
"95 142 OFFCURVE",
"100 208 OFFCURVE",
"103 278 CURVE",
"196 62 LINE",
"181 59 OFFCURVE",
"173 46 OFFCURVE",
"173 36 CURVE SMOOTH",
"173 17 OFFCURVE",
"188 9 OFFCURVE",
"202 9 CURVE SMOOTH",
"219 9 LINE SMOOTH",
"247 9 OFFCURVE",
"267 11 OFFCURVE",
"283 19 CURVE SMOOTH",
"293 23 OFFCURVE",
"302 36 OFFCURVE",
"302 47 CURVE SMOOTH",
"302 50 OFFCURVE",
"300 55 OFFCURVE",
"299 58 CURVE SMOOTH",
"294 69 OFFCURVE",
"281 77 OFFCURVE",
"271 77 CURVE SMOOTH",
"258 77 LINE",
"243 110 OFFCURVE",
"232 138 OFFCURVE",
"217 171 CURVE SMOOTH",
"190 233 OFFCURVE",
"166 297 OFFCURVE",
"134 352 CURVE",
"155 383 OFFCURVE",
"178 413 OFFCURVE",
"197 442 CURVE",
"197 442 LINE"
);
}
);
width = 322;
}
);
unicode = 004B;
},
{
glyphname = L;
lastChange = "2019-03-20 22:33:18 +0000";
layers = (
{
hints = (
{
place = "{53, 62}";
type = Stem;
},
{
place = "{66, 63}";
type = Stem;
},
{
place = "{258, 64}";
type = Stem;
},
{
horizontal = 1;
place = "{-186, 21}";
target = up;
type = BottomGhost;
},
{
horizontal = 1;
place = "{-74, 66}";
type = Stem;
},
{
horizontal = 1;
place = "{372, 61}";
type = Stem;
}
);
layerId = UUID0;
paths = (
{
closed = 1;
nodes = (
"59 416 OFFCURVE",
"56 367 OFFCURVE",
"55 318 CURVE SMOOTH",
"54 259 OFFCURVE",
"53 200 OFFCURVE",
"53 142 CURVE SMOOTH",
"53 113 OFFCURVE",
"52 84 OFFCURVE",
"52 55 CURVE SMOOTH",
"52 27 OFFCURVE",
"65 16 OFFCURVE",
"93 16 CURVE SMOOTH",
"180 16 LINE SMOOTH",
"193 16 OFFCURVE",
"207 15 OFFCURVE",
"221 13 CURVE SMOOTH",
"246 10 LINE SMOOTH",
"254 9 OFFCURVE",
"266 8 OFFCURVE",
"275 8 CURVE SMOOTH",
"306 8 OFFCURVE",
"319 20 OFFCURVE",
"319 49 CURVE SMOOTH",
"319 65 OFFCURVE",
"318 84 OFFCURVE",
"317 99 CURVE SMOOTH",
"317 106 OFFCURVE",
"316 112 OFFCURVE",
"316 121 CURVE",
"333 123 OFFCURVE",
"350 135 OFFCURVE",
"350 153 CURVE SMOOTH",
"350 169 OFFCURVE",
"337 181 OFFCURVE",
"322 183 CURVE",
"311 183 LINE SMOOTH",
"291 183 OFFCURVE",
"260 178 OFFCURVE",
"241 172 CURVE SMOOTH",
"230 169 OFFCURVE",
"222 162 OFFCURVE",
"222 139 CURVE",
"225 127 OFFCURVE",
"237 116 OFFCURVE",
"251 116 CURVE SMOOTH",
"259 116 LINE",
"259 70 LINE",
"221 77 OFFCURVE",
"182 77 OFFCURVE",
"142 77 CURVE SMOOTH",
"117 77 LINE",
"116 106 OFFCURVE",
"116 124 OFFCURVE",
"116 153 CURVE SMOOTH",
"116 263 OFFCURVE",
"120 373 OFFCURVE",
"125 483 CURVE SMOOTH",
"129 562 LINE",
"143 563 LINE SMOOTH",
"163 564 OFFCURVE",
"174 575 OFFCURVE",
"174 593 CURVE SMOOTH",
"174 612 OFFCURVE",
"158 625 OFFCURVE",
"142 625 CURVE SMOOTH",
"141 625 OFFCURVE",
"133 625 OFFCURVE",
"70 622 CURVE SMOOTH",
"62 622 OFFCURVE",
"47 621 OFFCURVE",
"40 620 CURVE SMOOTH",
"22 619 OFFCURVE",
"11 608 OFFCURVE",
"11 592 CURVE SMOOTH",
"11 575 OFFCURVE",
"21 566 OFFCURVE",
"38 563 CURVE SMOOTH",
"43 562 OFFCURVE",
"49 562 OFFCURVE",
"54 562 CURVE SMOOTH",
"65 563 LINE",
"64 530 OFFCURVE",
"63 498 OFFCURVE",
"61 466 CURVE SMOOTH",
"61 466 LINE"
);
}
);
width = 368;
}
);
unicode = 004C;
},
{
glyphname = M;
lastChange = "2019-03-20 22:33:18 +0000";
layers = (
{
hints = (
{
place = "{377, 60}";
type = Stem;
},
{
horizontal = 1;
place = "{-184, 63}";
type = Stem;
},
{
horizontal = 1;
place = "{-1, 54}";
type = Stem;
},
{
horizontal = 1;
place = "{357, 54}";
type = Stem;
},
{
horizontal = 1;
place = "{378, 56}";
type = Stem;
}
);
layerId = UUID0;
paths = (
{
closed = 1;
nodes = (
"50 93 LINE SMOOTH",
"45 92 OFFCURVE",
"40 91 OFFCURVE",
"33 88 CURVE",
"22 86 OFFCURVE",
"14 74 OFFCURVE",
"14 62 CURVE SMOOTH",
"14 56 LINE",
"17 44 OFFCURVE",
"29 35 OFFCURVE",
"41 35 CURVE SMOOTH",
"57 35 OFFCURVE",
"80 36 OFFCURVE",
"95 37 CURVE SMOOTH",
"103 37 OFFCURVE",
"110 38 OFFCURVE",
"117 38 CURVE SMOOTH",
"123 38 OFFCURVE",
"131 39 OFFCURVE",
"135 40 CURVE SMOOTH",
"146 43 OFFCURVE",
"157 56 OFFCURVE",
"157 68 CURVE SMOOTH",
"157 81 OFFCURVE",
"146 94 OFFCURVE",
"134 97 CURVE SMOOTH",
"129 98 OFFCURVE",
"123 98 OFFCURVE",
"118 98 CURVE",
"135 200 LINE SMOOTH",
"148 282 OFFCURVE",
"163 365 OFFCURVE",
"180 447 CURVE",
"194 403 OFFCURVE",
"193 393 OFFCURVE",
"203 351 CURVE",
"209 316 OFFCURVE",
"218 281 OFFCURVE",
"227 247 CURVE",
"217 243 LINE",
"209 238 OFFCURVE",
"203 228 OFFCURVE",
"203 219 CURVE SMOOTH",
"203 204 OFFCURVE",
"217 190 OFFCURVE",
"231 190 CURVE SMOOTH",
"236 190 LINE",
"247 192 OFFCURVE",
"263 194 OFFCURVE",
"272 194 CURVE SMOOTH",
"280 194 OFFCURVE",
"294 193 OFFCURVE",
"302 192 CURVE SMOOTH",
"307 192 LINE SMOOTH",
"323 192 OFFCURVE",
"336 204 OFFCURVE",
"336 221 CURVE SMOOTH",
"336 234 OFFCURVE",
"326 247 OFFCURVE",
"313 250 CURVE",
"312 250 OFFCURVE",
"310 251 OFFCURVE",
"309 251 CURVE",
"322 286 OFFCURVE",
"357 366 OFFCURVE",
"378 411 CURVE",
"378 63 LINE",
"358 58 LINE SMOOTH",
"348 56 OFFCURVE",
"339 44 OFFCURVE",
"339 33 CURVE SMOOTH",
"339 27 LINE",
"342 15 OFFCURVE",
"355 6 OFFCURVE",
"366 6 CURVE SMOOTH",
"464 11 LINE",
"477 14 OFFCURVE",
"488 27 OFFCURVE",
"488 41 CURVE",
"486 55 OFFCURVE",
"477 68 OFFCURVE",
"462 69 CURVE",
"437 69 LINE",
"437 79 LINE SMOOTH",
"436 135 OFFCURVE",
"435 190 OFFCURVE",
"435 245 CURVE SMOOTH",
"435 487 LINE SMOOTH",
"435 502 OFFCURVE",
"436 515 OFFCURVE",
"437 530 CURVE SMOOTH",
"437 535 OFFCURVE",
"438 538 OFFCURVE",
"438 542 CURVE",
"443 543 LINE SMOOTH",
"455 546 OFFCURVE",
"464 560 OFFCURVE",
"464 571 CURVE SMOOTH",
"464 585 OFFCURVE",
"450 599 OFFCURVE",
"436 599 CURVE SMOOTH",
"421 599 LINE",
"352 590 LINE SMOOTH",
"331 587 OFFCURVE",
"320 577 OFFCURVE",
"320 562 CURVE SMOOTH",
"320 539 OFFCURVE",
"341 535 OFFCURVE",
"355 535 CURVE SMOOTH",
"365 535 LINE",
"263 318 LINE",
"248 401 OFFCURVE",
"231 481 OFFCURVE",
"208 560 CURVE",
"212 561 LINE SMOOTH",
"214 561 OFFCURVE",
"229 566 OFFCURVE",
"239 569 CURVE",
"247 573 OFFCURVE",
"253 584 OFFCURVE",
"253 594 CURVE SMOOTH",
"253 600 LINE",
"250 611 OFFCURVE",
"236 622 OFFCURVE",
"225 622 CURVE SMOOTH",
"215 622 LINE",
"134 604 LINE",
"117 599 LINE",
"109 594 OFFCURVE",
"101 582 OFFCURVE",
"101 572 CURVE SMOOTH",
"101 565 LINE",
"104 554 OFFCURVE",
"116 545 OFFCURVE",
"127 545 CURVE SMOOTH",
"134 545 LINE",
"55 95 LINE"
);
}
);
width = 510;
}
);
unicode = 004D;
},
{
glyphname = N;
lastChange = "2019-03-20 22:33:18 +0000";
layers = (
{
hints = (
{
place = "{33, 62}";
type = Stem;
},
{
place = "{260, 62}";
type = Stem;
},
{
horizontal = 1;
place = "{-192, 57}";
type = Stem;
},
{
horizontal = 1;
place = "{-181, 58}";
type = Stem;
},
{
horizontal = 1;
place = "{-172, 59}";
type = Stem;
},
{
horizontal = 1;
place = "{344, 62}";
type = Stem;
},
{
horizontal = 1;
place = "{354, 60}";
type = Stem;
}
);
layerId = UUID0;
paths = (
{
closed = 1;
nodes = (
"321 349 OFFCURVE",
"321 387 OFFCURVE",
"322 425 CURVE SMOOTH",
"322 463 OFFCURVE",
"323 501 OFFCURVE",
"323 547 CURVE",
"328 547 OFFCURVE",
"329 548 OFFCURVE",
"331 548 CURVE SMOOTH",
"348 548 OFFCURVE",
"361 563 OFFCURVE",
"361 579 CURVE SMOOTH",
"361 597 OFFCURVE",
"349 609 OFFCURVE",
"331 609 CURVE SMOOTH",
"326 609 LINE SMOOTH",
"300 607 OFFCURVE",
"271 604 OFFCURVE",
"245 601 CURVE SMOOTH",
"231 600 OFFCURVE",
"219 587 OFFCURVE",
"219 573 CURVE SMOOTH",
"219 555 OFFCURVE",
"236 543 OFFCURVE",
"249 543 CURVE SMOOTH",
"258 543 LINE",
"258 227 LINE",
"227 305 OFFCURVE",
"202 352 OFFCURVE",
"167 424 CURVE SMOOTH",
"146 467 OFFCURVE",
"125 510 OFFCURVE",
"106 554 CURVE",
"120 556 LINE SMOOTH",
"135 559 OFFCURVE",
"146 571 OFFCURVE",
"146 586 CURVE SMOOTH",
"146 601 OFFCURVE",
"133 615 OFFCURVE",
"117 615 CURVE SMOOTH",
"109 615 OFFCURVE",
"93 614 OFFCURVE",
"84 612 CURVE SMOOTH",
"19 601 LINE SMOOTH",
"3 598 OFFCURVE",
"-7 588 OFFCURVE",
"-7 573 CURVE SMOOTH",
"-7 568 LINE",
"-4 552 OFFCURVE",
"7 544 OFFCURVE",
"27 544 CURVE SMOOTH",
"37 544 LINE",
"37 455 LINE SMOOTH",
"37 429 OFFCURVE",
"36 402 OFFCURVE",
"35 375 CURVE SMOOTH",
"34 348 OFFCURVE",
"33 321 OFFCURVE",
"33 293 CURVE SMOOTH",
"33 73 LINE SMOOTH",
"33 71 OFFCURVE",
"33 70 OFFCURVE",
"32 69 CURVE",
"18 66 LINE SMOOTH",
"6 63 OFFCURVE",
"-5 50 OFFCURVE",
"-5 37 CURVE SMOOTH",
"-5 20 OFFCURVE",
"8 8 OFFCURVE",
"24 8 CURVE SMOOTH",
"28 8 LINE",
"62 10 LINE SMOOTH",
"75 11 OFFCURVE",
"91 12 OFFCURVE",
"104 14 CURVE SMOOTH",
"117 15 OFFCURVE",
"130 28 OFFCURVE",
"130 44 CURVE SMOOTH",
"130 63 OFFCURVE",
"116 75 OFFCURVE",
"102 76 CURVE SMOOTH",
"100 76 OFFCURVE",
"98 77 OFFCURVE",
"96 77 CURVE",
"96 246 LINE SMOOTH",
"96 308 OFFCURVE",
"96 372 OFFCURVE",
"98 435 CURVE",
"125 379 OFFCURVE",
"151 322 OFFCURVE",
"177 266 CURVE SMOOTH",
"194 229 LINE",
"210 186 OFFCURVE",
"238 118 OFFCURVE",
"258 79 CURVE",
"253 78 LINE SMOOTH",
"239 77 OFFCURVE",
"228 64 OFFCURVE",
"228 49 CURVE SMOOTH",
"228 32 OFFCURVE",
"245 21 OFFCURVE",
"257 21 CURVE SMOOTH",
"261 21 LINE",
"340 27 LINE SMOOTH",
"345 27 OFFCURVE",
"354 28 OFFCURVE",
"356 29 CURVE SMOOTH",
"368 33 OFFCURVE",
"378 46 OFFCURVE",
"378 59 CURVE SMOOTH",
"378 77 OFFCURVE",
"360 89 OFFCURVE",
"348 89 CURVE SMOOTH",
"342 89 OFFCURVE",
"336 88 OFFCURVE",
"329 87 CURVE",
"321 162 OFFCURVE",
"321 236 OFFCURVE",
"321 311 CURVE SMOOTH",
"321 311 LINE"
);
}
);
width = 374;
}
);
unicode = 004E;
},
{
glyphname = O;
lastChange = "2019-03-20 22:33:18 +0000";
layers = (
{
hints = (
{
place = "{12, 64}";
type = Stem;
},
{
place = "{168, 62}";
type = Stem;
},
{
horizontal = 1;
place = "{-185, 21}";
target = up;
type = BottomGhost;
},
{
horizontal = 1;
place = "{436, -20}";
target = down;
type = TopGhost;
}
);
layerId = UUID0;
paths = (
{
closed = 1;
nodes = (
"230 187 OFFCURVE",
"230 255 OFFCURVE",
"230 310 CURVE SMOOTH",
"230 392 LINE",
"227 446 OFFCURVE",
"204 531 OFFCURVE",
"181 579 CURVE SMOOTH",
"170 603 OFFCURVE",
"146 628 OFFCURVE",
"120 628 CURVE SMOOTH",
"64 628 OFFCURVE",
"34 540 OFFCURVE",
"26 499 CURVE SMOOTH",
"18 456 OFFCURVE",
"11 385 OFFCURVE",
"10 341 CURVE SMOOTH",
"10 327 LINE SMOOTH",
"10 292 OFFCURVE",
"14 232 OFFCURVE",
"18 197 CURVE SMOOTH",
"22 167 OFFCURVE",
"34 114 OFFCURVE",
"46 82 CURVE SMOOTH",
"59 46 OFFCURVE",
"87 6 OFFCURVE",
"127 6 CURVE SMOOTH",
"163 6 OFFCURVE",
"189 36 OFFCURVE",
"202 62 CURVE",
"216 85 OFFCURVE",
"227 128 OFFCURVE",
"227 157 CURVE",
"227 157 LINE"
);
},
{
closed = 1;
nodes = (
"161 402 OFFCURVE",
"162 384 OFFCURVE",
"163 369 CURVE SMOOTH",
"165 323 OFFCURVE",
"166 276 OFFCURVE",
"166 229 CURVE SMOOTH",
"166 201 OFFCURVE",
"165 68 OFFCURVE",
"125 68 CURVE SMOOTH",
"101 68 OFFCURVE",
"82 183 OFFCURVE",
"80 199 CURVE SMOOTH",
"76 231 OFFCURVE",
"73 284 OFFCURVE",
"73 315 CURVE SMOOTH",
"73 343 LINE",
"76 387 OFFCURVE",
"81 436 OFFCURVE",
"87 481 CURVE SMOOTH",
"90 500 OFFCURVE",
"99 529 OFFCURVE",
"109 545 CURVE",
"111 550 OFFCURVE",
"115 555 OFFCURVE",
"120 558 CURVE",
"137 546 OFFCURVE",
"159 495 OFFCURVE",
"161 417 CURVE SMOOTH",
"161 417 LINE"
);
}
);
width = 245;
}
);
unicode = 004F;
},
{
glyphname = P;
lastChange = "2019-03-20 22:33:18 +0000";
layers = (
{
hints = (
{
place = "{64, 53}";
type = Stem;
},
{
place = "{296, 56}";
type = Stem;
},
{
horizontal = 1;
place = "{-185, 49}";
type = Stem;
},
{
horizontal = 1;
place = "{345, 50}";
type = Stem;
},
{
horizontal = 1;
place = "{378, 56}";
type = Stem;
}
);
layerId = UUID0;
paths = (
{
closed = 1;
nodes = (
"80 59 OFFCURVE",
"61 49 OFFCURVE",
"61 31 CURVE SMOOTH",
"61 17 OFFCURVE",
"75 4 OFFCURVE",
"87 4 CURVE SMOOTH",
"92 4 LINE SMOOTH",
"99 5 OFFCURVE",
"106 6 OFFCURVE",
"109 6 CURVE SMOOTH",
"173 9 LINE",
"192 12 OFFCURVE",
"207 19 OFFCURVE",
"207 39 CURVE SMOOTH",
"207 52 OFFCURVE",
"195 65 OFFCURVE",
"181 65 CURVE SMOOTH",
"180 65 OFFCURVE",
"163 65 OFFCURVE",
"151 64 CURVE",
"142 99 OFFCURVE",
"132 231 OFFCURVE",
"132 297 CURVE SMOOTH",
"132 314 LINE",
"234 345 OFFCURVE",
"278 367 OFFCURVE",
"303 385 CURVE SMOOTH",
"344 413 OFFCURVE",
"355 459 OFFCURVE",
"355 499 CURVE SMOOTH",
"355 580 OFFCURVE",
"265 622 OFFCURVE",
"201 622 CURVE SMOOTH",
"158 622 OFFCURVE",
"121 614 OFFCURVE",
"95 608 CURVE SMOOTH",
"88 606 LINE SMOOTH",
"71 600 OFFCURVE",
"45 590 OFFCURVE",
"32 583 CURVE",
"24 580 OFFCURVE",
"17 569 OFFCURVE",
"17 560 CURVE SMOOTH",
"17 545 OFFCURVE",
"32 535 OFFCURVE",
"44 535 CURVE SMOOTH",
"47 535 OFFCURVE",
"52 536 OFFCURVE",
"55 538 CURVE",
"69 542 LINE",
"69 533 LINE SMOOTH",
"70 501 OFFCURVE",
"71 468 OFFCURVE",
"73 436 CURVE SMOOTH",
"76 378 OFFCURVE",
"76 319 OFFCURVE",
"80 260 CURVE SMOOTH",
"83 210 OFFCURVE",
"87 157 OFFCURVE",
"93 108 CURVE SMOOTH",
"98 61 LINE"
);
},
{
closed = 1;
nodes = (
"155 566 OFFCURVE",
"172 568 OFFCURVE",
"202 568 CURVE SMOOTH",
"241 568 OFFCURVE",
"298 545 OFFCURVE",
"298 500 CURVE SMOOTH",
"298 465 OFFCURVE",
"288 443 OFFCURVE",
"274 434 CURVE",
"254 418 OFFCURVE",
"216 400 OFFCURVE",
"129 373 CURVE",
"126 412 OFFCURVE",
"126 438 OFFCURVE",
"125 477 CURVE SMOOTH",
"122 560 LINE",
"138 563 LINE"
);
}
);
width = 369;
}
);
unicode = 0050;
},
{
glyphname = Q;
lastChange = "2019-03-20 22:33:18 +0000";
layers = (
{
hints = (
{
place = "{12, 57}";
type = Stem;
},
{
place = "{216, 56}";
type = Stem;
},
{
place = "{240, 90}";
type = Stem;
},
{
horizontal = 1;
place = "{-186, 21}";
target = up;
type = BottomGhost;
},
{
horizontal = 1;
place = "{378, 56}";
type = Stem;
}
);
layerId = UUID0;
paths = (
{
closed = 1;
nodes = (
"260 165 OFFCURVE",
"272 232 OFFCURVE",
"272 275 CURVE SMOOTH",
"273 407 OFFCURVE",
"274 439 OFFCURVE",
"274 450 CURVE SMOOTH",
"274 456 LINE SMOOTH",
"274 466 OFFCURVE",
"273 479 OFFCURVE",
"272 488 CURVE SMOOTH",
"262 548 OFFCURVE",
"225 626 OFFCURVE",
"157 626 CURVE SMOOTH",
"150 626 OFFCURVE",
"137 623 OFFCURVE",
"131 621 CURVE SMOOTH",
"46 590 OFFCURVE",
"18 422 OFFCURVE",
"14 353 CURVE SMOOTH",
"13 330 OFFCURVE",
"12 293 OFFCURVE",
"12 271 CURVE SMOOTH",
"12 233 OFFCURVE",
"16 171 OFFCURVE",
"20 134 CURVE SMOOTH",
"23 112 OFFCURVE",
"33 77 OFFCURVE",
"44 58 CURVE SMOOTH",
"60 32 OFFCURVE",
"96 12 OFFCURVE",
"125 12 CURVE SMOOTH",
"134 12 OFFCURVE",
"145 14 OFFCURVE",
"152 15 CURVE",
"182 24 OFFCURVE",
"211 40 OFFCURVE",
"228 70 CURVE",
"249 51 LINE",
"244 44 LINE SMOOTH",
"242 41 OFFCURVE",
"241 35 OFFCURVE",
"241 32 CURVE SMOOTH",
"241 24 OFFCURVE",
"247 14 OFFCURVE",
"255 9 CURVE SMOOTH",
"257 7 OFFCURVE",
"263 6 OFFCURVE",
"267 6 CURVE SMOOTH",
"275 6 OFFCURVE",
"284 11 OFFCURVE",
"288 16 CURVE SMOOTH",
"324 61 LINE SMOOTH",
"329 66 OFFCURVE",
"332 75 OFFCURVE",
"332 80 CURVE SMOOTH",
"332 88 OFFCURVE",
"327 97 OFFCURVE",
"321 102 CURVE SMOOTH",
"317 105 OFFCURVE",
"310 108 OFFCURVE",
"304 108 CURVE SMOOTH",
"296 108 OFFCURVE",
"287 103 OFFCURVE",
"282 97 CURVE",
"249 125 LINE"
);
},
{
closed = 1;
nodes = (
"190 200 LINE SMOOTH",
"191 203 OFFCURVE",
"193 208 OFFCURVE",
"193 211 CURVE SMOOTH",
"193 227 OFFCURVE",
"181 238 OFFCURVE",
"165 238 CURVE SMOOTH",
"163 238 OFFCURVE",
"157 236 OFFCURVE",
"153 234 CURVE SMOOTH",
"141 225 LINE",
"110 193 LINE SMOOTH",
"107 189 OFFCURVE",
"104 182 OFFCURVE",
"103 177 CURVE",
"103 171 LINE SMOOTH",
"103 164 OFFCURVE",
"108 154 OFFCURVE",
"116 149 CURVE SMOOTH",
"119 147 OFFCURVE",
"125 146 OFFCURVE",
"129 146 CURVE SMOOTH",
"134 146 OFFCURVE",
"141 148 OFFCURVE",
"146 153 CURVE",
"151 156 LINE",
"157 147 OFFCURVE",
"161 140 OFFCURVE",
"165 135 CURVE SMOOTH",
"186 110 LINE",
"179 83 OFFCURVE",
"146 69 OFFCURVE",
"129 68 CURVE SMOOTH",
"114 68 OFFCURVE",
"99 77 OFFCURVE",
"93 88 CURVE SMOOTH",
"86 101 OFFCURVE",
"80 121 OFFCURVE",
"78 134 CURVE SMOOTH",
"73 169 OFFCURVE",
"70 229 OFFCURVE",
"70 279 CURVE SMOOTH",
"70 312 OFFCURVE",
"73 369 OFFCURVE",
"77 403 CURVE SMOOTH",
"82 439 OFFCURVE",
"98 495 OFFCURVE",
"113 528 CURVE SMOOTH",
"122 546 OFFCURVE",
"135 569 OFFCURVE",
"157 569 CURVE SMOOTH",
"192 569 OFFCURVE",
"207 518 OFFCURVE",
"214 493 CURVE",
"212 485 OFFCURVE",
"211 477 OFFCURVE",
"211 473 CURVE SMOOTH",
"211 469 OFFCURVE",
"212 465 OFFCURVE",
"213 461 CURVE",
"215 438 OFFCURVE",
"217 414 OFFCURVE",
"217 390 CURVE SMOOTH",
"217 349 OFFCURVE",
"217 306 OFFCURVE",
"214 264 CURVE SMOOTH",
"213 244 OFFCURVE",
"209 218 OFFCURVE",
"205 196 CURVE",
"203 190 OFFCURVE",
"202 184 OFFCURVE",
"201 178 CURVE",
"188 195 LINE"
);
}
);
width = 348;
}
);
unicode = 0051;
},
{
glyphname = R;
lastChange = "2019-03-20 22:33:18 +0000";
layers = (
{
hints = (
{
place = "{72, 58}";
type = Stem;
},
{
place = "{256, 58}";
type = Stem;
},
{
horizontal = 1;
place = "{-184, 54}";
type = Stem;
},
{
horizontal = 1;
place = "{-181, 58}";
type = Stem;
},
{
horizontal = 1;
place = "{-176, 62}";
type = Stem;
},
{
horizontal = 1;
place = "{378, 59}";
type = Stem;
}
);
layerId = UUID0;
paths = (
{
closed = 1;
nodes = (
"220 22 OFFCURVE",
"238 16 OFFCURVE",
"251 16 CURVE SMOOTH",
"277 16 LINE SMOOTH",
"282 16 OFFCURVE",
"286 17 OFFCURVE",
"290 17 CURVE SMOOTH",
"299 17 OFFCURVE",
"311 18 OFFCURVE",
"319 19 CURVE SMOOTH",
"332 21 OFFCURVE",
"345 34 OFFCURVE",
"345 48 CURVE SMOOTH",
"345 65 OFFCURVE",
"328 77 OFFCURVE",
"316 77 CURVE SMOOTH",
"301 78 LINE",
"299 80 OFFCURVE",
"296 84 OFFCURVE",
"148 313 CURVE",
"220 355 OFFCURVE",
"264 397 OFFCURVE",
"288 428 CURVE",
"299 446 OFFCURVE",
"311 477 OFFCURVE",
"311 497 CURVE SMOOTH",
"311 504 OFFCURVE",
"310 514 OFFCURVE",
"309 520 CURVE SMOOTH",
"295 588 OFFCURVE",
"236 629 OFFCURVE",
"177 629 CURVE SMOOTH",
"127 629 OFFCURVE",
"83 614 OFFCURVE",
"64 605 CURVE",
"50 600 OFFCURVE",
"29 583 OFFCURVE",
"18 570 CURVE SMOOTH",
"14 566 OFFCURVE",
"12 557 OFFCURVE",
"12 552 CURVE SMOOTH",
"12 544 OFFCURVE",
"16 535 OFFCURVE",
"22 530 CURVE SMOOTH",
"27 525 OFFCURVE",
"32 523 OFFCURVE",
"39 523 CURVE SMOOTH",
"46 523 OFFCURVE",
"53 527 OFFCURVE",
"61 535 CURVE",
"66 538 LINE",
"66 415 LINE SMOOTH",
"66 343 OFFCURVE",
"67 258 OFFCURVE",
"70 185 CURVE SMOOTH",
"75 63 LINE",
"61 62 LINE SMOOTH",
"47 60 OFFCURVE",
"37 48 OFFCURVE",
"37 35 CURVE SMOOTH",
"37 17 OFFCURVE",
"52 7 OFFCURVE",
"64 7 CURVE SMOOTH",
"90 7 OFFCURVE",
"118 8 OFFCURVE",
"144 10 CURVE SMOOTH",
"159 12 OFFCURVE",
"170 24 OFFCURVE",
"170 39 CURVE SMOOTH",
"170 47 OFFCURVE",
"162 67 OFFCURVE",
"144 68 CURVE",
"125 68 LINE",
"125 159 LINE SMOOTH",
"125 179 OFFCURVE",
"124 206 OFFCURVE",
"123 227 CURVE SMOOTH",
"123 232 OFFCURVE",
"123 239 OFFCURVE",
"122 245 CURVE",
"240 69 LINE",
"227 64 OFFCURVE",
"220 55 OFFCURVE",
"220 43 CURVE SMOOTH",
"220 43 LINE"
);
},
{
closed = 1;
nodes = (
"135 565 OFFCURVE",
"152 566 OFFCURVE",
"169 567 CURVE",
"215 565 OFFCURVE",
"245 541 OFFCURVE",
"251 496 CURVE SMOOTH",
"251 492 LINE SMOOTH",
"251 483 OFFCURVE",
"247 471 OFFCURVE",
"241 463 CURVE SMOOTH",
"229 445 OFFCURVE",
"202 416 OFFCURVE",
"184 402 CURVE",
"155 383 OFFCURVE",
"137 369 OFFCURVE",
"120 357 CURVE",
"119 409 OFFCURVE",
"117 458 OFFCURVE",
"117 507 CURVE SMOOTH",
"118 560 LINE"
);
}
);
width = 365;
}
);
unicode = 0052;
},
{
glyphname = S;
lastChange = "2019-03-20 22:33:18 +0000";
layers = (
{
hints = (
{
place = "{151, 58}";
type = Stem;
},
{
place = "{267, 56}";
type = Stem;
},
{
horizontal = 1;
place = "{-185, 21}";
target = up;
type = BottomGhost;
},
{
horizontal = 1;
place = "{51, 55}";
type = Stem;
},
{
horizontal = 1;
place = "{250, 57}";
type = Stem;
},
{
horizontal = 1;
place = "{436, -20}";
target = down;
type = TopGhost;
}
);
layerId = UUID0;
paths = (
{
closed = 1;
nodes = (
"325 595 OFFCURVE",
"293 630 OFFCURVE",
"256 630 CURVE SMOOTH",
"242 630 OFFCURVE",
"219 620 OFFCURVE",
"208 609 CURVE SMOOTH",
"194 596 OFFCURVE",
"175 569 OFFCURVE",
"167 551 CURVE SMOOTH",
"159 531 OFFCURVE",
"151 496 OFFCURVE",
"151 474 CURVE SMOOTH",
"151 456 OFFCURVE",
"156 427 OFFCURVE",
"163 409 CURVE SMOOTH",
"193 323 OFFCURVE",
"225 243 OFFCURVE",
"257 164 CURVE",
"262 149 OFFCURVE",
"267 122 OFFCURVE",
"267 101 CURVE SMOOTH",
"267 75 OFFCURVE",
"249 64 OFFCURVE",
"232 64 CURVE SMOOTH",
"225 64 OFFCURVE",
"219 65 OFFCURVE",
"215 67 CURVE SMOOTH",
"201 73 OFFCURVE",
"181 88 OFFCURVE",
"171 101 CURVE SMOOTH",
"145 134 OFFCURVE",
"128 180 OFFCURVE",
"114 223 CURVE SMOOTH",
"108 242 LINE",
"120 246 OFFCURVE",
"130 258 OFFCURVE",
"130 270 CURVE SMOOTH",
"130 288 OFFCURVE",
"115 298 OFFCURVE",
"103 298 CURVE SMOOTH",
"79 298 OFFCURVE",
"53 284 OFFCURVE",
"32 277 CURVE SMOOTH",
"22 274 OFFCURVE",
"13 261 OFFCURVE",
"13 249 CURVE",
"16 231 OFFCURVE",
"28 225 OFFCURVE",
"39 225 CURVE SMOOTH",
"47 225 OFFCURVE",
"50 226 OFFCURVE",
"52 226 CURVE",
"58 200 OFFCURVE",
"72 156 OFFCURVE",
"85 129 CURVE SMOOTH",
"104 87 OFFCURVE",
"130 46 OFFCURVE",
"172 23 CURVE SMOOTH",
"185 15 OFFCURVE",
"210 9 OFFCURVE",
"226 9 CURVE SMOOTH",
"277 9 OFFCURVE",
"319 46 OFFCURVE",
"320 98 CURVE SMOOTH",
"320 130 OFFCURVE",
"315 166 OFFCURVE",
"305 187 CURVE",
"214 419 LINE SMOOTH",
"208 434 OFFCURVE",
"205 457 OFFCURVE",
"205 473 CURVE SMOOTH",
"205 495 OFFCURVE",
"223 572 OFFCURVE",
"251 572 CURVE SMOOTH",
"279 572 OFFCURVE",
"295 518 OFFCURVE",
"303 497 CURVE",
"297 494 LINE SMOOTH",
"288 491 OFFCURVE",
"280 480 OFFCURVE",
"280 470 CURVE SMOOTH",
"280 456 OFFCURVE",
"293 444 OFFCURVE",
"306 444 CURVE SMOOTH",
"309 444 OFFCURVE",
"314 445 OFFCURVE",
"317 446 CURVE SMOOTH",
"376 463 LINE SMOOTH",
"387 466 OFFCURVE",
"398 477 OFFCURVE",
"398 490 CURVE SMOOTH",
"398 509 OFFCURVE",
"382 518 OFFCURVE",
"366 518 CURVE SMOOTH",
"364 518 OFFCURVE",
"359 518 OFFCURVE",
"356 517 CURVE",
"352 527 LINE SMOOTH",
"346 542 OFFCURVE",
"341 558 OFFCURVE",
"338 563 CURVE",
"338 563 LINE"
);
}
);
width = 421;
}
);
unicode = 0053;
},
{
glyphname = T;
lastChange = "2019-03-20 22:33:18 +0000";
layers = (
{
hints = (
{
place = "{19, 64}";
type = Stem;
},
{
place = "{222, 67}";
type = Stem;
},
{
place = "{457, 63}";
type = Stem;
},
{
horizontal = 1;
place = "{-184, 63}";
type = Stem;
},
{
horizontal = 1;
place = "{321, 63}";
type = Stem;
},
{
horizontal = 1;
place = "{340, 66}";
type = Stem;
},
{
horizontal = 1;
place = "{436, -20}";
target = down;
type = TopGhost;
}
);
layerId = UUID0;
paths = (
{
closed = 1;
nodes = (
"223 445 LINE",
"227 392 OFFCURVE",
"228 339 OFFCURVE",
"231 287 CURVE SMOOTH",
"245 66 LINE",
"235 65 LINE SMOOTH",
"218 63 OFFCURVE",
"205 49 OFFCURVE",
"205 32 CURVE",
"207 16 OFFCURVE",
"220 4 OFFCURVE",
"236 4 CURVE SMOOTH",
"306 4 LINE",
"322 7 OFFCURVE",
"332 16 OFFCURVE",
"336 30 CURVE",
"336 37 LINE SMOOTH",
"336 50 OFFCURVE",
"326 64 OFFCURVE",
"313 68 CURVE SMOOTH",
"302 71 LINE",
"288 326 LINE SMOOTH",
"286 358 OFFCURVE",
"285 389 OFFCURVE",
"284 422 CURVE SMOOTH",
"282 474 LINE",
"278 507 LINE SMOOTH",
"278 510 OFFCURVE",
"278 514 OFFCURVE",
"277 518 CURVE",
"319 525 OFFCURVE",
"380 529 OFFCURVE",
"420 529 CURVE SMOOTH",
"449 529 LINE",
"450 519 OFFCURVE",
"451 511 OFFCURVE",
"453 504 CURVE",
"455 490 OFFCURVE",
"469 477 OFFCURVE",
"485 477 CURVE SMOOTH",
"503 477 OFFCURVE",
"516 491 OFFCURVE",
"516 509 CURVE SMOOTH",
"516 523 OFFCURVE",
"516 538 OFFCURVE",
"515 548 CURVE SMOOTH",
"513 597 LINE SMOOTH",
"512 614 OFFCURVE",
"499 627 OFFCURVE",
"484 627 CURVE SMOOTH",
"465 627 OFFCURVE",
"452 614 OFFCURVE",
"450 599 CURVE",
"424 597 LINE",
"386 597 OFFCURVE",
"322 592 OFFCURVE",
"283 586 CURVE SMOOTH",
"263 583 OFFCURVE",
"240 580 OFFCURVE",
"220 579 CURVE SMOOTH",
"171 577 OFFCURVE",
"121 576 OFFCURVE",
"72 575 CURVE SMOOTH",
"65 575 LINE",
"64 582 LINE",
"59 593 OFFCURVE",
"48 602 OFFCURVE",
"36 602 CURVE SMOOTH",
"24 602 OFFCURVE",
"12 596 OFFCURVE",
"8 584 CURVE SMOOTH",
"5 578 OFFCURVE",
"4 569 OFFCURVE",
"4 563 CURVE SMOOTH",
"4 548 OFFCURVE",
"4 527 OFFCURVE",
"5 512 CURVE SMOOTH",
"5 503 OFFCURVE",
"7 484 OFFCURVE",
"9 476 CURVE SMOOTH",
"12 460 OFFCURVE",
"25 447 OFFCURVE",
"42 447 CURVE SMOOTH",
"49 447 LINE",
"63 452 OFFCURVE",
"72 461 OFFCURVE",
"72 479 CURVE",
"70 510 LINE",
"223 509 LINE"
);
}
);
width = 547;
}
);
unicode = 0054;
},
{
glyphname = U;
lastChange = "2019-03-20 22:33:18 +0000";
layers = (
{
hints = (
{
place = "{38, 63}";
type = Stem;
},
{
place = "{40, 67}";
type = Stem;
},
{
place = "{219, 140}";
type = Stem;
},
{
horizontal = 1;
place = "{-185, 64}";
type = Stem;
},
{
horizontal = 1;
place = "{360, 64}";
type = Stem;
}
);
layerId = UUID0;
paths = (
{
closed = 1;
nodes = (
"41 464 OFFCURVE",
"38 404 OFFCURVE",
"38 343 CURVE SMOOTH",
"38 304 OFFCURVE",
"40 235 OFFCURVE",
"43 195 CURVE SMOOTH",
"45 162 OFFCURVE",
"55 107 OFFCURVE",
"67 74 CURVE",
"78 37 OFFCURVE",
"119 7 OFFCURVE",
"158 7 CURVE SMOOTH",
"175 7 OFFCURVE",
"202 16 OFFCURVE",
"216 26 CURVE SMOOTH",
"233 39 OFFCURVE",
"254 64 OFFCURVE",
"262 82 CURVE",
"278 111 OFFCURVE",
"295 166 OFFCURVE",
"299 201 CURVE SMOOTH",
"306 260 OFFCURVE",
"311 324 OFFCURVE",
"314 384 CURVE SMOOTH",
"316 415 OFFCURVE",
"316 447 OFFCURVE",
"316 478 CURVE SMOOTH",
"316 551 LINE",
"329 552 LINE SMOOTH",
"346 553 OFFCURVE",
"358 567 OFFCURVE",
"358 584 CURVE SMOOTH",
"358 607 OFFCURVE",
"337 614 OFFCURVE",
"324 614 CURVE SMOOTH",
"247 614 LINE SMOOTH",
"232 614 OFFCURVE",
"220 602 OFFCURVE",
"220 587 CURVE SMOOTH",
"220 572 OFFCURVE",
"231 560 OFFCURVE",
"244 558 CURVE SMOOTH",
"256 556 LINE",
"256 482 LINE SMOOTH",
"256 415 OFFCURVE",
"254 347 OFFCURVE",
"248 278 CURVE SMOOTH",
"246 248 OFFCURVE",
"242 217 OFFCURVE",
"236 186 CURVE",
"232 157 OFFCURVE",
"215 113 OFFCURVE",
"199 89 CURVE SMOOTH",
"192 77 OFFCURVE",
"174 68 OFFCURVE",
"160 68 CURVE SMOOTH",
"145 69 OFFCURVE",
"135 75 OFFCURVE",
"126 108 CURVE SMOOTH",
"114 152 OFFCURVE",
"106 225 OFFCURVE",
"106 268 CURVE SMOOTH",
"106 278 OFFCURVE",
"105 289 OFFCURVE",
"105 299 CURVE SMOOTH",
"105 330 LINE SMOOTH",
"105 380 OFFCURVE",
"107 429 OFFCURVE",
"109 555 CURVE",
"110 557 OFFCURVE",
"110 559 OFFCURVE",
"111 560 CURVE",
"136 565 LINE SMOOTH",
"147 568 OFFCURVE",
"158 581 OFFCURVE",
"158 593 CURVE SMOOTH",
"158 601 LINE",
"155 614 OFFCURVE",
"142 625 OFFCURVE",
"128 625 CURVE",
"64 619 LINE SMOOTH",
"55 618 OFFCURVE",
"42 616 OFFCURVE",
"37 614 CURVE SMOOTH",
"25 611 OFFCURVE",
"17 599 OFFCURVE",
"17 587 CURVE SMOOTH",
"17 569 OFFCURVE",
"33 558 OFFCURVE",
"45 558 CURVE",
"45 535 LINE"
);
}
);
width = 378;
}
);
unicode = 0055;
},
{
glyphname = V;
lastChange = "2019-03-20 22:33:18 +0000";
layers = (
{
hints = (
{
place = "{12, 293}";
type = Stem;
},
{
horizontal = 1;
place = "{-184, 50}";
type = Stem;
},
{
horizontal = 1;
place = "{-178, 54}";
type = Stem;
},
{
horizontal = 1;
place = "{367, 50}";
type = Stem;
},
{
horizontal = 1;
place = "{367, 59}";
type = Stem;
},
{
horizontal = 1;
place = "{375, 51}";
type = Stem;
},
{
horizontal = 1;
place = "{375, 60}";
type = Stem;
}
);
layerId = UUID0;
paths = (
{
closed = 1;
nodes = (
"109 562 LINE SMOOTH",
"123 564 OFFCURVE",
"133 575 OFFCURVE",
"133 589 CURVE SMOOTH",
"133 604 OFFCURVE",
"122 616 OFFCURVE",
"106 616 CURVE SMOOTH",
"97 616 LINE SMOOTH",
"92 616 OFFCURVE",
"82 616 OFFCURVE",
"77 615 CURVE SMOOTH",
"66 614 OFFCURVE",
"44 611 OFFCURVE",
"35 608 CURVE",
"23 606 OFFCURVE",
"14 596 OFFCURVE",
"14 584 CURVE SMOOTH",
"14 579 LINE",
"16 568 OFFCURVE",
"27 558 OFFCURVE",
"38 558 CURVE SMOOTH",
"41 558 OFFCURVE",
"43 558 OFFCURVE",
"46 559 CURVE",
"67 387 OFFCURVE",
"92 220 OFFCURVE",
"140 58 CURVE",
"133 56 LINE SMOOTH",
"123 54 OFFCURVE",
"114 42 OFFCURVE",
"114 28 CURVE",
"117 14 OFFCURVE",
"125 6 OFFCURVE",
"139 6 CURVE SMOOTH",
"143 6 OFFCURVE",
"146 7 OFFCURVE",
"147 7 CURVE SMOOTH",
"159 9 OFFCURVE",
"170 10 OFFCURVE",
"181 11 CURVE SMOOTH",
"216 13 LINE",
"229 15 OFFCURVE",
"241 26 OFFCURVE",
"241 41 CURVE",
"239 54 OFFCURVE",
"227 66 OFFCURVE",
"214 66 CURVE SMOOTH",
"207 66 LINE",
"270 569 LINE",
"282 570 LINE",
"297 570 OFFCURVE",
"309 582 OFFCURVE",
"309 598 CURVE SMOOTH",
"309 613 OFFCURVE",
"297 625 OFFCURVE",
"282 625 CURVE SMOOTH",
"260 625 OFFCURVE",
"243 623 OFFCURVE",
"225 620 CURVE SMOOTH",
"207 617 LINE SMOOTH",
"194 615 OFFCURVE",
"184 603 OFFCURVE",
"184 589 CURVE",
"186 575 OFFCURVE",
"197 565 OFFCURVE",
"211 565 CURVE SMOOTH",
"215 565 LINE",
"202 428 OFFCURVE",
"186 300 OFFCURVE",
"166 166 CURVE",
"143 249 OFFCURVE",
"102 507 OFFCURVE",
"100 561 CURVE",
"100 561 LINE"
);
}
);
width = 322;
}
);
unicode = 0056;
},
{
glyphname = W;
lastChange = "2019-03-20 22:33:18 +0000";
layers = (
{
hints = (
{
place = "{204, 66}";
type = Stem;
},
{
horizontal = 1;
place = "{-185, 52}";
type = Stem;
},
{
horizontal = 1;
place = "{-185, 68}";
type = Stem;
},
{
horizontal = 1;
place = "{-172, 59}";
type = Stem;
},
{
horizontal = 1;
place = "{-162, 57}";
type = Stem;
},
{
horizontal = 1;
place = "{361, 57}";
type = Stem;
},
{
horizontal = 1;
place = "{369, 52}";
type = Stem;
},
{
horizontal = 1;
place = "{369, 61}";
type = Stem;
},
{
horizontal = 1;
place = "{381, 53}";
type = Stem;
}
);
layerId = UUID0;
paths = (
{
closed = 1;
nodes = (
"296 243 LINE SMOOTH",
"284 302 OFFCURVE",
"276 357 OFFCURVE",
"268 415 CURVE",
"265 426 OFFCURVE",
"252 438 OFFCURVE",
"239 438 CURVE SMOOTH",
"222 438 OFFCURVE",
"210 427 OFFCURVE",
"207 415 CURVE SMOOTH",
"191 353 OFFCURVE",
"179 291 OFFCURVE",
"163 230 CURVE",
"145 346 OFFCURVE",
"130 454 OFFCURVE",
"105 566 CURVE",
"128 572 LINE SMOOTH",
"137 575 OFFCURVE",
"145 586 OFFCURVE",
"145 599 CURVE SMOOTH",
"145 614 OFFCURVE",
"134 626 OFFCURVE",
"118 626 CURVE SMOOTH",
"112 626 LINE",
"75 619 OFFCURVE",
"8 615 OFFCURVE",
"8 582 CURVE SMOOTH",
"8 576 LINE",
"11 565 OFFCURVE",
"23 554 OFFCURVE",
"37 554 CURVE SMOOTH",
"46 554 LINE",
"75 416 OFFCURVE",
"107 203 OFFCURVE",
"121 63 CURVE",
"105 59 OFFCURVE",
"89 52 OFFCURVE",
"89 34 CURVE SMOOTH",
"89 18 OFFCURVE",
"103 8 OFFCURVE",
"113 6 CURVE",
"176 12 LINE SMOOTH",
"206 15 OFFCURVE",
"241 10 OFFCURVE",
"241 43 CURVE SMOOTH",
"241 57 OFFCURVE",
"230 72 OFFCURVE",
"215 73 CURVE SMOOTH",
"210 73 LINE SMOOTH",
"206 73 OFFCURVE",
"197 73 OFFCURVE",
"188 72 CURVE",
"195 105 LINE SMOOTH",
"205 158 OFFCURVE",
"215 209 OFFCURVE",
"228 261 CURVE",
"265 74 LINE",
"261 73 LINE SMOOTH",
"252 70 OFFCURVE",
"243 57 OFFCURVE",
"243 46 CURVE SMOOTH",
"243 40 LINE",
"246 28 OFFCURVE",
"258 17 OFFCURVE",
"272 17 CURVE",
"344 23 LINE",
"365 26 OFFCURVE",
"396 30 OFFCURVE",
"396 57 CURVE SMOOTH",
"396 76 OFFCURVE",
"380 87 OFFCURVE",
"367 87 CURVE",
"337 84 LINE",
"339 93 LINE SMOOTH",
"343 111 OFFCURVE",
"346 129 OFFCURVE",
"349 146 CURVE SMOOTH",
"404 498 LINE SMOOTH",
"407 516 OFFCURVE",
"414 556 OFFCURVE",
"421 565 CURVE",
"447 565 OFFCURVE",
"466 569 OFFCURVE",
"466 594 CURVE SMOOTH",
"466 595 OFFCURVE",
"463 620 OFFCURVE",
"435 620 CURVE SMOOTH",
"417 620 OFFCURVE",
"397 615 OFFCURVE",
"383 615 CURVE",
"354 610 LINE",
"342 607 OFFCURVE",
"332 596 OFFCURVE",
"332 584 CURVE SMOOTH",
"332 570 OFFCURVE",
"344 559 OFFCURVE",
"356 558 CURVE",
"304 201 LINE SMOOTH",
"304 204 OFFCURVE",
"303 207 OFFCURVE",
"303 210 CURVE",
"303 210 LINE"
);
}
);
width = 492;
}
);
unicode = 0057;
},
{
glyphname = X;
lastChange = "2019-03-20 22:33:18 +0000";
layers = (
{
hints = (
{
place = "{18, 102}";
type = Stem;
},
{
place = "{118, 56}";
type = Stem;
},
{
place = "{156, 100}";
type = Stem;
},
{
horizontal = 1;
place = "{-185, 47}";
type = Stem;
},
{
horizontal = 1;
place = "{-180, 49}";
type = Stem;
},
{
horizontal = 1;
place = "{373, 55}";
type = Stem;
}
);
layerId = UUID0;
paths = (
{
closed = 1;
nodes = (
"172 55 OFFCURVE",
"155 47 OFFCURVE",
"155 32 CURVE SMOOTH",
"155 15 OFFCURVE",
"169 8 OFFCURVE",
"179 8 CURVE SMOOTH",
"198 8 LINE SMOOTH",
"219 8 OFFCURVE",
"249 10 OFFCURVE",
"253 29 CURVE",
"253 35 LINE SMOOTH",
"253 45 OFFCURVE",
"236 61 OFFCURVE",
"237 59 CURVE SMOOTH",
"230 78 LINE",
"173 283 LINE",
"171 287 OFFCURVE",
"171 289 OFFCURVE",
"171 290 CURVE SMOOTH",
"171 292 OFFCURVE",
"171 295 OFFCURVE",
"172 297 CURVE SMOOTH",
"258 571 LINE",
"270 572 LINE SMOOTH",
"282 574 OFFCURVE",
"292 585 OFFCURVE",
"292 598 CURVE SMOOTH",
"292 610 OFFCURVE",
"279 622 OFFCURVE",
"268 624 CURVE",
"260 624 LINE SMOOTH",
"222 621 OFFCURVE",
"176 618 OFFCURVE",
"176 590 CURVE SMOOTH",
"176 574 OFFCURVE",
"189 565 OFFCURVE",
"199 565 CURVE",
"180 504 OFFCURVE",
"160 448 OFFCURVE",
"142 386 CURVE",
"126 440 OFFCURVE",
"118 504 OFFCURVE",
"95 566 CURVE",
"105 569 OFFCURVE",
"113 580 OFFCURVE",
"113 590 CURVE SMOOTH",
"113 602 OFFCURVE",
"103 613 OFFCURVE",
"91 615 CURVE",
"29 609 LINE SMOOTH",
"16 608 OFFCURVE",
"5 597 OFFCURVE",
"5 585 CURVE SMOOTH",
"5 572 OFFCURVE",
"17 561 OFFCURVE",
"29 561 CURVE SMOOTH",
"41 561 LINE",
"52 521 LINE SMOOTH",
"69 460 OFFCURVE",
"86 385 OFFCURVE",
"101 319 CURVE SMOOTH",
"108 287 LINE",
"108 271 OFFCURVE",
"93 239 OFFCURVE",
"87 221 CURVE SMOOTH",
"34 56 LINE",
"29 54 LINE",
"17 52 OFFCURVE",
"7 42 OFFCURVE",
"7 30 CURVE SMOOTH",
"7 11 OFFCURVE",
"25 6 OFFCURVE",
"35 6 CURVE SMOOTH",
"81 6 LINE SMOOTH",
"93 6 OFFCURVE",
"105 15 OFFCURVE",
"108 25 CURVE",
"108 32 LINE SMOOTH",
"108 41 OFFCURVE",
"102 49 OFFCURVE",
"94 53 CURVE",
"91 56 LINE",
"103 105 OFFCURVE",
"120 156 OFFCURVE",
"135 203 CURVE",
"184 58 LINE"
);
}
);
width = 312;
}
);
unicode = 0058;
},
{
glyphname = Y;
lastChange = "2019-03-20 22:33:18 +0000";
layers = (
{
hints = (
{
place = "{136, 54}";
type = Stem;
},
{
place = "{144, 51}";
type = Stem;
},
{
horizontal = 1;
place = "{-183, 52}";
type = Stem;
},
{
horizontal = 1;
place = "{372, 52}";
type = Stem;
},
{
horizontal = 1;
place = "{381, 48}";
type = Stem;
}
);
layerId = UUID0;
paths = (
{
closed = 1;
nodes = (
"191 270 LINE",
"206 324 OFFCURVE",
"214 359 OFFCURVE",
"221 384 CURVE SMOOTH",
"276 569 LINE",
"288 580 OFFCURVE",
"314 580 OFFCURVE",
"314 600 CURVE SMOOTH",
"314 615 OFFCURVE",
"303 625 OFFCURVE",
"293 627 CURVE",
"244 624 LINE SMOOTH",
"220 622 OFFCURVE",
"196 620 OFFCURVE",
"196 597 CURVE SMOOTH",
"196 580 OFFCURVE",
"213 572 OFFCURVE",
"224 571 CURVE",
"170 389 LINE",
"146 462 OFFCURVE",
"131 500 OFFCURVE",
"102 569 CURVE",
"111 571 LINE SMOOTH",
"123 573 OFFCURVE",
"132 584 OFFCURVE",
"132 596 CURVE SMOOTH",
"132 609 OFFCURVE",
"120 619 OFFCURVE",
"108 619 CURVE SMOOTH",
"95 619 LINE SMOOTH",
"59 619 OFFCURVE",
"16 617 OFFCURVE",
"16 589 CURVE SMOOTH",
"16 575 OFFCURVE",
"32 563 OFFCURVE",
"43 563 CURVE SMOOTH",
"47 563 LINE",
"70 505 LINE SMOOTH",
"77 488 OFFCURVE",
"83 470 OFFCURVE",
"89 453 CURVE SMOOTH",
"138 321 LINE SMOOTH",
"139 319 OFFCURVE",
"140 312 OFFCURVE",
"140 309 CURVE SMOOTH",
"140 57 LINE",
"122 53 LINE SMOOTH",
"112 50 OFFCURVE",
"104 41 OFFCURVE",
"104 31 CURVE SMOOTH",
"104 11 OFFCURVE",
"119 7 OFFCURVE",
"149 7 CURVE SMOOTH",
"182 7 LINE SMOOTH",
"211 7 OFFCURVE",
"232 11 OFFCURVE",
"232 36 CURVE",
"230 51 OFFCURVE",
"221 60 OFFCURVE",
"203 60 CURVE",
"191 61 LINE"
);
}
);
width = 329;
}
);
unicode = 0059;
},
{
glyphname = Z;
lastChange = "2019-03-20 22:33:18 +0000";
layers = (
{
hints = (
{
place = "{54, 52}";
type = Stem;
},
{
place = "{326, 51}";
type = Stem;
},
{
horizontal = 1;
place = "{-186, 101}";
type = Stem;
},
{
horizontal = 1;
place = "{-155, 52}";
type = Stem;
},
{
horizontal = 1;
place = "{364, 51}";
type = Stem;
},
{
horizontal = 1;
place = "{371, 53}";
type = Stem;
},
{
horizontal = 1;
place = "{424, -20}";
target = down;
type = TopGhost;
}
);
layerId = UUID0;
paths = (
{
closed = 1;
nodes = (
"296 544 LINE SMOOTH",
"295 541 OFFCURVE",
"290 533 OFFCURVE",
"285 525 CURVE SMOOTH",
"85 178 LINE",
"69 161 OFFCURVE",
"40 113 OFFCURVE",
"25 83 CURVE SMOOTH",
"18 69 LINE SMOOTH",
"15 64 OFFCURVE",
"11 52 OFFCURVE",
"11 46 CURVE SMOOTH",
"11 29 OFFCURVE",
"21 14 OFFCURVE",
"38 14 CURVE SMOOTH",
"47 14 OFFCURVE",
"62 15 OFFCURVE",
"75 17 CURVE SMOOTH",
"174 30 LINE",
"287 37 LINE SMOOTH",
"296 37 OFFCURVE",
"311 35 OFFCURVE",
"323 32 CURVE",
"328 11 OFFCURVE",
"337 6 OFFCURVE",
"350 6 CURVE SMOOTH",
"364 6 OFFCURVE",
"375 16 OFFCURVE",
"375 31 CURVE",
"370 80 LINE SMOOTH",
"368 96 OFFCURVE",
"359 105 OFFCURVE",
"346 105 CURVE SMOOTH",
"330 105 OFFCURVE",
"324 94 OFFCURVE",
"322 83 CURVE",
"309 84 OFFCURVE",
"292 87 OFFCURVE",
"279 87 CURVE SMOOTH",
"213 84 LINE SMOOTH",
"177 82 OFFCURVE",
"111 70 OFFCURVE",
"78 70 CURVE",
"97 105 LINE SMOOTH",
"121 149 OFFCURVE",
"144 196 OFFCURVE",
"172 239 CURVE",
"235 348 LINE SMOOTH",
"257 385 OFFCURVE",
"283 423 OFFCURVE",
"304 462 CURVE SMOOTH",
"311 475 LINE SMOOTH",
"326 500 OFFCURVE",
"340 528 OFFCURVE",
"353 555 CURVE",
"359 574 LINE",
"359 580 LINE SMOOTH",
"359 600 OFFCURVE",
"335 612 OFFCURVE",
"318 612 CURVE SMOOTH",
"283 612 OFFCURVE",
"252 607 OFFCURVE",
"221 607 CURVE SMOOTH",
"208 607 LINE",
"161 604 LINE SMOOTH",
"117 601 OFFCURVE",
"108 601 OFFCURVE",
"98 601 CURVE",
"95 613 OFFCURVE",
"88 623 OFFCURVE",
"74 623 CURVE SMOOTH",
"55 623 OFFCURVE",
"49 609 OFFCURVE",
"49 587 CURVE SMOOTH",
"49 580 LINE SMOOTH",
"49 570 OFFCURVE",
"46 559 OFFCURVE",
"46 545 CURVE SMOOTH",
"46 528 OFFCURVE",
"56 517 OFFCURVE",
"71 517 CURVE SMOOTH",
"85 517 OFFCURVE",
"96 530 OFFCURVE",
"96 543 CURVE SMOOTH",
"96 549 LINE",
"156 549 LINE",
"199 554 OFFCURVE",
"273 557 OFFCURVE",
"277 557 CURVE SMOOTH",
"303 559 LINE"
);
}
);
width = 396;
}
);
unicode = 005A;
},
{
glyphname = a;
lastChange = "2019-03-20 22:33:18 +0000";
layers = (
{
hints = (
{
place = "{13, 309}";
type = Stem;
},
{
horizontal = 1;
place = "{-195, 57}";
type = Stem;
},
{
horizontal = 1;
place = "{-195, 67}";
type = Stem;
},
{
horizontal = 1;
place = "{-180, 62}";
type = Stem;
},
{
horizontal = 1;
place = "{353, 59}";
type = Stem;
},
{
horizontal = 1;
place = "{356, 65}";
type = Stem;
},
{
horizontal = 1;
place = "{421, -20}";
target = down;
type = TopGhost;
}
);
layerId = UUID0;
paths = (
{
closed = 1;
nodes = (
"95 258 LINE SMOOTH",
"80 202 OFFCURVE",
"62 143 OFFCURVE",
"52 83 CURVE",
"34 80 OFFCURVE",
"14 72 OFFCURVE",
"14 52 CURVE SMOOTH",
"14 29 OFFCURVE",
"33 23 OFFCURVE",
"50 23 CURVE SMOOTH",
"67 23 LINE SMOOTH",
"99 23 OFFCURVE",
"138 26 OFFCURVE",
"138 58 CURVE SMOOTH",
"138 74 OFFCURVE",
"126 83 OFFCURVE",
"114 87 CURVE",
"125 134 LINE SMOOTH",
"136 182 OFFCURVE",
"149 228 OFFCURVE",
"163 275 CURVE",
"185 275 LINE SMOOTH",
"192 275 OFFCURVE",
"199 275 OFFCURVE",
"208 276 CURVE",
"220 65 LINE",
"200 62 OFFCURVE",
"180 59 OFFCURVE",
"180 34 CURVE SMOOTH",
"180 12 OFFCURVE",
"197 3 OFFCURVE",
"214 3 CURVE SMOOTH",
"215 3 OFFCURVE",
"222 3 OFFCURVE",
"280 7 CURVE SMOOTH",
"297 8 OFFCURVE",
"319 20 OFFCURVE",
"319 40 CURVE SMOOTH",
"319 60 OFFCURVE",
"302 68 OFFCURVE",
"287 71 CURVE",
"253 557 LINE",
"267 562 OFFCURVE",
"280 570 OFFCURVE",
"280 588 CURVE SMOOTH",
"280 612 OFFCURVE",
"261 619 OFFCURVE",
"242 619 CURVE",
"214 617 OFFCURVE",
"212 616 OFFCURVE",
"209 616 CURVE SMOOTH",
"205 616 LINE SMOOTH",
"169 613 OFFCURVE",
"131 610 OFFCURVE",
"131 580 CURVE SMOOTH",
"131 565 OFFCURVE",
"148 552 OFFCURVE",
"161 552 CURVE SMOOTH",
"168 552 OFFCURVE",
"175 557 OFFCURVE",
"180 559 CURVE",
"155 495 OFFCURVE",
"141 430 OFFCURVE",
"123 369 CURVE",
"112 322 LINE"
);
},
{
closed = 1;
nodes = (
"181 337 LINE",
"183 353 OFFCURVE",
"193 387 OFFCURVE",
"200 414 CURVE",
"206 340 LINE"
);
}
);
width = 341;
}
);
unicode = 0061;
},
{
glyphname = b;
lastChange = "2019-03-20 22:33:18 +0000";
layers = (
{
hints = (
{
place = "{80, 60}";
type = Stem;
},
{
place = "{87, 59}";
type = Stem;
},
{
place = "{95, 61}";
type = Stem;
},
{
place = "{256, 60}";
type = Stem;
},
{
horizontal = 1;
place = "{-194, 60}";
type = Stem;
},
{
horizontal = 1;
place = "{361, 60}";
type = Stem;
}
);
layerId = UUID0;
paths = (
{
closed = 1;
nodes = (
"317 587 OFFCURVE",
"272 619 OFFCURVE",
"205 619 CURVE SMOOTH",
"138 619 OFFCURVE",
"35 577 OFFCURVE",
"35 537 CURVE",
"38 524 OFFCURVE",
"51 515 OFFCURVE",
"62 515 CURVE SMOOTH",
"65 515 OFFCURVE",
"72 516 OFFCURVE",
"77 519 CURVE SMOOTH",
"95 529 LINE",
"95 476 OFFCURVE",
"93 437 OFFCURVE",
"89 384 CURVE SMOOTH",
"89 381 OFFCURVE",
"88 379 OFFCURVE",
"88 376 CURVE SMOOTH",
"85 336 OFFCURVE",
"82 294 OFFCURVE",
"81 255 CURVE SMOOTH",
"81 242 OFFCURVE",
"80 222 OFFCURVE",
"80 210 CURVE SMOOTH",
"78 164 OFFCURVE",
"77 118 OFFCURVE",
"77 73 CURVE SMOOTH",
"77 66 LINE",
"71 66 OFFCURVE",
"69 67 OFFCURVE",
"63 68 CURVE SMOOTH",
"56 69 OFFCURVE",
"47 69 OFFCURVE",
"39 69 CURVE SMOOTH",
"23 69 OFFCURVE",
"10 56 OFFCURVE",
"10 40 CURVE SMOOTH",
"10 12 OFFCURVE",
"52 6 OFFCURVE",
"90 6 CURVE SMOOTH",
"99 6 OFFCURVE",
"106 7 OFFCURVE",
"131 7 CURVE",
"242 13 OFFCURVE",
"359 98 OFFCURVE",
"359 211 CURVE SMOOTH",
"359 304 OFFCURVE",
"324 357 OFFCURVE",
"253 378 CURVE",
"285 407 OFFCURVE",
"317 454 OFFCURVE",
"317 509 CURVE SMOOTH",
"317 509 LINE"
);
},
{
closed = 1;
nodes = (
"137 92 LINE SMOOTH",
"137 167 OFFCURVE",
"140 238 OFFCURVE",
"144 312 CURVE",
"162 321 OFFCURVE",
"184 329 OFFCURVE",
"202 329 CURVE SMOOTH",
"275 329 OFFCURVE",
"300 262 OFFCURVE",
"300 197 CURVE SMOOTH",
"300 140 OFFCURVE",
"206 70 OFFCURVE",
"137 70 CURVE",
"137 70 LINE"
);
},
{
closed = 1;
nodes = (
"162 557 LINE SMOOTH",
"181 562 OFFCURVE",
"193 564 OFFCURVE",
"224 564 CURVE SMOOTH",
"248 564 OFFCURVE",
"256 540 OFFCURVE",
"256 516 CURVE SMOOTH",
"256 462 OFFCURVE",
"198 403 OFFCURVE",
"147 385 CURVE",
"149 440 OFFCURVE",
"153 499 OFFCURVE",
"155 555 CURVE",
"155 555 LINE"
);
}
);
width = 384;
}
);
unicode = 0062;
},
{
glyphname = c;
lastChange = "2019-03-20 22:33:18 +0000";
layers = (
{
hints = (
{
place = "{13, 65}";
type = Stem;
},
{
place = "{150, 66}";
type = Stem;
},
{
place = "{190, 63}";
type = Stem;
},
{
horizontal = 1;
place = "{-29, 69}";
type = Stem;
},
{
horizontal = 1;
place = "{208, 67}";
type = Stem;
}
);
layerId = UUID0;
paths = (
{
closed = 1;
nodes = (
"238 161 OFFCURVE",
"255 170 OFFCURVE",
"255 193 CURVE SMOOTH",
"255 227 OFFCURVE",
"214 231 OFFCURVE",
"182 231 CURVE SMOOTH",
"141 231 OFFCURVE",
"117 227 OFFCURVE",
"117 192 CURVE",
"119 173 OFFCURVE",
"133 168 OFFCURVE",
"147 166 CURVE",
"141 150 OFFCURVE",
"141 62 OFFCURVE",
"113 62 CURVE SMOOTH",
"84 62 OFFCURVE",
"73 129 OFFCURVE",
"73 170 CURVE SMOOTH",
"73 189 OFFCURVE",
"74 194 OFFCURVE",
"74 199 CURVE SMOOTH",
"76 317 OFFCURVE",
"78 468 OFFCURVE",
"157 547 CURVE SMOOTH",
"158 548 OFFCURVE",
"160 549 OFFCURVE",
"161 549 CURVE SMOOTH",
"175 549 OFFCURVE",
"187 494 OFFCURVE",
"187 470 CURVE",
"164 467 OFFCURVE",
"151 451 OFFCURVE",
"151 431 CURVE",
"157 407 OFFCURVE",
"199 404 OFFCURVE",
"235 404 CURVE SMOOTH",
"262 404 LINE SMOOTH",
"278 404 OFFCURVE",
"293 419 OFFCURVE",
"293 436 CURVE SMOOTH",
"293 462 OFFCURVE",
"270 468 OFFCURVE",
"250 471 CURVE",
"250 482 LINE SMOOTH",
"250 542 OFFCURVE",
"219 619 OFFCURVE",
"165 619 CURVE SMOOTH",
"68 619 OFFCURVE",
"28 437 OFFCURVE",
"19 346 CURVE SMOOTH",
"15 299 OFFCURVE",
"11 221 OFFCURVE",
"11 176 CURVE SMOOTH",
"11 164 LINE SMOOTH",
"13 80 OFFCURVE",
"47 3 OFFCURVE",
"115 3 CURVE SMOOTH",
"158 3 OFFCURVE",
"200 46 OFFCURVE",
"208 120 CURVE SMOOTH",
"213 160 OFFCURVE",
"213 161 OFFCURVE",
"213 161 CURVE",
"220 161 LINE"
);
}
);
width = 303;
}
);
unicode = 0063;
},
{
glyphname = d;
lastChange = "2019-03-20 22:33:18 +0000";
layers = (
{
hints = (
{
place = "{94, 66}";
type = Stem;
},
{
place = "{101, 69}";
type = Stem;
},
{
place = "{277, 69}";
type = Stem;
},
{
horizontal = 1;
place = "{-194, 71}";
type = Stem;
},
{
horizontal = 1;
place = "{351, 60}";
type = Stem;
},
{
horizontal = 1;
place = "{351, 70}";
type = Stem;
}
);
layerId = UUID0;
paths = (
{
closed = 1;
nodes = (
"92 512 OFFCURVE",
"93 502 OFFCURVE",
"93 493 CURVE SMOOTH",
"93 425 OFFCURVE",
"96 357 OFFCURVE",
"98 288 CURVE SMOOTH",
"100 220 OFFCURVE",
"102 152 OFFCURVE",
"102 85 CURVE SMOOTH",
"102 75 LINE",
"68 73 LINE SMOOTH",
"47 71 OFFCURVE",
"31 60 OFFCURVE",
"31 39 CURVE SMOOTH",
"31 19 OFFCURVE",
"45 6 OFFCURVE",
"69 5 CURVE SMOOTH",
"77 5 LINE",
"99 9 OFFCURVE",
"121 7 OFFCURVE",
"142 11 CURVE SMOOTH",
"190 20 OFFCURVE",
"238 43 OFFCURVE",
"273 79 CURVE",
"300 110 OFFCURVE",
"331 170 OFFCURVE",
"340 211 CURVE SMOOTH",
"346 238 OFFCURVE",
"351 287 OFFCURVE",
"351 315 CURVE SMOOTH",
"351 342 OFFCURVE",
"347 387 OFFCURVE",
"342 413 CURVE",
"339 439 OFFCURVE",
"326 477 OFFCURVE",
"313 499 CURVE SMOOTH",
"274 565 OFFCURVE",
"180 619 OFFCURVE",
"103 619 CURVE SMOOTH",
"90 619 OFFCURVE",
"68 617 OFFCURVE",
"56 614 CURVE",
"38 612 OFFCURVE",
"17 602 OFFCURVE",
"17 580 CURVE SMOOTH",
"17 571 LINE",
"20 559 OFFCURVE",
"33 547 OFFCURVE",
"48 547 CURVE",
"56 548 OFFCURVE",
"63 549 OFFCURVE",
"67 549 CURVE SMOOTH",
"90 551 LINE",
"90 540 OFFCURVE",
"90 531 OFFCURVE",
"91 522 CURVE SMOOTH",
"91 522 LINE"
);
},
{
closed = 1;
nodes = (
"257 506 OFFCURVE",
"279 402 OFFCURVE",
"279 312 CURVE SMOOTH",
"279 290 OFFCURVE",
"276 255 OFFCURVE",
"272 233 CURVE SMOOTH",
"266 197 OFFCURVE",
"243 148 OFFCURVE",
"219 123 CURVE SMOOTH",
"208 112 OFFCURVE",
"189 99 OFFCURVE",
"171 92 CURVE",
"156 538 LINE"
);
}
);
width = 365;
}
);
unicode = 0064;
},
{
glyphname = e;
lastChange = "2019-03-20 22:33:18 +0000";
layers = (
{
hints = (
{
place = "{14, 62}";
type = Stem;
},
{
place = "{136, 64}";
type = Stem;
},
{
place = "{165, 63}";
type = Stem;
},
{
horizontal = 1;
place = "{-196, 21}";
target = up;
type = BottomGhost;
},
{
horizontal = 1;
place = "{303, 118}";
type = Stem;
},
{
horizontal = 1;
place = "{330, 61}";
type = Stem;
}
);
layerId = UUID0;
paths = (
{
closed = 1;
nodes = (
"74 145 OFFCURVE",
"74 193 OFFCURVE",
"74 253 CURVE SMOOTH",
"74 303 LINE SMOOTH",
"74 316 OFFCURVE",
"75 332 OFFCURVE",
"75 345 CURVE",
"98 346 OFFCURVE",
"116 349 OFFCURVE",
"137 350 CURVE",
"142 335 OFFCURVE",
"150 323 OFFCURVE",
"169 323 CURVE SMOOTH",
"189 323 OFFCURVE",
"198 341 OFFCURVE",
"198 358 CURVE SMOOTH",
"198 362 OFFCURVE",
"197 367 OFFCURVE",
"197 373 CURVE SMOOTH",
"197 404 OFFCURVE",
"195 445 OFFCURVE",
"165 445 CURVE SMOOTH",
"150 445 OFFCURVE",
"136 435 OFFCURVE",
"135 416 CURVE SMOOTH",
"135 412 LINE",
"113 410 OFFCURVE",
"95 407 OFFCURVE",
"74 405 CURVE",
"74 528 LINE",
"163 528 LINE",
"164 512 OFFCURVE",
"177 500 OFFCURVE",
"195 500 CURVE SMOOTH",
"225 500 OFFCURVE",
"225 525 OFFCURVE",
"225 548 CURVE SMOOTH",
"225 556 LINE SMOOTH",
"225 582 OFFCURVE",
"224 618 OFFCURVE",
"192 618 CURVE SMOOTH",
"174 618 OFFCURVE",
"169 607 OFFCURVE",
"164 593 CURVE",
"124 591 OFFCURVE",
"85 591 OFFCURVE",
"46 589 CURVE SMOOTH",
"18 587 OFFCURVE",
"10 580 OFFCURVE",
"10 554 CURVE SMOOTH",
"10 540 OFFCURVE",
"10 521 OFFCURVE",
"11 509 CURVE",
"11 494 OFFCURVE",
"12 481 OFFCURVE",
"12 466 CURVE SMOOTH",
"12 56 LINE SMOOTH",
"12 29 OFFCURVE",
"22 16 OFFCURVE",
"47 16 CURVE SMOOTH",
"64 16 OFFCURVE",
"78 18 OFFCURVE",
"94 21 CURVE SMOOTH",
"110 24 OFFCURVE",
"126 27 OFFCURVE",
"142 27 CURVE SMOOTH",
"148 27 LINE",
"150 21 LINE SMOOTH",
"156 6 OFFCURVE",
"171 1 OFFCURVE",
"184 1 CURVE",
"198 3 OFFCURVE",
"210 15 OFFCURVE",
"210 30 CURVE SMOOTH",
"210 43 LINE SMOOTH",
"210 48 OFFCURVE",
"211 54 OFFCURVE",
"211 60 CURVE SMOOTH",
"211 89 OFFCURVE",
"207 120 OFFCURVE",
"179 120 CURVE SMOOTH",
"161 120 OFFCURVE",
"152 106 OFFCURVE",
"149 90 CURVE",
"76 87 LINE"
);
}
);
width = 243;
}
);
unicode = 0065;
},
{
glyphname = f;
lastChange = "2019-03-20 22:33:18 +0000";
layers = (
{
hints = (
{
place = "{62, 57}";
type = Stem;
},
{
place = "{177, 55}";
type = Stem;
},
{
place = "{192, 54}";
type = Stem;
},
{
horizontal = 1;
place = "{-194, 52}";
type = Stem;
},
{
horizontal = 1;
place = "{-190, 56}";
type = Stem;
},
{
horizontal = 1;
place = "{135, 55}";
type = Stem;
},
{
horizontal = 1;
place = "{335, 58}";
type = Stem;
},
{
horizontal = 1;
place = "{420, -20}";
target = down;
type = TopGhost;
}
);
layerId = UUID0;
paths = (
{
closed = 1;
nodes = (
"125 587 LINE SMOOTH",
"93 587 OFFCURVE",
"63 584 OFFCURVE",
"63 546 CURVE SMOOTH",
"63 494 OFFCURVE",
"61 442 OFFCURVE",
"60 391 CURVE SMOOTH",
"59 339 OFFCURVE",
"58 288 OFFCURVE",
"58 237 CURVE SMOOTH",
"58 209 OFFCURVE",
"58 180 OFFCURVE",
"59 151 CURVE SMOOTH",
"60 122 OFFCURVE",
"61 93 OFFCURVE",
"61 64 CURVE SMOOTH",
"61 58 LINE",
"33 51 LINE SMOOTH",
"22 49 OFFCURVE",
"11 37 OFFCURVE",
"11 25 CURVE SMOOTH",
"11 2 OFFCURVE",
"29 -1 OFFCURVE",
"46 -1 CURVE SMOOTH",
"73 0 OFFCURVE",
"102 3 OFFCURVE",
"128 4 CURVE SMOOTH",
"145 4 OFFCURVE",
"161 12 OFFCURVE",
"161 32 CURVE SMOOTH",
"161 55 OFFCURVE",
"140 60 OFFCURVE",
"122 60 CURVE SMOOTH",
"115 60 LINE",
"115 80 OFFCURVE",
"114 91 OFFCURVE",
"114 112 CURVE SMOOTH",
"113 152 OFFCURVE",
"112 192 OFFCURVE",
"112 234 CURVE SMOOTH",
"112 264 OFFCURVE",
"112 295 OFFCURVE",
"113 327 CURVE",
"137 326 OFFCURVE",
"150 324 OFFCURVE",
"173 323 CURVE",
"175 307 OFFCURVE",
"183 292 OFFCURVE",
"202 292 CURVE SMOOTH",
"218 292 OFFCURVE",
"229 304 OFFCURVE",
"229 320 CURVE SMOOTH",
"229 324 LINE SMOOTH",
"228 353 OFFCURVE",
"227 403 OFFCURVE",
"199 403 CURVE SMOOTH",
"188 403 OFFCURVE",
"177 393 OFFCURVE",
"173 383 CURVE",
"114 383 LINE",
"114 526 LINE",
"183 526 LINE",
"187 507 OFFCURVE",
"191 488 OFFCURVE",
"222 488 CURVE",
"233 491 OFFCURVE",
"244 505 OFFCURVE",
"244 516 CURVE SMOOTH",
"244 553 LINE SMOOTH",
"244 583 OFFCURVE",
"241 610 OFFCURVE",
"214 610 CURVE SMOOTH",
"200 610 OFFCURVE",
"191 597 OFFCURVE",
"188 587 CURVE",
"188 587 LINE"
);
}
);
width = 262;
}
);
unicode = 0066;
},
{
glyphname = g;
lastChange = "2019-03-20 22:33:18 +0000";
layers = (
{
hints = (
{
place = "{14, 65}";
type = Stem;
},
{
place = "{123, 69}";
type = Stem;
},
{
horizontal = 1;
place = "{-194, 57}";
type = Stem;
},
{
horizontal = 1;
place = "{198, 73}";
type = Stem;
}
);
layerId = UUID0;
paths = (
{
closed = 1;
nodes = (
"61 615 OFFCURVE",
"14 456 OFFCURVE",
"14 316 CURVE SMOOTH",
"14 212 OFFCURVE",
"54 29 OFFCURVE",
"183 29 CURVE SMOOTH",
"223 29 OFFCURVE",
"273 56 OFFCURVE",
"295 90 CURVE",
"302 61 LINE",
"293 56 LINE SMOOTH",
"284 51 OFFCURVE",
"276 39 OFFCURVE",
"276 30 CURVE SMOOTH",
"276 12 OFFCURVE",
"290 -1 OFFCURVE",
"308 -1 CURVE",
"326 1 LINE SMOOTH",
"368 5 OFFCURVE",
"420 11 OFFCURVE",
"420 45 CURVE SMOOTH",
"420 62 OFFCURVE",
"400 76 OFFCURVE",
"386 76 CURVE SMOOTH",
"382 76 OFFCURVE",
"374 76 OFFCURVE",
"371 75 CURVE",
"354 120 OFFCURVE",
"343 160 OFFCURVE",
"323 229 CURVE",
"314 268 OFFCURVE",
"301 315 OFFCURVE",
"269 315 CURVE SMOOTH",
"247 315 OFFCURVE",
"215 307 OFFCURVE",
"188 299 CURVE SMOOTH",
"169 294 LINE",
"163 309 OFFCURVE",
"154 313 OFFCURVE",
"142 313 CURVE SMOOTH",
"121 313 OFFCURVE",
"110 295 OFFCURVE",
"110 272 CURVE",
"115 243 OFFCURVE",
"111 180 OFFCURVE",
"154 180 CURVE SMOOTH",
"172 180 OFFCURVE",
"187 195 OFFCURVE",
"187 212 CURVE SMOOTH",
"187 213 OFFCURVE",
"186 218 OFFCURVE",
"186 219 CURVE SMOOTH",
"185 220 OFFCURVE",
"185 221 OFFCURVE",
"183 230 CURVE",
"203 236 LINE SMOOTH",
"215 240 OFFCURVE",
"228 244 OFFCURVE",
"243 246 CURVE",
"243 242 OFFCURVE",
"244 238 OFFCURVE",
"245 236 CURVE",
"247 218 OFFCURVE",
"257 198 OFFCURVE",
"257 182 CURVE SMOOTH",
"257 139 OFFCURVE",
"230 91 OFFCURVE",
"177 91 CURVE SMOOTH",
"99 91 OFFCURVE",
"73 250 OFFCURVE",
"73 313 CURVE SMOOTH",
"73 389 OFFCURVE",
"95 472 OFFCURVE",
"97 476 CURVE SMOOTH",
"109 509 OFFCURVE",
"125 545 OFFCURVE",
"148 545 CURVE SMOOTH",
"189 545 OFFCURVE",
"216 493 OFFCURVE",
"219 450 CURVE",
"207 445 OFFCURVE",
"198 429 OFFCURVE",
"198 411 CURVE",
"200 399 OFFCURVE",
"214 388 OFFCURVE",
"225 388 CURVE SMOOTH",
"266 388 OFFCURVE",
"326 391 OFFCURVE",
"326 434 CURVE",
"323 452 OFFCURVE",
"304 460 OFFCURVE",
"289 461 CURVE",
"280 537 OFFCURVE",
"236 615 OFFCURVE",
"151 615 CURVE SMOOTH",
"151 615 LINE"
);
}
);
width = 442;
}
);
unicode = 0067;
},
{
glyphname = h;
lastChange = "2019-03-20 22:33:18 +0000";
layers = (
{
hints = (
{
place = "{57, 62}";
type = Stem;
},
{
place = "{195, 54}";
type = Stem;
},
{
place = "{199, 58}";
type = Stem;
},
{
horizontal = 1;
place = "{-194, 53}";
type = Stem;
},
{
horizontal = 1;
place = "{187, 58}";
type = Stem;
},
{
horizontal = 1;
place = "{353, 66}";
type = Stem;
}
);
layerId = UUID0;
paths = (
{
closed = 1;
nodes = (
"165 7 OFFCURVE",
"183 1 OFFCURVE",
"197 1 CURVE",
"205 2 OFFCURVE",
"213 2 OFFCURVE",
"220 2 CURVE SMOOTH",
"258 3 OFFCURVE",
"300 4 OFFCURVE",
"300 36 CURVE SMOOTH",
"300 56 OFFCURVE",
"284 64 OFFCURVE",
"267 64 CURVE SMOOTH",
"257 64 LINE",
"253 87 OFFCURVE",
"253 113 OFFCURVE",
"253 138 CURVE SMOOTH",
"253 154 OFFCURVE",
"254 168 OFFCURVE",
"254 183 CURVE SMOOTH",
"254 369 LINE SMOOTH",
"254 430 OFFCURVE",
"254 491 OFFCURVE",
"250 552 CURVE",
"263 556 OFFCURVE",
"279 561 OFFCURVE",
"279 583 CURVE SMOOTH",
"279 601 OFFCURVE",
"264 612 OFFCURVE",
"247 612 CURVE",
"233 610 LINE SMOOTH",
"197 606 OFFCURVE",
"151 599 OFFCURVE",
"151 570 CURVE SMOOTH",
"151 555 OFFCURVE",
"163 543 OFFCURVE",
"178 543 CURVE SMOOTH",
"193 543 LINE",
"195 507 OFFCURVE",
"195 478 OFFCURVE",
"197 442 CURVE",
"166 440 OFFCURVE",
"143 437 OFFCURVE",
"114 435 CURVE",
"114 539 LINE",
"117 540 LINE SMOOTH",
"125 544 OFFCURVE",
"133 558 OFFCURVE",
"133 567 CURVE SMOOTH",
"133 587 OFFCURVE",
"113 596 OFFCURVE",
"97 596 CURVE",
"73 593 LINE SMOOTH",
"43 589 OFFCURVE",
"13 585 OFFCURVE",
"12 552 CURVE",
"17 537 OFFCURVE",
"29 533 OFFCURVE",
"43 533 CURVE SMOOTH",
"45 533 OFFCURVE",
"51 535 OFFCURVE",
"54 535 CURVE",
"59 370 OFFCURVE",
"66 215 OFFCURVE",
"70 52 CURVE",
"58 48 OFFCURVE",
"36 37 OFFCURVE",
"36 24 CURVE SMOOTH",
"36 18 LINE",
"43 1 OFFCURVE",
"59 -2 OFFCURVE",
"73 -2 CURVE SMOOTH",
"91 -2 OFFCURVE",
"92 0 OFFCURVE",
"100 1 CURVE SMOOTH",
"130 3 OFFCURVE",
"161 5 OFFCURVE",
"161 34 CURVE SMOOTH",
"161 56 OFFCURVE",
"144 62 OFFCURVE",
"127 62 CURVE",
"116 376 LINE",
"142 379 OFFCURVE",
"171 381 OFFCURVE",
"197 381 CURVE",
"197 209 LINE SMOOTH",
"197 160 OFFCURVE",
"197 109 OFFCURVE",
"201 59 CURVE",
"182 56 OFFCURVE",
"165 47 OFFCURVE",
"165 27 CURVE SMOOTH",
"165 27 LINE"
);
}
);
width = 321;
}
);
unicode = 0068;
},
{
glyphname = i;
lastChange = "2019-03-20 22:33:18 +0000";
layers = (
{
hints = (
{
place = "{68, 61}";
type = Stem;
},
{
horizontal = 1;
place = "{-192, 59}";
type = Stem;
},
{
horizontal = 1;
place = "{355, 65}";
type = Stem;
},
{
horizontal = 1;
place = "{356, 54}";
type = Stem;
}
);
layerId = UUID0;
paths = (
{
closed = 1;
nodes = (
"160 605 OFFCURVE",
"141 615 OFFCURVE",
"126 615 CURVE",
"61 609 LINE SMOOTH",
"59 609 OFFCURVE",
"57 608 OFFCURVE",
"56 608 CURVE SMOOTH",
"35 605 OFFCURVE",
"10 602 OFFCURVE",
"10 579 CURVE SMOOTH",
"10 552 OFFCURVE",
"40 552 OFFCURVE",
"58 552 CURVE SMOOTH",
"62 552 LINE",
"62 59 LINE",
"42 59 OFFCURVE",
"20 52 OFFCURVE",
"20 29 CURVE SMOOTH",
"20 8 OFFCURVE",
"37 2 OFFCURVE",
"55 2 CURVE SMOOTH",
"109 2 LINE SMOOTH",
"140 2 OFFCURVE",
"175 5 OFFCURVE",
"175 34 CURVE SMOOTH",
"175 58 OFFCURVE",
"153 64 OFFCURVE",
"134 64 CURVE SMOOTH",
"127 64 LINE",
"124 154 OFFCURVE",
"123 233 OFFCURVE",
"123 322 CURVE SMOOTH",
"123 399 OFFCURVE",
"122 476 OFFCURVE",
"120 554 CURVE",
"143 557 OFFCURVE",
"160 562 OFFCURVE",
"160 587 CURVE SMOOTH",
"160 587 LINE"
);
}
);
width = 190;
}
);
unicode = 0069;
},
{
glyphname = j;
lastChange = "2019-03-20 22:33:18 +0000";
layers = (
{
hints = (
{
place = "{48, 59}";
type = Stem;
},
{
place = "{183, 62}";
type = Stem;
},
{
horizontal = 1;
place = "{-196, 21}";
target = up;
type = BottomGhost;
},
{
horizontal = 1;
place = "{32, 55}";
type = Stem;
},
{
horizontal = 1;
place = "{45, 59}";
type = Stem;
},
{
horizontal = 1;
place = "{340, 57}";
type = Stem;
},
{
horizontal = 1;
place = "{358, 62}";
type = Stem;
}
);
layerId = UUID0;
paths = (
{
closed = 1;
nodes = (
"245 545 OFFCURVE",
"248 546 OFFCURVE",
"250 546 CURVE SMOOTH",
"318 552 LINE SMOOTH",
"334 553 OFFCURVE",
"358 558 OFFCURVE",
"358 583 CURVE SMOOTH",
"358 608 OFFCURVE",
"333 614 OFFCURVE",
"317 614 CURVE SMOOTH",
"269 612 LINE SMOOTH",
"207 609 OFFCURVE",
"138 604 OFFCURVE",
"78 594 CURVE SMOOTH",
"76 594 OFFCURVE",
"75 593 OFFCURVE",
"72 593 CURVE SMOOTH",
"52 590 OFFCURVE",
"26 586 OFFCURVE",
"26 562 CURVE SMOOTH",
"26 541 OFFCURVE",
"42 533 OFFCURVE",
"58 533 CURVE SMOOTH",
"59 533 OFFCURVE",
"74 533 OFFCURVE",
"182 538 CURVE",
"182 512 LINE SMOOTH",
"183 424 OFFCURVE",
"184 402 OFFCURVE",
"184 380 CURVE SMOOTH",
"184 351 OFFCURVE",
"183 296 OFFCURVE",
"183 267 CURVE SMOOTH",
"182 230 OFFCURVE",
"182 192 OFFCURVE",
"182 155 CURVE SMOOTH",
"182 116 OFFCURVE",
"177 57 OFFCURVE",
"158 57 CURVE SMOOTH",
"142 57 OFFCURVE",
"118 105 OFFCURVE",
"114 136 CURVE SMOOTH",
"111 161 OFFCURVE",
"109 186 OFFCURVE",
"108 211 CURVE SMOOTH",
"108 232 LINE",
"121 236 OFFCURVE",
"141 233 OFFCURVE",
"141 267 CURVE",
"138 290 OFFCURVE",
"118 294 OFFCURVE",
"99 294 CURVE",
"81 289 LINE",
"48 282 OFFCURVE",
"12 273 OFFCURVE",
"12 245 CURVE",
"14 232 OFFCURVE",
"26 220 OFFCURVE",
"39 220 CURVE SMOOTH",
"43 220 LINE",
"43 155 OFFCURVE",
"54 54 OFFCURVE",
"117 7 CURVE SMOOTH",
"126 0 OFFCURVE",
"143 -6 OFFCURVE",
"155 -6 CURVE SMOOTH",
"232 -6 OFFCURVE",
"237 99 OFFCURVE",
"239 161 CURVE SMOOTH",
"242 226 OFFCURVE",
"243 287 OFFCURVE",
"243 347 CURVE SMOOTH",
"243 387 OFFCURVE",
"242 428 OFFCURVE",
"241 469 CURVE",
"240 481 OFFCURVE",
"240 494 OFFCURVE",
"240 507 CURVE SMOOTH",
"240 520 OFFCURVE",
"240 532 OFFCURVE",
"242 545 CURVE",
"242 545 LINE"
);
}
);
width = 379;
}
);
unicode = 006A;
},
{
glyphname = k;
lastChange = "2019-03-20 22:33:18 +0000";
layers = (
{
hints = (
{
place = "{58, 59}";
type = Stem;
},
{
horizontal = 1;
place = "{-194, 54}";
type = Stem;
},
{
horizontal = 1;
place = "{-184, 58}";
type = Stem;
},
{
horizontal = 1;
place = "{344, 52}";
type = Stem;
},
{
horizontal = 1;
place = "{344, 68}";
type = Stem;
},
{
horizontal = 1;
place = "{355, 57}";
type = Stem;
},
{
horizontal = 1;
place = "{357, 64}";
type = Stem;
}
);
layerId = UUID0;
paths = (
{
closed = 1;
nodes = (
"205 5 OFFCURVE",
"221 -3 OFFCURVE",
"233 -3 CURVE SMOOTH",
"270 -3 LINE SMOOTH",
"304 -3 OFFCURVE",
"343 0 OFFCURVE",
"346 26 CURVE",
"346 53 OFFCURVE",
"326 56 OFFCURVE",
"306 56 CURVE SMOOTH",
"289 56 LINE",
"263 104 LINE SMOOTH",
"255 118 OFFCURVE",
"246 132 OFFCURVE",
"239 147 CURVE SMOOTH",
"221 183 LINE SMOOTH",
"197 232 OFFCURVE",
"168 282 OFFCURVE",
"134 337 CURVE",
"136 338 OFFCURVE",
"135 340 OFFCURVE",
"136 341 CURVE SMOOTH",
"168 388 OFFCURVE",
"199 438 OFFCURVE",
"231 486 CURVE SMOOTH",
"245 507 OFFCURVE",
"260 532 OFFCURVE",
"268 557 CURVE",
"288 557 OFFCURVE",
"306 568 OFFCURVE",
"306 587 CURVE SMOOTH",
"306 612 OFFCURVE",
"283 614 OFFCURVE",
"266 614 CURVE",
"226 609 OFFCURVE",
"159 618 OFFCURVE",
"159 574 CURVE",
"162 557 OFFCURVE",
"174 552 OFFCURVE",
"191 552 CURVE SMOOTH",
"201 552 LINE",
"113 417 LINE",
"111 422 OFFCURVE",
"111 444 OFFCURVE",
"111 469 CURVE SMOOTH",
"111 546 LINE",
"131 551 OFFCURVE",
"154 558 OFFCURVE",
"154 586 CURVE",
"149 607 OFFCURVE",
"130 608 OFFCURVE",
"114 608 CURVE",
"89 604 LINE SMOOTH",
"52 598 OFFCURVE",
"11 596 OFFCURVE",
"11 562 CURVE",
"13 549 OFFCURVE",
"25 539 OFFCURVE",
"37 539 CURVE SMOOTH",
"40 539 OFFCURVE",
"43 540 OFFCURVE",
"46 540 CURVE SMOOTH",
"54 540 LINE",
"57 436 OFFCURVE",
"58 342 OFFCURVE",
"58 239 CURVE SMOOTH",
"58 183 OFFCURVE",
"58 122 OFFCURVE",
"56 65 CURVE",
"39 64 OFFCURVE",
"21 59 OFFCURVE",
"21 37 CURVE SMOOTH",
"21 17 OFFCURVE",
"38 10 OFFCURVE",
"53 10 CURVE SMOOTH",
"72 10 LINE SMOOTH",
"79 10 OFFCURVE",
"87 9 OFFCURVE",
"95 9 CURVE SMOOTH",
"124 9 OFFCURVE",
"151 12 OFFCURVE",
"151 40 CURVE",
"149 56 OFFCURVE",
"134 68 OFFCURVE",
"119 68 CURVE SMOOTH",
"112 68 LINE",
"112 75 LINE SMOOTH",
"112 131 OFFCURVE",
"115 186 OFFCURVE",
"115 242 CURVE SMOOTH",
"115 257 LINE",
"148 196 OFFCURVE",
"184 116 OFFCURVE",
"224 50 CURVE",
"212 45 OFFCURVE",
"204 37 OFFCURVE",
"204 20 CURVE",
"204 20 LINE"
);
}
);
width = 367;
}
);
unicode = 006B;
},
{
glyphname = l;
lastChange = "2019-03-20 22:33:18 +0000";
layers = (
{
hints = (
{
place = "{64, 61}";
type = Stem;
},
{
horizontal = 1;
place = "{-38, 67}";
type = Stem;
},
{
horizontal = 1;
place = "{354, 66}";
type = Stem;
}
);
layerId = UUID0;
paths = (
{
closed = 1;
nodes = (
"154 558 OFFCURVE",
"165 567 OFFCURVE",
"165 586 CURVE SMOOTH",
"165 606 OFFCURVE",
"154 615 OFFCURVE",
"130 615 CURVE",
"85 611 LINE SMOOTH",
"67 609 OFFCURVE",
"56 608 OFFCURVE",
"54 608 CURVE SMOOTH",
"46 607 OFFCURVE",
"38 604 OFFCURVE",
"31 601 CURVE SMOOTH",
"20 596 OFFCURVE",
"14 588 OFFCURVE",
"14 576 CURVE SMOOTH",
"14 559 OFFCURVE",
"26 547 OFFCURVE",
"41 547 CURVE SMOOTH",
"46 547 OFFCURVE",
"51 547 OFFCURVE",
"54 548 CURVE",
"58 548 OFFCURVE",
"63 549 OFFCURVE",
"66 549 CURVE",
"66 387 LINE SMOOTH",
"66 288 OFFCURVE",
"68 190 OFFCURVE",
"70 92 CURVE SMOOTH",
"71 68 OFFCURVE",
"73 45 OFFCURVE",
"76 24 CURVE SMOOTH",
"79 7 OFFCURVE",
"89 -2 OFFCURVE",
"108 -2 CURVE SMOOTH",
"112 -2 OFFCURVE",
"118 -1 OFFCURVE",
"128 -1 CURVE SMOOTH",
"134 -1 OFFCURVE",
"143 0 OFFCURVE",
"153 0 CURVE SMOOTH",
"190 2 LINE SMOOTH",
"218 4 OFFCURVE",
"235 5 OFFCURVE",
"242 5 CURVE SMOOTH",
"254 5 LINE SMOOTH",
"264 5 OFFCURVE",
"276 4 OFFCURVE",
"287 3 CURVE SMOOTH",
"295 3 LINE SMOOTH",
"304 3 OFFCURVE",
"311 4 OFFCURVE",
"317 9 CURVE",
"324 13 OFFCURVE",
"327 21 OFFCURVE",
"327 32 CURVE",
"318 151 LINE SMOOTH",
"318 154 OFFCURVE",
"317 156 OFFCURVE",
"317 159 CURVE",
"334 162 OFFCURVE",
"347 172 OFFCURVE",
"347 188 CURVE SMOOTH",
"347 204 OFFCURVE",
"332 217 OFFCURVE",
"318 217 CURVE SMOOTH",
"298 217 OFFCURVE",
"282 215 OFFCURVE",
"268 213 CURVE SMOOTH",
"235 207 LINE",
"223 204 OFFCURVE",
"215 189 OFFCURVE",
"215 178 CURVE",
"218 160 OFFCURVE",
"228 149 OFFCURVE",
"244 149 CURVE SMOOTH",
"249 149 OFFCURVE",
"253 149 OFFCURVE",
"261 151 CURVE",
"263 122 OFFCURVE",
"264 88 OFFCURVE",
"265 62 CURVE",
"220 60 OFFCURVE",
"182 56 OFFCURVE",
"138 54 CURVE",
"137 57 OFFCURVE",
"137 61 OFFCURVE",
"137 64 CURVE SMOOTH",
"135 122 OFFCURVE",
"135 162 OFFCURVE",
"135 183 CURVE SMOOTH",
"135 191 OFFCURVE",
"134 201 OFFCURVE",
"134 213 CURVE SMOOTH",
"132 257 OFFCURVE",
"130 338 OFFCURVE",
"126 554 CURVE",
"129 554 OFFCURVE",
"131 554 OFFCURVE",
"134 555 CURVE SMOOTH",
"134 555 LINE"
);
}
);
width = 361;
}
);
unicode = 006C;
},
{
glyphname = m;
lastChange = "2019-03-20 22:33:18 +0000";
layers = (
{
hints = (
{
horizontal = 1;
place = "{-194, 56}";
type = Stem;
},
{
horizontal = 1;
place = "{-187, 61}";
type = Stem;
},
{
horizontal = 1;
place = "{-178, 58}";
type = Stem;
},
{
horizontal = 1;
place = "{-171, 60}";
type = Stem;
},
{
horizontal = 1;
place = "{-31, 61}";
type = Stem;
},
{
horizontal = 1;
place = "{-25, 62}";
type = Stem;
},
{
horizontal = 1;
place = "{351, 57}";
type = Stem;
},
{
horizontal = 1;
place = "{351, 68}";
type = Stem;
}
);
layerId = UUID0;
paths = (
{
closed = 1;
nodes = (
"121 401 OFFCURVE",
"89 248 OFFCURVE",
"63 106 CURVE",
"57 81 LINE",
"35 76 OFFCURVE",
"16 65 OFFCURVE",
"16 44 CURVE SMOOTH",
"16 21 OFFCURVE",
"29 15 OFFCURVE",
"50 15 CURVE SMOOTH",
"57 15 LINE SMOOTH",
"95 15 OFFCURVE",
"155 16 OFFCURVE",
"155 52 CURVE SMOOTH",
"155 74 OFFCURVE",
"139 81 OFFCURVE",
"123 83 CURVE",
"137 182 OFFCURVE",
"166 282 OFFCURVE",
"185 388 CURVE SMOOTH",
"193 432 LINE",
"208 367 OFFCURVE",
"225 250 OFFCURVE",
"228 217 CURVE",
"217 212 OFFCURVE",
"206 205 OFFCURVE",
"206 189 CURVE SMOOTH",
"206 168 OFFCURVE",
"224 160 OFFCURVE",
"241 160 CURVE",
"275 165 OFFCURVE",
"337 152 OFFCURVE",
"337 195 CURVE SMOOTH",
"337 211 OFFCURVE",
"324 224 OFFCURVE",
"309 226 CURVE",
"303 226 LINE",
"321 296 OFFCURVE",
"339 359 OFFCURVE",
"365 423 CURVE",
"370 351 OFFCURVE",
"376 313 OFFCURVE",
"383 247 CURVE SMOOTH",
"390 184 LINE SMOOTH",
"395 137 OFFCURVE",
"409 97 OFFCURVE",
"414 57 CURVE",
"398 52 LINE SMOOTH",
"381 47 OFFCURVE",
"377 30 OFFCURVE",
"377 19 CURVE",
"380 5 OFFCURVE",
"396 -3 OFFCURVE",
"408 -3 CURVE SMOOTH",
"452 -3 OFFCURVE",
"518 1 OFFCURVE",
"518 36 CURVE SMOOTH",
"518 54 OFFCURVE",
"498 64 OFFCURVE",
"484 64 CURVE SMOOTH",
"473 64 LINE",
"438 202 OFFCURVE",
"429 356 OFFCURVE",
"418 549 CURVE",
"423 550 LINE",
"434 555 OFFCURVE",
"445 568 OFFCURVE",
"445 580 CURVE SMOOTH",
"445 602 OFFCURVE",
"424 611 OFFCURVE",
"406 611 CURVE SMOOTH",
"374 611 OFFCURVE",
"318 606 OFFCURVE",
"318 572 CURVE SMOOTH",
"318 553 OFFCURVE",
"328 545 OFFCURVE",
"343 543 CURVE",
"319 479 OFFCURVE",
"289 412 OFFCURVE",
"268 350 CURVE",
"254 429 OFFCURVE",
"245 471 OFFCURVE",
"231 547 CURVE",
"239 549 LINE",
"251 554 OFFCURVE",
"262 566 OFFCURVE",
"262 579 CURVE SMOOTH",
"262 600 OFFCURVE",
"242 610 OFFCURVE",
"224 610 CURVE",
"198 607 LINE SMOOTH",
"157 602 OFFCURVE",
"111 597 OFFCURVE",
"111 565 CURVE",
"113 552 OFFCURVE",
"126 540 OFFCURVE",
"141 540 CURVE",
"155 543 LINE"
);
}
);
width = 546;
}
);
unicode = 006D;
},
{
glyphname = n;
lastChange = "2019-03-20 22:33:18 +0000";
layers = (
{
hints = (
{
place = "{65, 63}";
type = Stem;
},
{
place = "{222, 144}";
type = Stem;
},
{
place = "{258, 59}";
type = Stem;
},
{
horizontal = 1;
place = "{-194, 55}";
type = Stem;
},
{
horizontal = 1;
place = "{345, 57}";
type = Stem;
},
{
horizontal = 1;
place = "{360, 60}";
type = Stem;
}
);
layerId = UUID0;
paths = (
{
closed = 1;
nodes = (
"146 351 OFFCURVE",
"149 338 OFFCURVE",
"160 306 CURVE SMOOTH",
"184 238 LINE",
"195 212 OFFCURVE",
"206 182 OFFCURVE",
"217 155 CURVE SMOOTH",
"255 55 LINE",
"252 54 OFFCURVE",
"248 53 OFFCURVE",
"245 53 CURVE SMOOTH",
"228 52 OFFCURVE",
"219 37 OFFCURVE",
"219 21 CURVE SMOOTH",
"220 5 OFFCURVE",
"234 -3 OFFCURVE",
"249 -3 CURVE SMOOTH",
"255 -3 OFFCURVE",
"261 -2 OFFCURVE",
"268 -2 CURVE SMOOTH",
"309 -1 OFFCURVE",
"363 1 OFFCURVE",
"363 37 CURVE",
"360 51 OFFCURVE",
"347 62 OFFCURVE",
"333 62 CURVE SMOOTH",
"322 62 LINE",
"317 180 OFFCURVE",
"313 300 OFFCURVE",
"313 420 CURVE SMOOTH",
"313 459 OFFCURVE",
"318 512 OFFCURVE",
"321 543 CURVE",
"341 544 OFFCURVE",
"365 549 OFFCURVE",
"365 575 CURVE SMOOTH",
"365 596 OFFCURVE",
"347 604 OFFCURVE",
"330 604 CURVE",
"321 603 OFFCURVE",
"311 603 OFFCURVE",
"302 603 CURVE SMOOTH",
"262 602 OFFCURVE",
"220 601 OFFCURVE",
"220 562 CURVE",
"223 548 OFFCURVE",
"233 540 OFFCURVE",
"247 540 CURVE SMOOTH",
"253 540 LINE SMOOTH",
"255 540 OFFCURVE",
"257 541 OFFCURVE",
"258 541 CURVE",
"262 541 LINE",
"258 457 OFFCURVE",
"258 386 OFFCURVE",
"258 301 CURVE SMOOTH",
"258 218 LINE",
"237 264 OFFCURVE",
"216 324 OFFCURVE",
"199 377 CURVE SMOOTH",
"185 421 OFFCURVE",
"170 467 OFFCURVE",
"153 510 CURVE SMOOTH",
"148 521 OFFCURVE",
"139 540 OFFCURVE",
"134 556 CURVE",
"157 557 OFFCURVE",
"169 568 OFFCURVE",
"169 586 CURVE SMOOTH",
"169 605 OFFCURVE",
"153 616 OFFCURVE",
"130 616 CURVE SMOOTH",
"93 616 OFFCURVE",
"18 615 OFFCURVE",
"18 572 CURVE",
"21 558 OFFCURVE",
"30 550 OFFCURVE",
"46 550 CURVE SMOOTH",
"50 550 OFFCURVE",
"51 551 OFFCURVE",
"52 551 CURVE SMOOTH",
"54 551 OFFCURVE",
"58 552 OFFCURVE",
"60 552 CURVE",
"64 531 OFFCURVE",
"65 346 OFFCURVE",
"65 206 CURVE SMOOTH",
"65 141 OFFCURVE",
"65 89 OFFCURVE",
"64 72 CURVE",
"55 71 LINE SMOOTH",
"32 68 OFFCURVE",
"11 66 OFFCURVE",
"11 37 CURVE SMOOTH",
"11 15 OFFCURVE",
"32 12 OFFCURVE",
"46 12 CURVE SMOOTH",
"86 12 LINE SMOOTH",
"124 12 OFFCURVE",
"159 16 OFFCURVE",
"159 50 CURVE",
"158 64 OFFCURVE",
"145 76 OFFCURVE",
"131 76 CURVE SMOOTH",
"123 76 LINE",
"123 406 LINE"
);
}
);
width = 389;
}
);
unicode = 006E;
},
{
glyphname = o;
lastChange = "2019-03-20 22:33:18 +0000";
layers = (
{
hints = (
{
place = "{13, 64}";
type = Stem;
},
{
place = "{228, 65}";
type = Stem;
},
{
horizontal = 1;
place = "{421, -20}";
target = down;
type = TopGhost;
}
);
layerId = UUID0;
paths = (
{
closed = 1;
nodes = (
"293 389 OFFCURVE",
"286 470 OFFCURVE",
"250 546 CURVE SMOOTH",
"237 575 OFFCURVE",
"198 616 OFFCURVE",
"156 616 CURVE SMOOTH",
"73 616 OFFCURVE",
"32 506 OFFCURVE",
"23 418 CURVE SMOOTH",
"17 364 OFFCURVE",
"16 302 OFFCURVE",
"16 247 CURVE SMOOTH",
"16 152 OFFCURVE",
"40 -1 OFFCURVE",
"141 -1 CURVE SMOOTH",
"216 -1 OFFCURVE",
"265 90 OFFCURVE",
"283 181 CURVE SMOOTH",
"291 219 OFFCURVE",
"292 260 OFFCURVE",
"293 299 CURVE SMOOTH",
"293 312 LINE"
);
},
{
closed = 1;
nodes = (
"224 216 OFFCURVE",
"219 119 OFFCURVE",
"161 72 CURVE SMOOTH",
"156 67 OFFCURVE",
"147 63 OFFCURVE",
"141 63 CURVE SMOOTH",
"83 63 OFFCURVE",
"78 212 OFFCURVE",
"78 237 CURVE SMOOTH",
"78 289 LINE SMOOTH",
"78 386 OFFCURVE",
"84 547 OFFCURVE",
"158 547 CURVE SMOOTH",
"192 547 OFFCURVE",
"217 447 OFFCURVE",
"220 434 CURVE SMOOTH",
"224 412 OFFCURVE",
"227 375 OFFCURVE",
"227 359 CURVE SMOOTH",
"227 347 OFFCURVE",
"228 337 OFFCURVE",
"228 328 CURVE SMOOTH",
"228 293 LINE"
);
}
);
width = 311;
}
);
unicode = 006F;
},
{
glyphname = p;
lastChange = "2019-03-20 22:33:18 +0000";
layers = (
{
hints = (
{
place = "{63, 50}";
type = Stem;
},
{
place = "{234, 54}";
type = Stem;
},
{
horizontal = 1;
place = "{-194, 53}";
type = Stem;
},
{
horizontal = 1;
place = "{357, 48}";
type = Stem;
},
{
horizontal = 1;
place = "{367, 53}";
type = Stem;
}
);
layerId = UUID0;
paths = (
{
closed = 1;
nodes = (
"115 357 OFFCURVE",
"122 357 OFFCURVE",
"130 358 CURVE SMOOTH",
"199 370 OFFCURVE",
"289 387 OFFCURVE",
"289 491 CURVE SMOOTH",
"289 573 OFFCURVE",
"224 614 OFFCURVE",
"130 614 CURVE SMOOTH",
"94 614 OFFCURVE",
"14 603 OFFCURVE",
"14 575 CURVE SMOOTH",
"14 559 OFFCURVE",
"26 551 OFFCURVE",
"39 551 CURVE SMOOTH",
"47 551 OFFCURVE",
"52 552 OFFCURVE",
"57 553 CURVE SMOOTH",
"60 554 LINE",
"59 537 OFFCURVE",
"58 524 OFFCURVE",
"58 510 CURVE SMOOTH",
"58 481 OFFCURVE",
"60 452 OFFCURVE",
"60 423 CURVE SMOOTH",
"60 341 LINE SMOOTH",
"60 282 OFFCURVE",
"63 220 OFFCURVE",
"65 159 CURVE SMOOTH",
"67 123 OFFCURVE",
"68 89 OFFCURVE",
"69 54 CURVE SMOOTH",
"69 49 LINE",
"50 46 OFFCURVE",
"44 37 OFFCURVE",
"44 22 CURVE",
"46 0 OFFCURVE",
"77 -4 OFFCURVE",
"109 -4 CURVE SMOOTH",
"116 -4 OFFCURVE",
"124 -3 OFFCURVE",
"131 -3 CURVE SMOOTH",
"146 -3 LINE SMOOTH",
"160 -3 OFFCURVE",
"171 8 OFFCURVE",
"173 21 CURVE",
"173 47 OFFCURVE",
"165 47 OFFCURVE",
"135 49 CURVE",
"121 49 LINE",
"111 357 LINE"
);
},
{
closed = 1;
nodes = (
"119 559 OFFCURVE",
"129 559 OFFCURVE",
"134 559 CURVE SMOOTH",
"181 559 OFFCURVE",
"239 545 OFFCURVE",
"239 487 CURVE SMOOTH",
"239 436 OFFCURVE",
"175 416 OFFCURVE",
"111 411 CURVE",
"112 558 LINE"
);
}
);
width = 307;
}
);
unicode = 0070;
},
{
glyphname = q;
lastChange = "2019-03-20 22:33:18 +0000";
layers = (
{
hints = (
{
place = "{13, 56}";
type = Stem;
},
{
place = "{79, 83}";
type = Stem;
},
{
place = "{182, 57}";
type = Stem;
},
{
horizontal = 1;
place = "{-181, 57}";
type = Stem;
},
{
horizontal = 1;
place = "{-195, 21}";
target = up;
type = BottomGhost;
}
);
layerId = UUID0;
paths = (
{
closed = 1;
nodes = (
"234 31 OFFCURVE",
"234 25 OFFCURVE",
"234 21 CURVE SMOOTH",
"234 7 OFFCURVE",
"246 -4 OFFCURVE",
"259 -4 CURVE SMOOTH",
"275 -4 OFFCURVE",
"313 62 OFFCURVE",
"313 77 CURVE SMOOTH",
"313 91 OFFCURVE",
"296 105 OFFCURVE",
"285 105 CURVE SMOOTH",
"272 105 OFFCURVE",
"267 99 OFFCURVE",
"261 91 CURVE",
"261 91 OFFCURVE",
"253 94 OFFCURVE",
"249 97 CURVE SMOOTH",
"241 104 OFFCURVE",
"231 112 OFFCURVE",
"223 120 CURVE SMOOTH",
"216 128 LINE",
"226 187 OFFCURVE",
"234 268 OFFCURVE",
"234 342 CURVE SMOOTH",
"234 364 LINE SMOOTH",
"234 444 OFFCURVE",
"232 531 OFFCURVE",
"174 592 CURVE SMOOTH",
"161 606 OFFCURVE",
"144 612 OFFCURVE",
"129 612 CURVE SMOOTH",
"25 612 OFFCURVE",
"14 330 OFFCURVE",
"10 245 CURVE SMOOTH",
"10 240 OFFCURVE",
"9 236 OFFCURVE",
"9 232 CURVE SMOOTH",
"9 227 LINE SMOOTH",
"8 218 OFFCURVE",
"7 203 OFFCURVE",
"7 194 CURVE SMOOTH",
"7 125 OFFCURVE",
"23 9 OFFCURVE",
"96 9 CURVE SMOOTH",
"124 9 OFFCURVE",
"171 40 OFFCURVE",
"191 69 CURVE",
"236 37 LINE"
);
},
{
closed = 1;
nodes = (
"151 204 OFFCURVE",
"153 210 OFFCURVE",
"153 212 CURVE SMOOTH",
"153 228 OFFCURVE",
"140 241 OFFCURVE",
"124 241 CURVE SMOOTH",
"92 241 OFFCURVE",
"71 180 OFFCURVE",
"71 165 CURVE SMOOTH",
"71 156 OFFCURVE",
"82 140 OFFCURVE",
"98 140 CURVE SMOOTH",
"106 140 OFFCURVE",
"112 142 OFFCURVE",
"117 146 CURVE",
"125 136 OFFCURVE",
"139 121 OFFCURVE",
"150 111 CURVE",
"140 95 OFFCURVE",
"116 66 OFFCURVE",
"95 66 CURVE SMOOTH",
"69 66 OFFCURVE",
"60 146 OFFCURVE",
"60 188 CURVE SMOOTH",
"60 302 OFFCURVE",
"62 417 OFFCURVE",
"107 533 CURVE SMOOTH",
"110 542 OFFCURVE",
"119 555 OFFCURVE",
"123 558 CURVE",
"148 556 OFFCURVE",
"158 481 OFFCURVE",
"160 460 CURVE SMOOTH",
"161 449 OFFCURVE",
"169 427 OFFCURVE",
"170 415 CURVE",
"170 360 LINE SMOOTH",
"170 299 OFFCURVE",
"169 237 OFFCURVE",
"164 176 CURVE",
"146 192 LINE",
"150 201 LINE"
);
}
);
width = 335;
}
);
unicode = 0071;
},
{
glyphname = r;
lastChange = "2019-03-20 22:33:18 +0000";
layers = (
{
hints = (
{
place = "{81, 60}";
type = Stem;
},
{
place = "{94, 56}";
type = Stem;
},
{
place = "{233, 56}";
type = Stem;
},
{
horizontal = 1;
place = "{-194, 52}";
type = Stem;
}
);
layerId = UUID0;
paths = (
{
closed = 1;
nodes = (
"83 462 OFFCURVE",
"85 385 OFFCURVE",
"88 303 CURVE SMOOTH",
"90 223 OFFCURVE",
"93 141 OFFCURVE",
"94 62 CURVE",
"75 60 OFFCURVE",
"58 54 OFFCURVE",
"58 29 CURVE",
"60 14 OFFCURVE",
"70 7 OFFCURVE",
"86 7 CURVE SMOOTH",
"114 7 LINE SMOOTH",
"144 7 OFFCURVE",
"174 10 OFFCURVE",
"174 36 CURVE SMOOTH",
"174 46 OFFCURVE",
"166 57 OFFCURVE",
"154 61 CURVE",
"153 61 OFFCURVE",
"150 62 OFFCURVE",
"150 62 CURVE",
"148 121 LINE SMOOTH",
"146 166 OFFCURVE",
"144 212 OFFCURVE",
"144 257 CURVE",
"166 210 OFFCURVE",
"186 162 OFFCURVE",
"207 115 CURVE SMOOTH",
"237 47 LINE",
"237 47 OFFCURVE",
"235 47 OFFCURVE",
"233 47 CURVE SMOOTH",
"220 44 OFFCURVE",
"205 39 OFFCURVE",
"205 19 CURVE",
"206 3 OFFCURVE",
"221 -5 OFFCURVE",
"235 -5 CURVE SMOOTH",
"250 -5 LINE SMOOTH",
"284 -5 OFFCURVE",
"332 -4 OFFCURVE",
"332 27 CURVE SMOOTH",
"332 42 OFFCURVE",
"321 54 OFFCURVE",
"305 54 CURVE SMOOTH",
"296 54 LINE",
"277 91 OFFCURVE",
"261 128 OFFCURVE",
"245 166 CURVE SMOOTH",
"243 171 LINE SMOOTH",
"219 227 OFFCURVE",
"188 295 OFFCURVE",
"162 345 CURVE",
"212 371 OFFCURVE",
"288 419 OFFCURVE",
"288 486 CURVE SMOOTH",
"288 557 OFFCURVE",
"218 612 OFFCURVE",
"144 612 CURVE SMOOTH",
"112 612 OFFCURVE",
"11 594 OFFCURVE",
"11 554 CURVE SMOOTH",
"11 535 OFFCURVE",
"25 529 OFFCURVE",
"42 529 CURVE",
"81 546 LINE"
);
},
{
closed = 1;
nodes = (
"189 556 OFFCURVE",
"229 528 OFFCURVE",
"229 487 CURVE SMOOTH",
"229 450 OFFCURVE",
"173 413 OFFCURVE",
"137 397 CURVE",
"137 556 LINE",
"143 556 LINE"
);
}
);
width = 354;
}
);
unicode = 0072;
},
{
glyphname = s;
lastChange = "2019-03-20 22:33:18 +0000";
layers = (
{
hints = (
{
place = "{13, 85}";
type = Stem;
},
{
place = "{89, 54}";
type = Stem;
},
{
place = "{232, 54}";
type = Stem;
},
{
horizontal = 1;
place = "{-194, 54}";
type = Stem;
},
{
horizontal = 1;
place = "{-5, 59}";
type = Stem;
},
{
horizontal = 1;
place = "{230, 56}";
type = Stem;
}
);
layerId = UUID0;
paths = (
{
closed = 1;
nodes = (
"271 538 OFFCURVE",
"234 612 OFFCURVE",
"165 612 CURVE SMOOTH",
"121 612 OFFCURVE",
"90 582 OFFCURVE",
"90 505 CURVE SMOOTH",
"90 443 OFFCURVE",
"121 377 OFFCURVE",
"154 321 CURVE SMOOTH",
"195 251 OFFCURVE",
"233 145 OFFCURVE",
"233 90 CURVE SMOOTH",
"233 69 OFFCURVE",
"212 53 OFFCURVE",
"191 53 CURVE SMOOTH",
"136 53 OFFCURVE",
"104 151 OFFCURVE",
"100 193 CURVE",
"113 196 OFFCURVE",
"123 202 OFFCURVE",
"123 220 CURVE SMOOTH",
"123 238 OFFCURVE",
"109 245 OFFCURVE",
"91 245 CURVE",
"87 244 OFFCURVE",
"82 244 OFFCURVE",
"78 244 CURVE SMOOTH",
"52 242 OFFCURVE",
"19 239 OFFCURVE",
"19 213 CURVE SMOOTH",
"19 192 OFFCURVE",
"35 188 OFFCURVE",
"50 187 CURVE",
"51 182 LINE SMOOTH",
"67 116 OFFCURVE",
"98 -3 OFFCURVE",
"195 -3 CURVE SMOOTH",
"247 -3 OFFCURVE",
"292 40 OFFCURVE",
"292 97 CURVE SMOOTH",
"292 175 OFFCURVE",
"248 261 OFFCURVE",
"209 338 CURVE SMOOTH",
"175 403 OFFCURVE",
"146 462 OFFCURVE",
"146 506 CURVE SMOOTH",
"146 531 OFFCURVE",
"150 558 OFFCURVE",
"167 558 CURVE SMOOTH",
"205 558 OFFCURVE",
"220 504 OFFCURVE",
"227 470 CURVE",
"219 465 OFFCURVE",
"211 455 OFFCURVE",
"211 439 CURVE",
"215 426 OFFCURVE",
"227 421 OFFCURVE",
"239 421 CURVE SMOOTH",
"271 421 OFFCURVE",
"309 421 OFFCURVE",
"309 455 CURVE",
"307 466 OFFCURVE",
"296 475 OFFCURVE",
"286 477 CURVE",
"277 477 LINE"
);
}
);
width = 325;
}
);
unicode = 0073;
},
{
glyphname = t;
lastChange = "2019-03-20 22:33:18 +0000";
layers = (
{
hints = (
{
place = "{14, 62}";
type = Stem;
},
{
place = "{183, 62}";
type = Stem;
},
{
place = "{371, 59}";
type = Stem;
},
{
horizontal = 1;
place = "{-193, 56}";
type = Stem;
},
{
horizontal = 1;
place = "{333, 60}";
type = Stem;
},
{
horizontal = 1;
place = "{421, -20}";
target = down;
type = TopGhost;
}
);
layerId = UUID0;
paths = (
{
closed = 1;
nodes = (
"351 590 OFFCURVE",
"329 589 OFFCURVE",
"312 589 CURVE SMOOTH",
"284 589 LINE SMOOTH",
"275 589 OFFCURVE",
"266 590 OFFCURVE",
"257 590 CURVE SMOOTH",
"226 590 OFFCURVE",
"193 589 OFFCURVE",
"160 588 CURVE SMOOTH",
"129 587 OFFCURVE",
"100 587 OFFCURVE",
"71 587 CURVE",
"66 596 OFFCURVE",
"57 606 OFFCURVE",
"43 606 CURVE SMOOTH",
"21 606 OFFCURVE",
"15 583 OFFCURVE",
"15 571 CURVE SMOOTH",
"15 534 LINE SMOOTH",
"15 512 OFFCURVE",
"21 488 OFFCURVE",
"47 488 CURVE SMOOTH",
"72 488 OFFCURVE",
"76 506 OFFCURVE",
"77 525 CURVE",
"177 525 LINE",
"183 478 OFFCURVE",
"185 432 OFFCURVE",
"185 385 CURVE SMOOTH",
"185 367 OFFCURVE",
"184 350 OFFCURVE",
"184 334 CURVE SMOOTH",
"184 222 LINE SMOOTH",
"184 201 OFFCURVE",
"185 180 OFFCURVE",
"185 159 CURVE SMOOTH",
"185 128 OFFCURVE",
"184 88 OFFCURVE",
"182 58 CURVE",
"162 58 OFFCURVE",
"145 45 OFFCURVE",
"145 26 CURVE SMOOTH",
"145 1 OFFCURVE",
"173 -3 OFFCURVE",
"203 -3 CURVE SMOOTH",
"212 -3 OFFCURVE",
"221 -2 OFFCURVE",
"229 -2 CURVE SMOOTH",
"250 -2 LINE SMOOTH",
"268 -2 OFFCURVE",
"278 13 OFFCURVE",
"278 30 CURVE SMOOTH",
"278 43 OFFCURVE",
"268 56 OFFCURVE",
"255 59 CURVE SMOOTH",
"246 61 LINE",
"246 158 LINE SMOOTH",
"246 185 OFFCURVE",
"247 212 OFFCURVE",
"247 238 CURVE SMOOTH",
"247 335 OFFCURVE",
"245 429 OFFCURVE",
"237 525 CURVE",
"369 525 LINE",
"374 508 OFFCURVE",
"379 497 OFFCURVE",
"405 497 CURVE",
"422 500 OFFCURVE",
"430 514 OFFCURVE",
"430 530 CURVE SMOOTH",
"430 535 OFFCURVE",
"429 541 OFFCURVE",
"429 547 CURVE SMOOTH",
"428 578 OFFCURVE",
"427 612 OFFCURVE",
"399 612 CURVE SMOOTH",
"389 612 OFFCURVE",
"377 606 OFFCURVE",
"374 598 CURVE",
"370 592 LINE"
);
}
);
width = 453;
}
);
unicode = 0074;
},
{
glyphname = u;
lastChange = "2019-03-20 22:33:18 +0000";
layers = (
{
hints = (
{
place = "{62, 59}";
type = Stem;
},
{
place = "{233, 62}";
type = Stem;
},
{
horizontal = 1;
place = "{-195, 21}";
target = up;
type = BottomGhost;
},
{
horizontal = 1;
place = "{340, 57}";
type = Stem;
},
{
horizontal = 1;
place = "{340, 65}";
type = Stem;
}
);
layerId = UUID0;
paths = (
{
closed = 1;
nodes = (
"331 606 OFFCURVE",
"310 613 OFFCURVE",
"295 613 CURVE SMOOTH",
"290 613 OFFCURVE",
"284 612 OFFCURVE",
"277 612 CURVE SMOOTH",
"243 612 OFFCURVE",
"197 611 OFFCURVE",
"197 578 CURVE SMOOTH",
"197 562 OFFCURVE",
"209 549 OFFCURVE",
"225 549 CURVE SMOOTH",
"231 549 LINE",
"231 468 OFFCURVE",
"227 397 OFFCURVE",
"224 316 CURVE SMOOTH",
"220 230 OFFCURVE",
"195 58 OFFCURVE",
"163 58 CURVE SMOOTH",
"128 58 OFFCURVE",
"119 238 OFFCURVE",
"119 296 CURVE SMOOTH",
"119 332 OFFCURVE",
"118 368 OFFCURVE",
"117 405 CURVE SMOOTH",
"116 441 OFFCURVE",
"115 477 OFFCURVE",
"115 513 CURVE SMOOTH",
"115 536 LINE",
"126 538 OFFCURVE",
"138 545 OFFCURVE",
"138 565 CURVE SMOOTH",
"138 587 OFFCURVE",
"122 596 OFFCURVE",
"103 596 CURVE SMOOTH",
"72 596 OFFCURVE",
"9 592 OFFCURVE",
"9 561 CURVE SMOOTH",
"9 546 OFFCURVE",
"21 533 OFFCURVE",
"36 533 CURVE SMOOTH",
"50 533 LINE",
"50 438 OFFCURVE",
"52 350 OFFCURVE",
"55 256 CURVE SMOOTH",
"55 248 OFFCURVE",
"56 241 OFFCURVE",
"56 233 CURVE SMOOTH",
"59 132 OFFCURVE",
"91 -1 OFFCURVE",
"160 -1 CURVE SMOOTH",
"241 -1 OFFCURVE",
"259 138 OFFCURVE",
"264 179 CURVE SMOOTH",
"279 298 OFFCURVE",
"288 428 OFFCURVE",
"289 552 CURVE",
"307 556 OFFCURVE",
"331 562 OFFCURVE",
"331 585 CURVE SMOOTH",
"331 585 LINE"
);
}
);
width = 350;
}
);
unicode = 0075;
},
{
glyphname = v;
lastChange = "2019-03-20 22:33:18 +0000";
layers = (
{
hints = (
{
place = "{13, 334}";
type = Stem;
},
{
horizontal = 1;
place = "{-193, 57}";
type = Stem;
},
{
horizontal = 1;
place = "{354, 54}";
type = Stem;
},
{
horizontal = 1;
place = "{361, 59}";
type = Stem;
}
);
layerId = UUID0;
paths = (
{
closed = 1;
nodes = (
"125 560 OFFCURVE",
"136 567 OFFCURVE",
"136 589 CURVE",
"134 604 OFFCURVE",
"121 615 OFFCURVE",
"106 615 CURVE SMOOTH",
"102 615 OFFCURVE",
"96 614 OFFCURVE",
"90 614 CURVE SMOOTH",
"54 613 OFFCURVE",
"12 612 OFFCURVE",
"12 579 CURVE",
"14 565 OFFCURVE",
"26 555 OFFCURVE",
"39 555 CURVE SMOOTH",
"49 555 LINE",
"75 386 OFFCURVE",
"106 222 OFFCURVE",
"138 56 CURVE",
"121 54 OFFCURVE",
"102 46 OFFCURVE",
"102 27 CURVE SMOOTH",
"102 9 OFFCURVE",
"120 1 OFFCURVE",
"133 0 CURVE SMOOTH",
"216 -3 LINE SMOOTH",
"232 -3 OFFCURVE",
"253 6 OFFCURVE",
"253 29 CURVE SMOOTH",
"253 53 OFFCURVE",
"233 59 OFFCURVE",
"214 60 CURVE SMOOTH",
"208 60 LINE",
"238 224 OFFCURVE",
"269 377 OFFCURVE",
"307 540 CURVE SMOOTH",
"309 551 OFFCURVE",
"314 553 OFFCURVE",
"319 554 CURVE SMOOTH",
"330 557 OFFCURVE",
"342 560 OFFCURVE",
"342 584 CURVE SMOOTH",
"342 602 OFFCURVE",
"327 612 OFFCURVE",
"310 612 CURVE SMOOTH",
"297 612 LINE SMOOTH",
"264 611 OFFCURVE",
"221 608 OFFCURVE",
"221 579 CURVE SMOOTH",
"221 565 OFFCURVE",
"231 554 OFFCURVE",
"245 552 CURVE",
"241 524 OFFCURVE",
"236 505 OFFCURVE",
"230 480 CURVE SMOOTH",
"230 478 OFFCURVE",
"229 477 OFFCURVE",
"229 475 CURVE SMOOTH",
"224 449 OFFCURVE",
"217 422 OFFCURVE",
"212 396 CURVE SMOOTH",
"209 377 OFFCURVE",
"204 358 OFFCURVE",
"202 338 CURVE",
"193 289 OFFCURVE",
"183 241 OFFCURVE",
"173 192 CURVE",
"147 313 OFFCURVE",
"128 431 OFFCURVE",
"109 556 CURVE",
"109 556 LINE"
);
}
);
width = 367;
}
);
unicode = 0076;
},
{
glyphname = w;
lastChange = "2019-03-20 22:33:18 +0000";
layers = (
{
hints = (
{
horizontal = 1;
place = "{-194, 48}";
type = Stem;
},
{
horizontal = 1;
place = "{-186, 54}";
type = Stem;
},
{
horizontal = 1;
place = "{-183, 65}";
type = Stem;
},
{
horizontal = 1;
place = "{-172, 53}";
type = Stem;
},
{
horizontal = 1;
place = "{167, 49}";
type = Stem;
},
{
horizontal = 1;
place = "{167, 60}";
type = Stem;
},
{
horizontal = 1;
place = "{355, 50}";
type = Stem;
},
{
horizontal = 1;
place = "{421, -20}";
target = down;
type = TopGhost;
}
);
layerId = UUID0;
paths = (
{
closed = 1;
nodes = (
"248 219 LINE SMOOTH",
"232 268 OFFCURVE",
"222 326 OFFCURVE",
"220 366 CURVE",
"220 366 OFFCURVE",
"226 366 OFFCURVE",
"232 367 CURVE SMOOTH",
"248 369 OFFCURVE",
"258 381 OFFCURVE",
"258 395 CURVE SMOOTH",
"258 412 OFFCURVE",
"243 420 OFFCURVE",
"229 420 CURVE SMOOTH",
"194 420 OFFCURVE",
"137 420 OFFCURVE",
"137 383 CURVE",
"139 371 OFFCURVE",
"148 362 OFFCURVE",
"160 361 CURVE",
"156 335 OFFCURVE",
"143 275 OFFCURVE",
"133 234 CURVE",
"102 552 LINE",
"106 553 OFFCURVE",
"105 554 OFFCURVE",
"110 555 CURVE SMOOTH",
"122 557 OFFCURVE",
"133 568 OFFCURVE",
"133 581 CURVE SMOOTH",
"133 596 OFFCURVE",
"121 608 OFFCURVE",
"106 608 CURVE SMOOTH",
"69 608 OFFCURVE",
"11 592 OFFCURVE",
"11 567 CURVE",
"13 557 OFFCURVE",
"24 546 OFFCURVE",
"35 546 CURVE SMOOTH",
"49 546 LINE",
"62 381 OFFCURVE",
"77 222 OFFCURVE",
"94 60 CURVE",
"82 55 OFFCURVE",
"68 47 OFFCURVE",
"68 33 CURVE SMOOTH",
"68 15 OFFCURVE",
"83 8 OFFCURVE",
"96 8 CURVE",
"111 10 LINE SMOOTH",
"141 14 OFFCURVE",
"174 18 OFFCURVE",
"174 49 CURVE",
"172 60 OFFCURVE",
"161 70 OFFCURVE",
"151 72 CURVE",
"158 126 OFFCURVE",
"170 178 OFFCURVE",
"183 231 CURVE SMOOTH",
"183 233 OFFCURVE",
"184 235 OFFCURVE",
"184 237 CURVE SMOOTH",
"219 48 LINE",
"208 45 LINE SMOOTH",
"194 40 OFFCURVE",
"189 30 OFFCURVE",
"189 19 CURVE SMOOTH",
"189 2 OFFCURVE",
"205 -5 OFFCURVE",
"218 -5 CURVE SMOOTH",
"225 -5 LINE SMOOTH",
"260 -3 OFFCURVE",
"311 1 OFFCURVE",
"311 37 CURVE",
"309 48 OFFCURVE",
"297 59 OFFCURVE",
"285 59 CURVE SMOOTH",
"281 59 LINE",
"281 63 OFFCURVE",
"282 66 OFFCURVE",
"282 68 CURVE SMOOTH",
"295 191 OFFCURVE",
"314 311 OFFCURVE",
"333 432 CURVE SMOOTH",
"354 560 LINE",
"365 563 OFFCURVE",
"377 570 OFFCURVE",
"377 587 CURVE SMOOTH",
"377 601 OFFCURVE",
"365 614 OFFCURVE",
"350 614 CURVE SMOOTH",
"312 614 OFFCURVE",
"268 599 OFFCURVE",
"268 576 CURVE SMOOTH",
"268 564 OFFCURVE",
"283 553 OFFCURVE",
"293 553 CURVE SMOOTH",
"301 553 LINE",
"252 209 LINE"
);
}
);
width = 401;
}
);
unicode = 0077;
},
{
glyphname = x;
lastChange = "2019-03-20 22:33:18 +0000";
layers = (
{
hints = (
{
place = "{174, 59}";
type = Stem;
},
{
horizontal = 1;
place = "{-194, 51}";
type = Stem;
},
{
horizontal = 1;
place = "{-178, 49}";
type = Stem;
},
{
horizontal = 1;
place = "{-174, 53}";
type = Stem;
},
{
horizontal = 1;
place = "{367, 54}";
type = Stem;
}
);
layerId = UUID0;
paths = (
{
closed = 1;
nodes = (
"159 185 OFFCURVE",
"176 224 OFFCURVE",
"196 265 CURVE",
"215 200 OFFCURVE",
"235 138 OFFCURVE",
"267 62 CURVE",
"255 58 OFFCURVE",
"245 54 OFFCURVE",
"245 37 CURVE SMOOTH",
"245 20 OFFCURVE",
"259 12 OFFCURVE",
"273 12 CURVE SMOOTH",
"294 12 LINE SMOOTH",
"323 12 OFFCURVE",
"355 15 OFFCURVE",
"355 42 CURVE SMOOTH",
"355 58 OFFCURVE",
"341 69 OFFCURVE",
"327 69 CURVE SMOOTH",
"321 69 LINE",
"320 74 LINE",
"280 153 OFFCURVE",
"261 220 OFFCURVE",
"244 284 CURVE SMOOTH",
"231 334 LINE",
"229 337 OFFCURVE",
"229 338 OFFCURVE",
"229 339 CURVE SMOOTH",
"229 346 OFFCURVE",
"234 358 OFFCURVE",
"240 368 CURVE SMOOTH",
"247 381 LINE SMOOTH",
"252 390 OFFCURVE",
"259 407 OFFCURVE",
"265 424 CURVE",
"289 480 OFFCURVE",
"324 559 OFFCURVE",
"330 559 CURVE SMOOTH",
"340 559 LINE SMOOTH",
"358 559 OFFCURVE",
"376 562 OFFCURVE",
"376 586 CURVE SMOOTH",
"376 607 OFFCURVE",
"359 612 OFFCURVE",
"343 612 CURVE SMOOTH",
"307 612 OFFCURVE",
"255 609 OFFCURVE",
"255 582 CURVE SMOOTH",
"255 570 OFFCURVE",
"260 562 OFFCURVE",
"270 559 CURVE",
"261 540 OFFCURVE",
"252 520 OFFCURVE",
"245 503 CURVE SMOOTH",
"232 474 OFFCURVE",
"220 448 OFFCURVE",
"205 420 CURVE",
"204 424 LINE SMOOTH",
"192 465 OFFCURVE",
"180 505 OFFCURVE",
"161 549 CURVE",
"164 551 LINE SMOOTH",
"172 557 OFFCURVE",
"175 567 OFFCURVE",
"175 576 CURVE SMOOTH",
"174 592 OFFCURVE",
"159 600 OFFCURVE",
"145 600 CURVE",
"127 598 LINE SMOOTH",
"94 595 OFFCURVE",
"56 591 OFFCURVE",
"56 562 CURVE",
"58 543 OFFCURVE",
"73 541 OFFCURVE",
"85 541 CURVE SMOOTH",
"92 541 OFFCURVE",
"98 543 OFFCURVE",
"105 543 CURVE",
"121 499 OFFCURVE",
"134 450 OFFCURVE",
"147 407 CURVE SMOOTH",
"152 389 OFFCURVE",
"159 369 OFFCURVE",
"164 352 CURVE",
"164 346 OFFCURVE",
"164 343 OFFCURVE",
"163 342 CURVE SMOOTH",
"133 278 OFFCURVE",
"101 204 OFFCURVE",
"72 137 CURVE SMOOTH",
"34 50 LINE",
"25 48 LINE SMOOTH",
"12 46 OFFCURVE",
"3 36 OFFCURVE",
"3 23 CURVE SMOOTH",
"3 2 OFFCURVE",
"24 -3 OFFCURVE",
"47 -3 CURVE SMOOTH",
"54 -3 OFFCURVE",
"60 -2 OFFCURVE",
"67 -2 CURVE SMOOTH",
"83 -2 LINE SMOOTH",
"98 -2 OFFCURVE",
"114 7 OFFCURVE",
"114 25 CURVE SMOOTH",
"114 34 OFFCURVE",
"109 42 OFFCURVE",
"101 47 CURVE",
"116 80 OFFCURVE",
"129 112 OFFCURVE",
"143 146 CURVE SMOOTH",
"143 146 LINE"
);
}
);
width = 401;
}
);
unicode = 0078;
},
{
glyphname = y;
lastChange = "2019-03-20 22:33:18 +0000";
layers = (
{
hints = (
{
place = "{139, 50}";
type = Stem;
},
{
horizontal = 1;
place = "{-193, 52}";
type = Stem;
},
{
horizontal = 1;
place = "{364, 48}";
type = Stem;
},
{
horizontal = 1;
place = "{372, 50}";
type = Stem;
}
);
layerId = UUID0;
paths = (
{
closed = 1;
nodes = (
"117 606 OFFCURVE",
"104 612 OFFCURVE",
"87 612 CURVE",
"69 610 LINE SMOOTH",
"41 607 OFFCURVE",
"12 602 OFFCURVE",
"12 574 CURVE",
"14 561 OFFCURVE",
"22 554 OFFCURVE",
"37 554 CURVE SMOOTH",
"41 554 LINE SMOOTH",
"43 554 OFFCURVE",
"44 555 OFFCURVE",
"46 555 CURVE SMOOTH",
"53 555 LINE",
"59 535 OFFCURVE",
"65 517 OFFCURVE",
"72 500 CURVE SMOOTH",
"78 486 OFFCURVE",
"83 469 OFFCURVE",
"87 454 CURVE SMOOTH",
"136 292 LINE SMOOTH",
"137 289 OFFCURVE",
"138 285 OFFCURVE",
"138 282 CURVE SMOOTH",
"138 224 OFFCURVE",
"136 166 OFFCURVE",
"133 109 CURVE SMOOTH",
"130 43 LINE",
"116 43 OFFCURVE",
"102 34 OFFCURVE",
"102 18 CURVE SMOOTH",
"102 5 OFFCURVE",
"113 -4 OFFCURVE",
"128 -4 CURVE SMOOTH",
"153 -4 LINE SMOOTH",
"179 -4 OFFCURVE",
"205 -1 OFFCURVE",
"205 23 CURVE SMOOTH",
"205 37 OFFCURVE",
"194 48 OFFCURVE",
"180 48 CURVE",
"180 55 OFFCURVE",
"181 62 OFFCURVE",
"181 68 CURVE SMOOTH",
"185 139 OFFCURVE",
"188 205 OFFCURVE",
"188 279 CURVE SMOOTH",
"188 294 OFFCURVE",
"194 312 OFFCURVE",
"201 331 CURVE SMOOTH",
"206 342 OFFCURVE",
"209 352 OFFCURVE",
"211 360 CURVE SMOOTH",
"217 387 OFFCURVE",
"224 412 OFFCURVE",
"232 437 CURVE",
"242 475 OFFCURVE",
"254 513 OFFCURVE",
"262 552 CURVE SMOOTH",
"263 557 OFFCURVE",
"266 559 OFFCURVE",
"271 561 CURVE SMOOTH",
"281 564 OFFCURVE",
"290 569 OFFCURVE",
"290 588 CURVE",
"289 604 OFFCURVE",
"275 611 OFFCURVE",
"263 611 CURVE SMOOTH",
"234 611 OFFCURVE",
"186 599 OFFCURVE",
"186 573 CURVE",
"187 563 OFFCURVE",
"195 554 OFFCURVE",
"208 554 CURVE",
"200 516 OFFCURVE",
"193 495 OFFCURVE",
"183 462 CURVE SMOOTH",
"176 437 OFFCURVE",
"168 410 OFFCURVE",
"162 382 CURVE",
"157 399 LINE SMOOTH",
"140 451 OFFCURVE",
"126 505 OFFCURVE",
"101 563 CURVE",
"110 568 OFFCURVE",
"117 575 OFFCURVE",
"117 587 CURVE SMOOTH",
"117 587 LINE"
);
}
);
width = 309;
}
);
unicode = 0079;
},
{
glyphname = z;
lastChange = "2019-03-20 22:33:18 +0000";
layers = (
{
hints = (
{
place = "{24, 49}";
type = Stem;
},
{
place = "{358, 52}";
type = Stem;
},
{
horizontal = 1;
place = "{-194, 107}";
type = Stem;
},
{
horizontal = 1;
place = "{-166, 53}";
type = Stem;
},
{
horizontal = 1;
place = "{345, 51}";
type = Stem;
},
{
horizontal = 1;
place = "{420, -20}";
target = down;
type = TopGhost;
}
);
layerId = UUID0;
paths = (
{
closed = 1;
nodes = (
"247 367 OFFCURVE",
"146 235 OFFCURVE",
"28 53 CURVE",
"24 49 LINE SMOOTH",
"20 43 OFFCURVE",
"14 36 OFFCURVE",
"14 26 CURVE SMOOTH",
"14 11 OFFCURVE",
"24 -1 OFFCURVE",
"40 -1 CURVE SMOOTH",
"65 -1 OFFCURVE",
"79 9 OFFCURVE",
"97 11 CURVE SMOOTH",
"180 19 OFFCURVE",
"270 17 OFFCURVE",
"355 23 CURVE",
"356 11 OFFCURVE",
"359 -5 OFFCURVE",
"383 -5 CURVE SMOOTH",
"411 -5 OFFCURVE",
"411 21 OFFCURVE",
"411 40 CURVE SMOOTH",
"411 62 OFFCURVE",
"411 101 OFFCURVE",
"383 101 CURVE SMOOTH",
"366 101 OFFCURVE",
"359 87 OFFCURVE",
"357 74 CURVE",
"294 73 OFFCURVE",
"173 69 OFFCURVE",
"95 62 CURVE",
"101 74 OFFCURVE",
"109 86 OFFCURVE",
"118 97 CURVE",
"123 106 LINE",
"198 220 OFFCURVE",
"278 328 OFFCURVE",
"350 446 CURVE",
"373 489 LINE SMOOTH",
"389 519 OFFCURVE",
"419 563 OFFCURVE",
"419 577 CURVE SMOOTH",
"419 596 OFFCURVE",
"399 605 OFFCURVE",
"384 605 CURVE",
"269 596 LINE SMOOTH",
"202 591 OFFCURVE",
"139 587 OFFCURVE",
"72 584 CURVE",
"70 593 OFFCURVE",
"63 607 OFFCURVE",
"43 607 CURVE",
"21 604 OFFCURVE",
"18 571 OFFCURVE",
"18 544 CURVE SMOOTH",
"18 526 LINE SMOOTH",
"18 506 OFFCURVE",
"26 496 OFFCURVE",
"45 496 CURVE SMOOTH",
"65 496 OFFCURVE",
"68 508 OFFCURVE",
"71 528 CURVE SMOOTH",
"71 532 LINE",
"155 532 OFFCURVE",
"214 536 OFFCURVE",
"293 543 CURVE SMOOTH",
"347 548 LINE"
);
}
);
width = 443;
}
);
unicode = 007A;
},
{
glyphname = zero;
lastChange = "2019-03-20 22:33:18 +0000";
layers = (
{
hints = (
{
place = "{26, 58}";
type = Stem;
},
{
place = "{231, 57}";
type = Stem;
},
{
horizontal = 1;
place = "{-13, 57}";
type = Stem;
},
{
horizontal = 1;
place = "{496, 57}";
type = Stem;
}
);
layerId = UUID0;
paths = (
{
closed = 1;
nodes = (
"266 495 OFFCURVE",
"210 553 OFFCURVE",
"164 553 CURVE SMOOTH",
"55 553 OFFCURVE",
"33 328 OFFCURVE",
"29 257 CURVE SMOOTH",
"28 238 OFFCURVE",
"26 216 OFFCURVE",
"26 197 CURVE SMOOTH",
"26 88 OFFCURVE",
"62 -13 OFFCURVE",
"151 -13 CURVE SMOOTH",
"265 -13 OFFCURVE",
"288 159 OFFCURVE",
"288 287 CURVE SMOOTH",
"288 347 OFFCURVE",
"277 397 OFFCURVE",
"266 444 CURVE",
"266 444 LINE"
);
},
{
closed = 1;
nodes = (
"231 212 OFFCURVE",
"219 48 OFFCURVE",
"152 44 CURVE",
"99 44 OFFCURVE",
"84 110 OFFCURVE",
"84 197 CURVE SMOOTH",
"84 262 OFFCURVE",
"90 413 OFFCURVE",
"151 487 CURVE SMOOTH",
"154 491 OFFCURVE",
"159 496 OFFCURVE",
"166 496 CURVE SMOOTH",
"178 496 OFFCURVE",
"186 481 OFFCURVE",
"192 466 CURVE SMOOTH",
"194 459 OFFCURVE",
"207 444 OFFCURVE",
"207 442 CURVE",
"225 394 OFFCURVE",
"231 325 OFFCURVE",
"231 282 CURVE SMOOTH",
"231 282 LINE"
);
}
);
width = 309;
}
);
unicode = 0030;
},
{
glyphname = one;
lastChange = "2019-03-20 22:33:18 +0000";
layers = (
{
hints = (
{
place = "{89, 62}";
type = Stem;
},
{
horizontal = 1;
place = "{4, 65}";
type = Stem;
}
);
layerId = UUID0;
paths = (
{
closed = 1;
nodes = (
"211 68 OFFCURVE",
"206 69 OFFCURVE",
"200 69 CURVE SMOOTH",
"179 69 OFFCURVE",
"164 68 OFFCURVE",
"146 68 CURVE",
"146 212 OFFCURVE",
"151 375 OFFCURVE",
"151 516 CURVE SMOOTH",
"151 561 OFFCURVE",
"144 557 OFFCURVE",
"119 570 CURVE SMOOTH",
"116 571 OFFCURVE",
"113 572 OFFCURVE",
"111 572 CURVE SMOOTH",
"89 572 OFFCURVE",
"75 536 OFFCURVE",
"63 518 CURVE SMOOTH",
"49 496 OFFCURVE",
"24 466 OFFCURVE",
"23 446 CURVE SMOOTH",
"23 431 OFFCURVE",
"36 419 OFFCURVE",
"51 419 CURVE SMOOTH",
"67 419 OFFCURVE",
"80 435 OFFCURVE",
"91 457 CURVE",
"91 338 OFFCURVE",
"89 200 OFFCURVE",
"89 62 CURVE",
"84 61 LINE SMOOTH",
"53 58 OFFCURVE",
"20 60 OFFCURVE",
"20 30 CURVE SMOOTH",
"20 10 OFFCURVE",
"37 4 OFFCURVE",
"60 4 CURVE SMOOTH",
"71 4 LINE SMOOTH",
"110 4 OFFCURVE",
"151 8 OFFCURVE",
"188 11 CURVE SMOOTH",
"202 12 LINE SMOOTH",
"223 13 OFFCURVE",
"234 24 OFFCURVE",
"234 41 CURVE SMOOTH",
"234 52 OFFCURVE",
"227 62 OFFCURVE",
"215 66 CURVE SMOOTH",
"215 66 LINE"
);
}
);
width = 247;
}
);
unicode = 0031;
},
{
glyphname = two;
lastChange = "2019-03-20 22:33:18 +0000";
layers = (
{
hints = (
{
place = "{41, 95}";
type = Stem;
},
{
place = "{220, 58}";
type = Stem;
},
{
place = "{265, 56}";
type = Stem;
},
{
horizontal = 1;
place = "{36, 56}";
type = Stem;
},
{
horizontal = 1;
place = "{534, 57}";
type = Stem;
}
);
layerId = UUID0;
paths = (
{
closed = 1;
nodes = (
"274 117 OFFCURVE",
"272 105 OFFCURVE",
"265 90 CURVE",
"252 91 OFFCURVE",
"239 92 OFFCURVE",
"227 92 CURVE SMOOTH",
"185 92 OFFCURVE",
"146 84 OFFCURVE",
"105 78 CURVE",
"123 125 OFFCURVE",
"145 174 OFFCURVE",
"164 224 CURVE SMOOTH",
"168 233 LINE SMOOTH",
"193 300 OFFCURVE",
"248 418 OFFCURVE",
"271 486 CURVE SMOOTH",
"276 501 OFFCURVE",
"278 513 OFFCURVE",
"278 525 CURVE SMOOTH",
"278 565 OFFCURVE",
"256 591 OFFCURVE",
"222 591 CURVE SMOOTH",
"178 591 OFFCURVE",
"105 555 OFFCURVE",
"84 514 CURVE",
"80 516 OFFCURVE",
"73 519 OFFCURVE",
"67 519 CURVE SMOOTH",
"53 519 OFFCURVE",
"41 506 OFFCURVE",
"41 492 CURVE SMOOTH",
"41 467 OFFCURVE",
"91 431 OFFCURVE",
"108 431 CURVE SMOOTH",
"121 431 OFFCURVE",
"136 443 OFFCURVE",
"136 459 CURVE SMOOTH",
"136 466 OFFCURVE",
"134 473 OFFCURVE",
"129 478 CURVE",
"143 506 OFFCURVE",
"192 529 OFFCURVE",
"220 534 CURVE",
"220 523 LINE SMOOTH",
"220 484 OFFCURVE",
"190 433 OFFCURVE",
"180 408 CURVE SMOOTH",
"135 300 OFFCURVE",
"74 146 OFFCURVE",
"24 44 CURVE SMOOTH",
"23 41 OFFCURVE",
"23 38 OFFCURVE",
"23 35 CURVE SMOOTH",
"23 21 OFFCURVE",
"34 7 OFFCURVE",
"50 7 CURVE SMOOTH",
"65 7 OFFCURVE",
"78 17 OFFCURVE",
"91 17 CURVE",
"96 18 LINE SMOOTH",
"137 25 OFFCURVE",
"186 36 OFFCURVE",
"227 36 CURVE SMOOTH",
"238 36 OFFCURVE",
"263 36 OFFCURVE",
"263 27 CURVE",
"265 11 OFFCURVE",
"276 -1 OFFCURVE",
"292 -1 CURVE SMOOTH",
"317 -1 OFFCURVE",
"321 25 OFFCURVE",
"321 53 CURVE SMOOTH",
"321 67 OFFCURVE",
"320 82 OFFCURVE",
"320 94 CURVE",
"316 108 OFFCURVE",
"306 117 OFFCURVE",
"293 117 CURVE SMOOTH",
"293 117 LINE"
);
}
);
width = 339;
}
);
unicode = 0032;
},
{
glyphname = three;
lastChange = "2019-03-20 22:33:18 +0000";
layers = (
{
hints = (
{
place = "{20, 11}";
type = Stem;
},
{
place = "{53, 88}";
type = Stem;
},
{
place = "{254, 57}";
type = Stem;
},
{
place = "{275, 57}";
type = Stem;
},
{
horizontal = 1;
place = "{1, 56}";
type = Stem;
},
{
horizontal = 1;
place = "{242, 97}";
type = Stem;
},
{
horizontal = 1;
place = "{512, 57}";
type = Stem;
}
);
layerId = UUID0;
paths = (
{
closed = 1;
nodes = (
"287 309 OFFCURVE",
"274 324 OFFCURVE",
"254 332 CURVE",
"297 371 OFFCURVE",
"311 413 OFFCURVE",
"311 458 CURVE SMOOTH",
"311 520 OFFCURVE",
"281 569 OFFCURVE",
"205 569 CURVE SMOOTH",
"159 569 OFFCURVE",
"121 548 OFFCURVE",
"94 511 CURVE",
"89 514 OFFCURVE",
"84 516 OFFCURVE",
"77 516 CURVE SMOOTH",
"64 516 OFFCURVE",
"53 503 OFFCURVE",
"53 490 CURVE SMOOTH",
"53 461 OFFCURVE",
"107 428 OFFCURVE",
"113 428 CURVE SMOOTH",
"128 428 OFFCURVE",
"141 440 OFFCURVE",
"141 456 CURVE SMOOTH",
"141 462 OFFCURVE",
"139 471 OFFCURVE",
"135 475 CURVE",
"155 499 OFFCURVE",
"177 512 OFFCURVE",
"204 512 CURVE SMOOTH",
"235 512 OFFCURVE",
"254 500 OFFCURVE",
"254 460 CURVE SMOOTH",
"254 414 OFFCURVE",
"235 395 OFFCURVE",
"201 362 CURVE SMOOTH",
"191 352 LINE SMOOTH",
"178 339 OFFCURVE",
"162 331 OFFCURVE",
"141 325 CURVE",
"134 334 OFFCURVE",
"126 339 OFFCURVE",
"118 339 CURVE SMOOTH",
"99 339 OFFCURVE",
"91 323 OFFCURVE",
"91 306 CURVE SMOOTH",
"91 279 OFFCURVE",
"95 242 OFFCURVE",
"126 242 CURVE SMOOTH",
"145 242 OFFCURVE",
"144 259 OFFCURVE",
"162 267 CURVE SMOOTH",
"189 278 OFFCURVE",
"193 283 OFFCURVE",
"220 283 CURVE SMOOTH",
"270 283 OFFCURVE",
"275 198 OFFCURVE",
"275 186 CURVE SMOOTH",
"275 140 OFFCURVE",
"254 57 OFFCURVE",
"187 57 CURVE SMOOTH",
"130 57 OFFCURVE",
"101 135 OFFCURVE",
"101 152 CURVE",
"118 156 OFFCURVE",
"131 170 OFFCURVE",
"131 184 CURVE SMOOTH",
"131 200 OFFCURVE",
"117 211 OFFCURVE",
"103 211 CURVE SMOOTH",
"78 211 OFFCURVE",
"27 181 OFFCURVE",
"31 184 CURVE SMOOTH",
"24 178 OFFCURVE",
"20 171 OFFCURVE",
"20 163 CURVE SMOOTH",
"20 144 OFFCURVE",
"45 137 OFFCURVE",
"45 135 CURVE SMOOTH",
"57 62 OFFCURVE",
"127 1 OFFCURVE",
"188 1 CURVE SMOOTH",
"272 1 OFFCURVE",
"332 87 OFFCURVE",
"332 186 CURVE SMOOTH",
"332 228 OFFCURVE",
"322 267 OFFCURVE",
"298 295 CURVE SMOOTH",
"298 295 LINE"
);
}
);
width = 352;
}
);
unicode = 0033;
},
{
glyphname = four;
lastChange = "2019-03-20 22:33:18 +0000";
layers = (
{
hints = (
{
place = "{31, 61}";
type = Stem;
},
{
place = "{149, 60}";
type = Stem;
},
{
place = "{153, 58}";
type = Stem;
},
{
horizontal = 1;
place = "{270, 60}";
type = Stem;
},
{
horizontal = 1;
place = "{274, 58}";
type = Stem;
},
{
horizontal = 1;
place = "{508, 57}";
type = Stem;
}
);
layerId = UUID0;
paths = (
{
closed = 1;
nodes = (
"304 333 OFFCURVE",
"307 353 OFFCURVE",
"284 353 CURVE SMOOTH",
"266 353 OFFCURVE",
"268 343 OFFCURVE",
"257 332 CURVE",
"209 332 LINE",
"209 508 LINE",
"222 508 OFFCURVE",
"234 525 OFFCURVE",
"234 538 CURVE SMOOTH",
"234 554 OFFCURVE",
"221 565 OFFCURVE",
"205 565 CURVE SMOOTH",
"167 565 OFFCURVE",
"125 560 OFFCURVE",
"125 529 CURVE",
"126 517 OFFCURVE",
"136 505 OFFCURVE",
"149 505 CURVE",
"149 332 LINE",
"89 329 LINE",
"89 374 OFFCURVE",
"92 419 OFFCURVE",
"92 465 CURVE SMOOTH",
"92 480 OFFCURVE",
"92 496 OFFCURVE",
"91 512 CURVE",
"107 517 OFFCURVE",
"118 524 OFFCURVE",
"118 540 CURVE SMOOTH",
"118 555 OFFCURVE",
"108 567 OFFCURVE",
"93 569 CURVE",
"87 569 OFFCURVE",
"80 569 OFFCURVE",
"74 568 CURVE SMOOTH",
"46 564 OFFCURVE",
"4 568 OFFCURVE",
"4 536 CURVE SMOOTH",
"4 522 OFFCURVE",
"16 509 OFFCURVE",
"35 509 CURVE",
"35 441 OFFCURVE",
"31 373 OFFCURVE",
"31 309 CURVE SMOOTH",
"31 284 OFFCURVE",
"41 270 OFFCURVE",
"65 270 CURVE SMOOTH",
"98 270 OFFCURVE",
"123 274 OFFCURVE",
"153 274 CURVE",
"153 54 LINE",
"142 47 OFFCURVE",
"132 43 OFFCURVE",
"132 27 CURVE SMOOTH",
"132 12 OFFCURVE",
"146 1 OFFCURVE",
"162 1 CURVE SMOOTH",
"168 1 LINE SMOOTH",
"179 0 OFFCURVE",
"191 0 OFFCURVE",
"202 0 CURVE SMOOTH",
"221 0 OFFCURVE",
"237 10 OFFCURVE",
"237 28 CURVE SMOOTH",
"237 44 OFFCURVE",
"229 49 OFFCURVE",
"214 57 CURVE",
"212 81 OFFCURVE",
"211 161 OFFCURVE",
"211 219 CURVE SMOOTH",
"211 243 OFFCURVE",
"211 263 OFFCURVE",
"212 274 CURVE",
"259 274 LINE",
"264 263 OFFCURVE",
"273 257 OFFCURVE",
"284 257 CURVE SMOOTH",
"302 257 OFFCURVE",
"312 272 OFFCURVE",
"312 287 CURVE SMOOTH",
"312 297 OFFCURVE",
"311 308 OFFCURVE",
"311 318 CURVE",
"311 318 LINE"
);
}
);
width = 335;
}
);
unicode = 0034;
},
{
glyphname = five;
lastChange = "2019-03-20 22:33:18 +0000";
layers = (
{
hints = (
{
place = "{31, 56}";
type = Stem;
},
{
place = "{99, 58}";
type = Stem;
},
{
place = "{266, 57}";
type = Stem;
},
{
place = "{287, 57}";
type = Stem;
},
{
horizontal = 1;
place = "{3, 56}";
type = Stem;
},
{
horizontal = 1;
place = "{137, 56}";
type = Stem;
},
{
horizontal = 1;
place = "{309, 57}";
type = Stem;
},
{
horizontal = 1;
place = "{480, 117}";
type = Stem;
}
);
layerId = UUID0;
paths = (
{
closed = 1;
nodes = (
"235 365 OFFCURVE",
"226 366 OFFCURVE",
"216 366 CURVE SMOOTH",
"195 366 OFFCURVE",
"173 360 OFFCURVE",
"151 350 CURVE",
"151 353 OFFCURVE",
"152 356 OFFCURVE",
"152 359 CURVE SMOOTH",
"155 393 OFFCURVE",
"157 424 OFFCURVE",
"157 454 CURVE SMOOTH",
"157 463 OFFCURVE",
"156 472 OFFCURVE",
"156 481 CURVE",
"266 508 LINE",
"266 491 OFFCURVE",
"281 480 OFFCURVE",
"295 480 CURVE SMOOTH",
"321 480 OFFCURVE",
"323 503 OFFCURVE",
"323 530 CURVE",
"320 560 OFFCURVE",
"327 597 OFFCURVE",
"294 597 CURVE SMOOTH",
"264 597 OFFCURVE",
"282 568 OFFCURVE",
"228 556 CURVE SMOOTH",
"166 541 OFFCURVE",
"92 543 OFFCURVE",
"92 509 CURVE SMOOTH",
"92 492 OFFCURVE",
"99 470 OFFCURVE",
"99 451 CURVE SMOOTH",
"99 399 OFFCURVE",
"86 341 OFFCURVE",
"86 279 CURVE SMOOTH",
"86 262 OFFCURVE",
"96 247 OFFCURVE",
"114 247 CURVE SMOOTH",
"140 247 OFFCURVE",
"158 309 OFFCURVE",
"217 309 CURVE SMOOTH",
"259 309 OFFCURVE",
"287 271 OFFCURVE",
"287 230 CURVE SMOOTH",
"287 165 OFFCURVE",
"238 59 OFFCURVE",
"163 59 CURVE SMOOTH",
"129 59 OFFCURVE",
"87 85 OFFCURVE",
"87 130 CURVE SMOOTH",
"87 132 OFFCURVE",
"93 137 OFFCURVE",
"97 137 CURVE",
"111 144 OFFCURVE",
"120 152 OFFCURVE",
"120 165 CURVE SMOOTH",
"120 181 OFFCURVE",
"107 193 OFFCURVE",
"92 193 CURVE SMOOTH",
"59 193 OFFCURVE",
"14 173 OFFCURVE",
"14 150 CURVE SMOOTH",
"14 136 OFFCURVE",
"31 136 OFFCURVE",
"31 124 CURVE SMOOTH",
"31 29 OFFCURVE",
"125 3 OFFCURVE",
"162 3 CURVE SMOOTH",
"261 3 OFFCURVE",
"344 126 OFFCURVE",
"344 224 CURVE SMOOTH",
"344 297 OFFCURVE",
"303 350 OFFCURVE",
"244 363 CURVE SMOOTH",
"244 363 LINE"
);
}
);
width = 360;
}
);
unicode = 0035;
},
{
glyphname = six;
lastChange = "2019-03-20 22:33:18 +0000";
layers = (
{
hints = (
{
place = "{17, 61}";
type = Stem;
},
{
place = "{39, 130}";
type = Stem;
},
{
place = "{210, 57}";
type = Stem;
},
{
horizontal = 1;
place = "{-12, 57}";
type = Stem;
},
{
horizontal = 1;
place = "{266, 57}";
type = Stem;
},
{
horizontal = 1;
place = "{527, 58}";
type = Stem;
}
);
layerId = UUID0;
paths = (
{
closed = 1;
nodes = (
"143 323 OFFCURVE",
"102 268 OFFCURVE",
"78 230 CURVE",
"84 339 OFFCURVE",
"98 436 OFFCURVE",
"126 527 CURVE",
"152 527 OFFCURVE",
"169 535 OFFCURVE",
"169 558 CURVE SMOOTH",
"169 574 OFFCURVE",
"155 584 OFFCURVE",
"141 584 CURVE SMOOTH",
"132 584 OFFCURVE",
"119 585 OFFCURVE",
"105 585 CURVE SMOOTH",
"74 585 OFFCURVE",
"39 581 OFFCURVE",
"39 555 CURVE SMOOTH",
"39 540 OFFCURVE",
"51 527 OFFCURVE",
"67 527 CURVE",
"32 417 OFFCURVE",
"17 289 OFFCURVE",
"17 171 CURVE SMOOTH",
"17 116 OFFCURVE",
"19 -12 OFFCURVE",
"125 -12 CURVE SMOOTH",
"213 -12 OFFCURVE",
"267 104 OFFCURVE",
"267 222 CURVE SMOOTH",
"267 277 OFFCURVE",
"251 323 OFFCURVE",
"200 323 CURVE SMOOTH",
"200 323 LINE"
);
},
{
closed = 1;
nodes = (
"94 45 OFFCURVE",
"81 81 OFFCURVE",
"78 106 CURVE",
"78 107 OFFCURVE",
"78 108 OFFCURVE",
"79 109 CURVE SMOOTH",
"85 120 LINE",
"114 184 OFFCURVE",
"154 266 OFFCURVE",
"203 266 CURVE SMOOTH",
"209 266 OFFCURVE",
"210 235 OFFCURVE",
"210 223 CURVE SMOOTH",
"210 171 OFFCURVE",
"190 45 OFFCURVE",
"124 45 CURVE SMOOTH",
"124 45 LINE"
);
}
);
width = 291;
}
);
unicode = 0036;
},
{
glyphname = seven;
lastChange = "2019-03-20 22:33:18 +0000";
layers = (
{
hints = (
{
place = "{41, 55}";
type = Stem;
},
{
place = "{116, 119}";
type = Stem;
},
{
horizontal = 1;
place = "{10, 54}";
type = Stem;
},
{
horizontal = 1;
place = "{412, 56}";
type = Stem;
},
{
horizontal = 1;
place = "{492, 58}";
type = Stem;
},
{
horizontal = 1;
place = "{508, 60}";
type = Stem;
}
);
layerId = UUID0;
paths = (
{
closed = 1;
nodes = (
"230 568 OFFCURVE",
"168 550 OFFCURVE",
"111 550 CURVE SMOOTH",
"72 550 OFFCURVE",
"41 545 OFFCURVE",
"41 508 CURVE SMOOTH",
"41 491 LINE SMOOTH",
"41 479 OFFCURVE",
"40 467 OFFCURVE",
"30 464 CURVE SMOOTH",
"19 461 OFFCURVE",
"13 451 OFFCURVE",
"13 438 CURVE SMOOTH",
"13 415 OFFCURVE",
"36 412 OFFCURVE",
"60 412 CURVE SMOOTH",
"86 412 LINE SMOOTH",
"105 412 OFFCURVE",
"117 426 OFFCURVE",
"117 441 CURVE SMOOTH",
"117 451 OFFCURVE",
"109 468 OFFCURVE",
"95 468 CURVE",
"98 492 LINE",
"167 492 OFFCURVE",
"207 508 OFFCURVE",
"262 508 CURVE",
"259 505 OFFCURVE",
"254 479 OFFCURVE",
"252 470 CURVE SMOOTH",
"244 442 LINE SMOOTH",
"205 312 OFFCURVE",
"165 177 OFFCURVE",
"147 64 CURVE",
"126 64 OFFCURVE",
"116 48 OFFCURVE",
"116 34 CURVE SMOOTH",
"116 18 OFFCURVE",
"129 10 OFFCURVE",
"145 10 CURVE SMOOTH",
"177 10 OFFCURVE",
"235 11 OFFCURVE",
"235 46 CURVE SMOOTH",
"235 64 OFFCURVE",
"205 73 OFFCURVE",
"206 77 CURVE SMOOTH",
"217 134 OFFCURVE",
"230 194 OFFCURVE",
"247 249 CURVE SMOOTH",
"252 265 LINE SMOOTH",
"272 339 OFFCURVE",
"295 423 OFFCURVE",
"317 497 CURVE SMOOTH",
"321 510 OFFCURVE",
"324 522 OFFCURVE",
"324 533 CURVE SMOOTH",
"324 537 LINE SMOOTH",
"324 555 OFFCURVE",
"313 566 OFFCURVE",
"293 568 CURVE",
"293 568 LINE"
);
}
);
width = 348;
}
);
unicode = 0037;
},
{
glyphname = eight;
lastChange = "2019-03-20 22:33:18 +0000";
layers = (
{
hints = (
{
place = "{18, 56}";
type = Stem;
},
{
place = "{56, 57}";
type = Stem;
},
{
place = "{200, 57}";
type = Stem;
},
{
place = "{200, 66}";
type = Stem;
},
{
horizontal = 1;
place = "{-2, 57}";
type = Stem;
},
{
horizontal = 1;
place = "{528, 57}";
type = Stem;
}
);
layerId = UUID0;
paths = (
{
closed = 1;
nodes = (
"239 547 OFFCURVE",
"194 585 OFFCURVE",
"139 585 CURVE SMOOTH",
"63 585 OFFCURVE",
"18 516 OFFCURVE",
"18 445 CURVE SMOOTH",
"18 387 OFFCURVE",
"70 326 OFFCURVE",
"104 281 CURVE SMOOTH",
"106 278 OFFCURVE",
"107 276 OFFCURVE",
"107 275 CURVE SMOOTH",
"107 272 OFFCURVE",
"96 253 OFFCURVE",
"96 249 CURVE",
"76 199 OFFCURVE",
"56 150 OFFCURVE",
"56 97 CURVE SMOOTH",
"56 43 OFFCURVE",
"91 -2 OFFCURVE",
"143 -2 CURVE SMOOTH",
"209 -2 OFFCURVE",
"257 52 OFFCURVE",
"257 108 CURVE SMOOTH",
"257 167 OFFCURVE",
"213 229 OFFCURVE",
"178 275 CURVE SMOOTH",
"175 279 OFFCURVE",
"174 282 OFFCURVE",
"174 284 CURVE SMOOTH",
"174 294 OFFCURVE",
"196 328 OFFCURVE",
"200 336 CURVE SMOOTH",
"218 370 OFFCURVE",
"236 404 OFFCURVE",
"249 441 CURVE",
"249 447 OFFCURVE",
"266 454 OFFCURVE",
"266 469 CURVE SMOOTH",
"266 476 OFFCURVE",
"265 485 OFFCURVE",
"262 493 CURVE SMOOTH",
"262 493 LINE"
);
},
{
closed = 1;
nodes = (
"103 367 OFFCURVE",
"74 420 OFFCURVE",
"74 451 CURVE SMOOTH",
"74 486 OFFCURVE",
"98 528 OFFCURVE",
"140 528 CURVE SMOOTH",
"167 528 OFFCURVE",
"200 503 OFFCURVE",
"200 481 CURVE",
"187 430 OFFCURVE",
"163 381 OFFCURVE",
"135 335 CURVE",
"135 335 LINE"
);
},
{
closed = 1;
nodes = (
"193 147 OFFCURVE",
"200 127 OFFCURVE",
"200 108 CURVE SMOOTH",
"200 80 OFFCURVE",
"177 55 OFFCURVE",
"141 55 CURVE SMOOTH",
"123 55 OFFCURVE",
"113 73 OFFCURVE",
"113 101 CURVE SMOOTH",
"113 140 OFFCURVE",
"130 181 OFFCURVE",
"147 222 CURVE",
"156 203 OFFCURVE",
"169 187 OFFCURVE",
"181 168 CURVE SMOOTH",
"181 168 LINE"
);
}
);
width = 281;
}
);
unicode = 0038;
},
{
glyphname = nine;
lastChange = "2019-03-20 22:33:18 +0000";
layers = (
{
hints = (
{
place = "{8, 58}";
type = Stem;
},
{
place = "{203, 57}";
type = Stem;
},
{
horizontal = 1;
place = "{-22, 65}";
type = Stem;
},
{
horizontal = 1;
place = "{309, 57}";
type = Stem;
},
{
horizontal = 1;
place = "{533, 58}";
type = Stem;
}
);
layerId = UUID0;
paths = (
{
closed = 1;
nodes = (
"292 44 OFFCURVE",
"287 44 OFFCURVE",
"284 43 CURVE",
"277 43 OFFCURVE",
"273 42 OFFCURVE",
"268 41 CURVE",
"262 57 OFFCURVE",
"262 93 OFFCURVE",
"262 120 CURVE SMOOTH",
"262 138 LINE SMOOTH",
"261 178 OFFCURVE",
"260 222 OFFCURVE",
"260 278 CURVE SMOOTH",
"260 336 OFFCURVE",
"271 423 OFFCURVE",
"271 505 CURVE SMOOTH",
"271 557 OFFCURVE",
"211 591 OFFCURVE",
"162 591 CURVE SMOOTH",
"77 591 OFFCURVE",
"8 512 OFFCURVE",
"8 415 CURVE SMOOTH",
"8 357 OFFCURVE",
"48 309 OFFCURVE",
"112 309 CURVE SMOOTH",
"147 309 OFFCURVE",
"177 322 OFFCURVE",
"205 349 CURVE",
"205 321 OFFCURVE",
"203 293 OFFCURVE",
"203 264 CURVE SMOOTH",
"203 243 LINE SMOOTH",
"203 173 OFFCURVE",
"203 104 OFFCURVE",
"211 32 CURVE",
"191 28 OFFCURVE",
"182 21 OFFCURVE",
"182 2 CURVE SMOOTH",
"182 -16 OFFCURVE",
"198 -22 OFFCURVE",
"217 -22 CURVE",
"258 -17 OFFCURVE",
"323 -20 OFFCURVE",
"323 16 CURVE SMOOTH",
"323 31 OFFCURVE",
"311 43 OFFCURVE",
"296 44 CURVE SMOOTH",
"296 44 LINE"
);
},
{
closed = 1;
nodes = (
"77 368 OFFCURVE",
"66 392 OFFCURVE",
"66 414 CURVE SMOOTH",
"66 479 OFFCURVE",
"105 533 OFFCURVE",
"164 533 CURVE SMOOTH",
"178 533 OFFCURVE",
"212 524 OFFCURVE",
"212 511 CURVE SMOOTH",
"212 441 OFFCURVE",
"170 366 OFFCURVE",
"104 366 CURVE",
"104 366 LINE"
);
}
);
width = 335;
}
);
unicode = 0039;
},
{
glyphname = period;
lastChange = "2019-03-20 22:33:18 +0000";
layers = (
{
hints = (
{
place = "{10, 72}";
type = Stem;
},
{
horizontal = 1;
place = "{-3, 76}";
type = Stem;
}
);
layerId = UUID0;
paths = (
{
closed = 1;
nodes = (
"26 73 OFFCURVE",
"10 54 OFFCURVE",
"10 36 CURVE SMOOTH",
"10 10 OFFCURVE",
"28 -3 OFFCURVE",
"46 -3 CURVE SMOOTH",
"69 -3 OFFCURVE",
"82 16 OFFCURVE",
"82 35 CURVE SMOOTH",
"82 54 OFFCURVE",
"68 73 OFFCURVE",
"45 73 CURVE SMOOTH",
"45 73 LINE"
);
}
);
width = 96;
}
);
unicode = 002E;
},
{
glyphname = comma;
lastChange = "2019-03-20 22:33:18 +0000";
layers = (
{
hints = (
{
place = "{38, 57}";
type = Stem;
},
{
horizontal = 1;
place = "{-63, 191}";
type = Stem;
}
);
layerId = UUID0;
paths = (
{
closed = 1;
nodes = (
"79 120 OFFCURVE",
"69 128 OFFCURVE",
"57 128 CURVE SMOOTH",
"34 128 OFFCURVE",
"31 109 OFFCURVE",
"31 91 CURVE",
"34 70 OFFCURVE",
"38 53 OFFCURVE",
"38 32 CURVE SMOOTH",
"38 6 OFFCURVE",
"20 -20 OFFCURVE",
"20 -36 CURVE SMOOTH",
"20 -51 OFFCURVE",
"32 -63 OFFCURVE",
"48 -63 CURVE SMOOTH",
"80 -63 OFFCURVE",
"95 -7 OFFCURVE",
"95 35 CURVE SMOOTH",
"95 55 OFFCURVE",
"92 77 OFFCURVE",
"84 105 CURVE SMOOTH",
"84 105 LINE"
);
}
);
width = 113;
}
);
unicode = 002C;
},
{
glyphname = colon;
lastChange = "2019-03-20 22:33:18 +0000";
layers = (
{
hints = (
{
place = "{9, 77}";
type = Stem;
},
{
place = "{15, 79}";
type = Stem;
},
{
horizontal = 1;
place = "{4, 83}";
type = Stem;
},
{
horizontal = 1;
place = "{266, 80}";
type = Stem;
}
);
layerId = UUID0;
paths = (
{
closed = 1;
nodes = (
"32 8 OFFCURVE",
"41 4 OFFCURVE",
"52 4 CURVE SMOOTH",
"74 4 OFFCURVE",
"94 24 OFFCURVE",
"94 47 CURVE SMOOTH",
"94 70 OFFCURVE",
"75 87 OFFCURVE",
"50 87 CURVE SMOOTH",
"28 87 OFFCURVE",
"15 67 OFFCURVE",
"15 41 CURVE SMOOTH",
"15 31 OFFCURVE",
"19 22 OFFCURVE",
"26 15 CURVE SMOOTH",
"26 15 LINE"
);
},
{
closed = 1;
nodes = (
"30 268 OFFCURVE",
"36 266 OFFCURVE",
"42 266 CURVE SMOOTH",
"66 266 OFFCURVE",
"86 288 OFFCURVE",
"86 311 CURVE SMOOTH",
"86 329 OFFCURVE",
"72 346 OFFCURVE",
"51 346 CURVE SMOOTH",
"22 346 OFFCURVE",
"9 321 OFFCURVE",
"9 301 CURVE SMOOTH",
"9 288 OFFCURVE",
"15 277 OFFCURVE",
"25 271 CURVE SMOOTH",
"25 271 LINE"
);
}
);
width = 170;
}
);
unicode = 003A;
},
{
glyphname = semicolon;
lastChange = "2019-03-20 22:33:18 +0000";
layers = (
{
hints = (
{
place = "{21, 72}";
type = Stem;
},
{
place = "{38, 57}";
type = Stem;
},
{
horizontal = 1;
place = "{280, 76}";
type = Stem;
}
);
layerId = UUID0;
paths = (
{
closed = 1;
nodes = (
"79 120 OFFCURVE",
"69 128 OFFCURVE",
"57 128 CURVE SMOOTH",
"34 128 OFFCURVE",
"31 109 OFFCURVE",
"31 91 CURVE",
"34 70 OFFCURVE",
"38 53 OFFCURVE",
"38 32 CURVE SMOOTH",
"38 6 OFFCURVE",
"20 -20 OFFCURVE",
"20 -36 CURVE SMOOTH",
"20 -51 OFFCURVE",
"32 -63 OFFCURVE",
"48 -63 CURVE SMOOTH",
"80 -63 OFFCURVE",
"95 -7 OFFCURVE",
"95 35 CURVE SMOOTH",
"95 55 OFFCURVE",
"92 77 OFFCURVE",
"84 105 CURVE SMOOTH",
"84 105 LINE"
);
},
{
closed = 1;
nodes = (
"37 356 OFFCURVE",
"21 337 OFFCURVE",
"21 319 CURVE SMOOTH",
"21 293 OFFCURVE",
"39 280 OFFCURVE",
"57 280 CURVE SMOOTH",
"80 280 OFFCURVE",
"93 299 OFFCURVE",
"93 318 CURVE SMOOTH",
"93 337 OFFCURVE",
"79 356 OFFCURVE",
"56 356 CURVE SMOOTH",
"56 356 LINE"
);
}
);
width = 124;
}
);
unicode = 003B;
},
{
glyphname = exclam;
lastChange = "2019-03-20 22:33:18 +0000";
layers = (
{
hints = (
{
place = "{81, 80}";
type = Stem;
},
{
place = "{84, 67}";
type = Stem;
},
{
horizontal = 1;
place = "{-16, 83}";
type = Stem;
},
{
horizontal = 1;
place = "{111, 64}";
type = Stem;
},
{
horizontal = 1;
place = "{605, 65}";
type = Stem;
}
);
layerId = UUID0;
paths = (
{
closed = 1;
nodes = (
"153 293 OFFCURVE",
"151 357 OFFCURVE",
"151 443 CURVE SMOOTH",
"151 488 OFFCURVE",
"151 540 OFFCURVE",
"154 608 CURVE",
"168 617 OFFCURVE",
"172 628 OFFCURVE",
"172 638 CURVE SMOOTH",
"172 657 OFFCURVE",
"158 670 OFFCURVE",
"139 670 CURVE SMOOTH",
"115 670 LINE SMOOTH",
"83 670 OFFCURVE",
"48 667 OFFCURVE",
"48 637 CURVE SMOOTH",
"48 617 OFFCURVE",
"65 605 OFFCURVE",
"87 605 CURVE",
"85 535 OFFCURVE",
"84 495 OFFCURVE",
"84 459 CURVE SMOOTH",
"84 408 OFFCURVE",
"85 301 OFFCURVE",
"88 176 CURVE",
"68 171 OFFCURVE",
"54 165 OFFCURVE",
"54 144 CURVE SMOOTH",
"54 116 OFFCURVE",
"86 111 OFFCURVE",
"115 111 CURVE SMOOTH",
"128 111 OFFCURVE",
"140 112 OFFCURVE",
"148 112 CURVE",
"165 114 OFFCURVE",
"179 127 OFFCURVE",
"179 145 CURVE SMOOTH",
"179 156 OFFCURVE",
"173 167 OFFCURVE",
"161 174 CURVE SMOOTH",
"155 177 LINE"
);
},
{
closed = 1;
nodes = (
"95 67 OFFCURVE",
"81 50 OFFCURVE",
"81 28 CURVE SMOOTH",
"81 2 OFFCURVE",
"99 -16 OFFCURVE",
"121 -16 CURVE SMOOTH",
"141 -16 OFFCURVE",
"161 3 OFFCURVE",
"161 25 CURVE SMOOTH",
"161 46 OFFCURVE",
"142 67 OFFCURVE",
"117 67 CURVE SMOOTH",
"117 67 LINE"
);
}
);
width = 204;
}
);
unicode = 0021;
},
{
glyphname = question;
lastChange = "2019-03-20 22:33:18 +0000";
layers = (
{
hints = (
{
place = "{26, 80}";
type = Stem;
},
{
place = "{93, 58}";
type = Stem;
},
{
place = "{110, 71}";
type = Stem;
},
{
place = "{231, 57}";
type = Stem;
},
{
horizontal = 1;
place = "{-28, 79}";
type = Stem;
},
{
horizontal = 1;
place = "{80, 64}";
type = Stem;
},
{
horizontal = 1;
place = "{588, 56}";
type = Stem;
}
);
layerId = UUID0;
paths = (
{
closed = 1;
nodes = (
"241 636 OFFCURVE",
"213 644 OFFCURVE",
"173 644 CURVE SMOOTH",
"129 644 OFFCURVE",
"90 630 OFFCURVE",
"62 600 CURVE",
"59 601 OFFCURVE",
"55 602 OFFCURVE",
"51 602 CURVE SMOOTH",
"41 602 OFFCURVE",
"26 592 OFFCURVE",
"26 576 CURVE SMOOTH",
"26 549 OFFCURVE",
"69 511 OFFCURVE",
"78 511 CURVE SMOOTH",
"95 511 OFFCURVE",
"106 526 OFFCURVE",
"106 540 CURVE SMOOTH",
"106 549 OFFCURVE",
"101 561 OFFCURVE",
"101 561 CURVE",
"102 561 OFFCURVE",
"102 563 OFFCURVE",
"108 567 CURVE SMOOTH",
"130 582 OFFCURVE",
"153 588 OFFCURVE",
"181 588 CURVE SMOOTH",
"219 588 OFFCURVE",
"231 549 OFFCURVE",
"231 516 CURVE SMOOTH",
"231 476 OFFCURVE",
"213 450 OFFCURVE",
"161 392 CURVE SMOOTH",
"114 340 OFFCURVE",
"93 281 OFFCURVE",
"93 208 CURVE SMOOTH",
"93 181 OFFCURVE",
"102 153 OFFCURVE",
"102 128 CURVE",
"97 124 OFFCURVE",
"90 117 OFFCURVE",
"90 107 CURVE SMOOTH",
"90 91 OFFCURVE",
"105 80 OFFCURVE",
"118 80 CURVE SMOOTH",
"151 80 OFFCURVE",
"185 91 OFFCURVE",
"185 118 CURVE",
"184 130 OFFCURVE",
"173 144 OFFCURVE",
"158 144 CURVE",
"153 163 OFFCURVE",
"151 184 OFFCURVE",
"151 209 CURVE SMOOTH",
"151 266 OFFCURVE",
"165 312 OFFCURVE",
"200 352 CURVE SMOOTH",
"236 393 OFFCURVE",
"288 440 OFFCURVE",
"288 519 CURVE SMOOTH",
"288 549 OFFCURVE",
"279 577 OFFCURVE",
"262 605 CURVE",
"262 605 LINE"
);
},
{
closed = 1;
nodes = (
"181 33 OFFCURVE",
"164 51 OFFCURVE",
"148 51 CURVE SMOOTH",
"129 51 OFFCURVE",
"110 35 OFFCURVE",
"110 14 CURVE SMOOTH",
"110 -13 OFFCURVE",
"126 -28 OFFCURVE",
"149 -28 CURVE SMOOTH",
"167 -28 OFFCURVE",
"182 -13 OFFCURVE",
"182 4 CURVE SMOOTH",
"182 8 OFFCURVE",
"181 12 OFFCURVE",
"181 16 CURVE SMOOTH",
"181 16 LINE"
);
}
);
width = 309;
}
);
unicode = 003F;
},
{
glyphname = bullet;
lastChange = "2019-03-20 22:33:18 +0000";
layers = (
{
layerId = UUID0;
paths = (
{
closed = 1;
nodes = (
"59 393 OFFCURVE",
"33 362 OFFCURVE",
"33 334 CURVE SMOOTH",
"33 292 OFFCURVE",
"62 271 OFFCURVE",
"91 271 CURVE SMOOTH",
"128 271 OFFCURVE",
"148 301 OFFCURVE",
"148 332 CURVE SMOOTH",
"148 362 OFFCURVE",
"126 393 OFFCURVE",
"89 393 CURVE SMOOTH",
"89 393 LINE"
);
}
);
width = 194;
}
);
unicode = 2022;
},
{
glyphname = asterisk;
lastChange = "2019-03-20 22:33:18 +0000";
layers = (
{
hints = (
{
place = "{17, 227}";
type = Stem;
},
{
horizontal = 1;
place = "{464, 53}";
type = Stem;
}
);
layerId = UUID0;
paths = (
{
closed = 1;
nodes = (
"190 468 OFFCURVE",
"244 466 OFFCURVE",
"244 494 CURVE SMOOTH",
"244 507 OFFCURVE",
"235 517 OFFCURVE",
"221 517 CURVE SMOOTH",
"200 517 OFFCURVE",
"178 513 OFFCURVE",
"156 512 CURVE",
"164 538 OFFCURVE",
"179 567 OFFCURVE",
"179 583 CURVE SMOOTH",
"179 595 OFFCURVE",
"172 605 OFFCURVE",
"159 605 CURVE SMOOTH",
"136 605 OFFCURVE",
"128 572 OFFCURVE",
"113 535 CURVE",
"106 547 OFFCURVE",
"84 596 OFFCURVE",
"61 596 CURVE SMOOTH",
"50 596 OFFCURVE",
"40 586 OFFCURVE",
"40 576 CURVE SMOOTH",
"40 565 OFFCURVE",
"63 528 OFFCURVE",
"76 503 CURVE",
"75 503 OFFCURVE",
"74 502 OFFCURVE",
"72 502 CURVE SMOOTH",
"54 499 OFFCURVE",
"17 492 OFFCURVE",
"17 470 CURVE SMOOTH",
"17 458 OFFCURVE",
"27 449 OFFCURVE",
"38 449 CURVE SMOOTH",
"50 449 OFFCURVE",
"64 455 OFFCURVE",
"84 457 CURVE",
"75 425 OFFCURVE",
"53 385 OFFCURVE",
"53 350 CURVE SMOOTH",
"53 337 OFFCURVE",
"63 329 OFFCURVE",
"74 329 CURVE SMOOTH",
"100 329 OFFCURVE",
"107 375 OFFCURVE",
"120 418 CURVE",
"127 408 OFFCURVE",
"147 350 OFFCURVE",
"171 350 CURVE SMOOTH",
"185 350 OFFCURVE",
"194 360 OFFCURVE",
"194 372 CURVE SMOOTH",
"194 396 OFFCURVE",
"165 435 OFFCURVE",
"150 464 CURVE",
"150 464 LINE"
);
}
);
width = 255;
}
);
unicode = 002A;
},
{
glyphname = numbersign;
lastChange = "2019-03-20 22:33:18 +0000";
layers = (
{
hints = (
{
place = "{116, 60}";
type = Stem;
},
{
place = "{121, 57}";
type = Stem;
},
{
place = "{126, 59}";
type = Stem;
},
{
place = "{239, 61}";
type = Stem;
},
{
place = "{249, 57}";
type = Stem;
},
{
place = "{259, 57}";
type = Stem;
},
{
place = "{271, 58}";
type = Stem;
},
{
horizontal = 1;
place = "{214, 52}";
type = Stem;
},
{
horizontal = 1;
place = "{220, 57}";
type = Stem;
},
{
horizontal = 1;
place = "{318, 63}";
type = Stem;
},
{
horizontal = 1;
place = "{340, 53}";
type = Stem;
},
{
horizontal = 1;
place = "{346, 57}";
type = Stem;
}
);
layerId = UUID0;
paths = (
{
closed = 1;
nodes = (
"403 407 OFFCURVE",
"397 408 OFFCURVE",
"389 408 CURVE SMOOTH",
"358 406 OFFCURVE",
"330 403 OFFCURVE",
"300 403 CURVE",
"300 427 LINE SMOOTH",
"300 470 OFFCURVE",
"297 526 OFFCURVE",
"266 526 CURVE SMOOTH",
"247 526 OFFCURVE",
"239 509 OFFCURVE",
"239 490 CURVE SMOOTH",
"239 461 OFFCURVE",
"243 433 OFFCURVE",
"243 406 CURVE SMOOTH",
"243 398 LINE",
"175 389 LINE",
"175 402 OFFCURVE",
"176 417 OFFCURVE",
"176 432 CURVE SMOOTH",
"176 470 OFFCURVE",
"171 505 OFFCURVE",
"142 505 CURVE",
"124 503 OFFCURVE",
"116 489 OFFCURVE",
"116 468 CURVE SMOOTH",
"116 440 OFFCURVE",
"118 410 OFFCURVE",
"118 381 CURVE",
"87 376 OFFCURVE",
"25 381 OFFCURVE",
"25 345 CURVE SMOOTH",
"25 329 OFFCURVE",
"39 318 OFFCURVE",
"55 318 CURVE SMOOTH",
"79 318 OFFCURVE",
"106 323 OFFCURVE",
"120 323 CURVE",
"123 250 LINE",
"92 235 OFFCURVE",
"39 246 OFFCURVE",
"39 211 CURVE SMOOTH",
"39 194 OFFCURVE",
"54 184 OFFCURVE",
"72 184 CURVE SMOOTH",
"90 184 OFFCURVE",
"109 192 OFFCURVE",
"126 192 CURVE",
"129 178 OFFCURVE",
"129 158 OFFCURVE",
"131 141 CURVE",
"131 119 OFFCURVE",
"137 90 OFFCURVE",
"161 90 CURVE SMOOTH",
"178 90 OFFCURVE",
"188 103 OFFCURVE",
"190 117 CURVE SMOOTH",
"190 121 OFFCURVE",
"189 124 OFFCURVE",
"189 128 CURVE SMOOTH",
"188 145 LINE SMOOTH",
"187 164 OFFCURVE",
"184 184 OFFCURVE",
"183 203 CURVE",
"209 207 OFFCURVE",
"234 212 OFFCURVE",
"259 214 CURVE",
"264 179 OFFCURVE",
"266 146 OFFCURVE",
"271 110 CURVE",
"271 89 OFFCURVE",
"278 66 OFFCURVE",
"303 66 CURVE SMOOTH",
"324 66 OFFCURVE",
"329 84 OFFCURVE",
"329 104 CURVE",
"325 140 OFFCURVE",
"316 180 OFFCURVE",
"316 220 CURVE",
"320 220 LINE SMOOTH",
"347 220 OFFCURVE",
"399 220 OFFCURVE",
"399 253 CURVE SMOOTH",
"399 270 OFFCURVE",
"385 281 OFFCURVE",
"365 281 CURVE",
"345 278 OFFCURVE",
"328 277 OFFCURVE",
"309 277 CURVE",
"303 346 LINE",
"329 348 OFFCURVE",
"355 348 OFFCURVE",
"381 350 CURVE SMOOTH",
"394 351 LINE SMOOTH",
"413 352 OFFCURVE",
"428 358 OFFCURVE",
"428 380 CURVE SMOOTH",
"428 392 OFFCURVE",
"421 402 OFFCURVE",
"409 405 CURVE SMOOTH",
"409 405 LINE"
);
},
{
closed = 1;
nodes = (
"180 261 LINE",
"177 331 LINE",
"198 335 OFFCURVE",
"221 338 OFFCURVE",
"246 340 CURVE",
"252 271 LINE"
);
}
);
width = 446;
}
);
unicode = 0023;
},
{
glyphname = slash;
lastChange = "2019-03-20 22:33:18 +0000";
layers = (
{
layerId = UUID0;
paths = (
{
closed = 1;
nodes = (
"99 -33 LINE SMOOTH",
"115 6 OFFCURVE",
"345 535 OFFCURVE",
"369 616 CURVE",
"371 621 OFFCURVE",
"372 626 OFFCURVE",
"372 630 CURVE SMOOTH",
"372 646 OFFCURVE",
"357 658 OFFCURVE",
"343 658 CURVE SMOOTH",
"331 658 OFFCURVE",
"321 649 OFFCURVE",
"316 637 CURVE",
"314 630 LINE",
"299 593 OFFCURVE",
"58 20 OFFCURVE",
"43 -20 CURVE SMOOTH",
"39 -33 OFFCURVE",
"29 -54 OFFCURVE",
"29 -70 CURVE SMOOTH",
"29 -87 OFFCURVE",
"42 -95 OFFCURVE",
"56 -95 CURVE SMOOTH",
"66 -95 OFFCURVE",
"74 -89 OFFCURVE",
"87 -61 CURVE SMOOTH",
"87 -61 LINE"
);
}
);
width = 407;
}
);
unicode = 002F;
},
{
glyphname = backslash;
lastChange = "2019-03-20 22:33:18 +0000";
layers = (
{
layerId = UUID0;
paths = (
{
closed = 1;
nodes = (
"327 -89 OFFCURVE",
"335 -95 OFFCURVE",
"345 -95 CURVE SMOOTH",
"359 -95 OFFCURVE",
"372 -87 OFFCURVE",
"372 -70 CURVE SMOOTH",
"372 -54 OFFCURVE",
"362 -33 OFFCURVE",
"358 -20 CURVE SMOOTH",
"343 20 OFFCURVE",
"102 593 OFFCURVE",
"87 630 CURVE",
"85 637 LINE SMOOTH",
"80 649 OFFCURVE",
"70 658 OFFCURVE",
"58 658 CURVE SMOOTH",
"44 658 OFFCURVE",
"29 646 OFFCURVE",
"29 630 CURVE SMOOTH",
"29 626 OFFCURVE",
"30 621 OFFCURVE",
"32 616 CURVE SMOOTH",
"56 535 OFFCURVE",
"286 6 OFFCURVE",
"302 -33 CURVE SMOOTH",
"314 -61 LINE"
);
}
);
width = 402;
}
);
unicode = 005C;
},
{
glyphname = parenleft;
lastChange = "2019-03-20 22:33:18 +0000";
layers = (
{
hints = (
{
place = "{28, 57}";
type = Stem;
},
{
horizontal = 1;
place = "{-104, 760}";
type = Stem;
}
);
layerId = UUID0;
paths = (
{
closed = 1;
nodes = (
"90 31 OFFCURVE",
"85 128 OFFCURVE",
"85 244 CURVE SMOOTH",
"85 360 OFFCURVE",
"104 476 OFFCURVE",
"141 580 CURVE SMOOTH",
"146 594 OFFCURVE",
"159 614 OFFCURVE",
"159 631 CURVE SMOOTH",
"159 644 OFFCURVE",
"148 656 OFFCURVE",
"133 656 CURVE SMOOTH",
"90 656 OFFCURVE",
"70 550 OFFCURVE",
"59 506 CURVE SMOOTH",
"37 419 OFFCURVE",
"28 328 OFFCURVE",
"28 225 CURVE SMOOTH",
"28 140 OFFCURVE",
"39 12 OFFCURVE",
"100 -77 CURVE SMOOTH",
"109 -91 OFFCURVE",
"124 -104 OFFCURVE",
"137 -104 CURVE SMOOTH",
"152 -104 OFFCURVE",
"165 -93 OFFCURVE",
"165 -77 CURVE SMOOTH",
"165 -67 OFFCURVE",
"161 -60 OFFCURVE",
"153 -52 CURVE",
"153 -52 LINE"
);
}
);
width = 209;
}
);
unicode = 0028;
},
{
glyphname = parenright;
lastChange = "2019-03-20 22:33:18 +0000";
layers = (
{
hints = (
{
place = "{81, 57}";
type = Stem;
},
{
horizontal = 1;
place = "{-121, 806}";
type = Stem;
}
);
layerId = UUID0;
paths = (
{
closed = 1;
nodes = (
"131 400 OFFCURVE",
"121 500 OFFCURVE",
"100 572 CURVE SMOOTH",
"87 617 OFFCURVE",
"78 685 OFFCURVE",
"45 685 CURVE SMOOTH",
"39 685 OFFCURVE",
"19 683 OFFCURVE",
"19 658 CURVE SMOOTH",
"19 644 OFFCURVE",
"28 622 OFFCURVE",
"32 607 CURVE SMOOTH",
"55 521 OFFCURVE",
"74 438 OFFCURVE",
"78 345 CURVE SMOOTH",
"80 308 OFFCURVE",
"81 269 OFFCURVE",
"81 229 CURVE SMOOTH",
"81 129 OFFCURVE",
"74 8 OFFCURVE",
"35 -74 CURVE SMOOTH",
"32 -81 OFFCURVE",
"29 -86 OFFCURVE",
"29 -93 CURVE SMOOTH",
"29 -108 OFFCURVE",
"41 -121 OFFCURVE",
"56 -121 CURVE SMOOTH",
"93 -121 OFFCURVE",
"119 -18 OFFCURVE",
"126 34 CURVE SMOOTH",
"135 97 OFFCURVE",
"138 163 OFFCURVE",
"139 236 CURVE",
"137 285 LINE"
);
}
);
width = 167;
}
);
unicode = 0029;
},
{
glyphname = bracketleft;
lastChange = "2019-03-20 22:33:18 +0000";
layers = (
{
hints = (
{
place = "{47, 57}";
type = Stem;
},
{
place = "{71, 159}";
type = Stem;
},
{
horizontal = 1;
place = "{-111, 58}";
type = Stem;
}
);
layerId = UUID0;
paths = (
{
closed = 1;
nodes = (
"198 -54 OFFCURVE",
"195 -54 OFFCURVE",
"191 -54 CURVE SMOOTH",
"184 -54 OFFCURVE",
"176 -53 OFFCURVE",
"169 -53 CURVE SMOOTH",
"145 -53 OFFCURVE",
"128 -50 OFFCURVE",
"104 -50 CURVE",
"104 195 OFFCURVE",
"111 413 OFFCURVE",
"129 614 CURVE",
"156 627 OFFCURVE",
"230 610 OFFCURVE",
"230 651 CURVE SMOOTH",
"230 663 OFFCURVE",
"225 677 OFFCURVE",
"194 677 CURVE SMOOTH",
"189 677 LINE SMOOTH",
"125 672 OFFCURVE",
"71 691 OFFCURVE",
"71 609 CURVE",
"53 354 OFFCURVE",
"47 126 OFFCURVE",
"47 -54 CURVE SMOOTH",
"47 -111 OFFCURVE",
"61 -111 OFFCURVE",
"169 -111 CURVE SMOOTH",
"180 -111 LINE",
"202 -113 LINE",
"220 -113 OFFCURVE",
"235 -99 OFFCURVE",
"235 -81 CURVE SMOOTH",
"235 -62 OFFCURVE",
"218 -53 OFFCURVE",
"202 -53 CURVE",
"202 -53 LINE"
);
}
);
width = 255;
}
);
unicode = 005B;
},
{
glyphname = bracketright;
lastChange = "2019-03-20 22:33:18 +0000";
layers = (
{
hints = (
{
place = "{126, 57}";
type = Stem;
},
{
place = "{139, 57}";
type = Stem;
},
{
horizontal = 1;
place = "{-118, 61}";
type = Stem;
},
{
horizontal = 1;
place = "{630, 59}";
type = Stem;
}
);
layerId = UUID0;
paths = (
{
closed = 1;
nodes = (
"149 688 OFFCURVE",
"128 689 OFFCURVE",
"108 689 CURVE SMOOTH",
"72 689 OFFCURVE",
"40 685 OFFCURVE",
"40 660 CURVE SMOOTH",
"40 632 OFFCURVE",
"73 630 OFFCURVE",
"95 630 CURVE SMOOTH",
"139 630 LINE",
"134 549 OFFCURVE",
"135 460 OFFCURVE",
"132 380 CURVE SMOOTH",
"127 237 OFFCURVE",
"126 86 OFFCURVE",
"126 -58 CURVE",
"100 -58 OFFCURVE",
"73 -57 OFFCURVE",
"47 -57 CURVE SMOOTH",
"29 -57 OFFCURVE",
"8 -61 OFFCURVE",
"8 -84 CURVE SMOOTH",
"8 -113 OFFCURVE",
"54 -118 OFFCURVE",
"93 -118 CURVE SMOOTH",
"154 -118 OFFCURVE",
"184 -118 OFFCURVE",
"184 -82 CURVE SMOOTH",
"184 -69 OFFCURVE",
"183 -57 OFFCURVE",
"183 -47 CURVE SMOOTH",
"183 66 OFFCURVE",
"186 180 OFFCURVE",
"186 290 CURVE SMOOTH",
"186 405 OFFCURVE",
"196 527 OFFCURVE",
"196 644 CURVE SMOOTH",
"196 669 OFFCURVE",
"188 685 OFFCURVE",
"167 688 CURVE",
"167 688 LINE"
);
}
);
width = 218;
}
);
unicode = 005D;
},
{
glyphname = hyphen;
lastChange = "2019-03-20 22:33:18 +0000";
layers = (
{
hints = (
{
place = "{19, 189}";
type = Stem;
},
{
horizontal = 1;
place = "{132, 63}";
type = Stem;
}
);
layerId = UUID0;
paths = (
{
closed = 1;
nodes = (
"43 132 OFFCURVE",
"45 132 OFFCURVE",
"48 132 CURVE SMOOTH",
"95 132 OFFCURVE",
"135 138 OFFCURVE",
"176 138 CURVE SMOOTH",
"194 138 OFFCURVE",
"208 150 OFFCURVE",
"208 165 CURVE SMOOTH",
"208 195 OFFCURVE",
"179 195 OFFCURVE",
"147 195 CURVE SMOOTH",
"141 195 LINE",
"85 188 OFFCURVE",
"19 197 OFFCURVE",
"19 157 CURVE SMOOTH",
"19 145 OFFCURVE",
"28 135 OFFCURVE",
"40 133 CURVE SMOOTH",
"40 133 LINE"
);
}
);
width = 242;
}
);
unicode = 002D;
},
{
glyphname = endash;
lastChange = "2019-03-20 22:33:18 +0000";
layers = (
{
hints = (
{
place = "{39, 457}";
type = Stem;
},
{
horizontal = 1;
place = "{133, 64}";
type = Stem;
}
);
layerId = UUID0;
paths = (
{
closed = 1;
nodes = (
"125 264 LINE",
"151 267 LINE",
"195 269 OFFCURVE",
"415 269 OFFCURVE",
"459 271 CURVE",
"483 275 OFFCURVE",
"496 278 OFFCURVE",
"496 302 CURVE SMOOTH",
"496 321 OFFCURVE",
"481 328 OFFCURVE",
"451 328 CURVE SMOOTH",
"463 328 OFFCURVE",
"219 326 OFFCURVE",
"67 318 CURVE SMOOTH",
"50 317 OFFCURVE",
"39 305 OFFCURVE",
"39 289 CURVE SMOOTH",
"39 275 OFFCURVE",
"51 265 OFFCURVE",
"68 264 CURVE SMOOTH",
"72 264 LINE"
);
}
);
width = 542;
}
);
unicode = 2013;
},
{
glyphname = emdash;
lastChange = "2019-03-20 22:33:18 +0000";
layers = (
{
hints = (
{
place = "{16, 566}";
type = Stem;
},
{
horizontal = 1;
place = "{144, 57}";
type = Stem;
}
);
layerId = UUID0;
paths = (
{
closed = 1;
nodes = (
"93 260 LINE SMOOTH",
"135 261 OFFCURVE",
"511 264 OFFCURVE",
"552 268 CURVE",
"571 268 OFFCURVE",
"582 281 OFFCURVE",
"582 297 CURVE SMOOTH",
"582 315 OFFCURVE",
"567 325 OFFCURVE",
"549 325 CURVE SMOOTH",
"547 325 OFFCURVE",
"544 324 OFFCURVE",
"542 324 CURVE SMOOTH",
"502 322 OFFCURVE",
"125 319 OFFCURVE",
"82 316 CURVE SMOOTH",
"60 314 OFFCURVE",
"16 317 OFFCURVE",
"16 287 CURVE SMOOTH",
"16 270 OFFCURVE",
"27 259 OFFCURVE",
"44 259 CURVE SMOOTH",
"63 259 LINE"
);
}
);
width = 613;
}
);
unicode = 2014;
},
{
glyphname = underscore;
lastChange = "2019-03-20 22:33:18 +0000";
layers = (
{
layerId = UUID0;
paths = (
{
closed = 1;
nodes = (
"88 -49 LINE SMOOTH",
"130 -48 OFFCURVE",
"309 -48 OFFCURVE",
"350 -44 CURVE",
"369 -44 OFFCURVE",
"380 -31 OFFCURVE",
"380 -15 CURVE SMOOTH",
"380 3 OFFCURVE",
"365 13 OFFCURVE",
"347 13 CURVE SMOOTH",
"345 13 OFFCURVE",
"342 12 OFFCURVE",
"340 12 CURVE SMOOTH",
"300 10 OFFCURVE",
"120 10 OFFCURVE",
"77 7 CURVE SMOOTH",
"55 5 OFFCURVE",
"11 8 OFFCURVE",
"11 -22 CURVE SMOOTH",
"11 -39 OFFCURVE",
"22 -50 OFFCURVE",
"39 -50 CURVE SMOOTH",
"58 -50 LINE"
);
}
);
width = 408;
}
);
unicode = 005F;
},
{
glyphname = quotedblleft;
lastChange = "2019-03-20 22:33:18 +0000";
layers = (
{
hints = (
{
place = "{17, 159}";
type = Stem;
},
{
horizontal = 1;
place = "{461, 170}";
type = Stem;
}
);
layerId = UUID0;
paths = (
{
closed = 1;
nodes = (
"37 519 OFFCURVE",
"46 461 OFFCURVE",
"78 461 CURVE SMOOTH",
"94 461 OFFCURVE",
"106 476 OFFCURVE",
"106 490 CURVE SMOOTH",
"106 494 OFFCURVE",
"105 498 OFFCURVE",
"103 502 CURVE SMOOTH",
"88 545 OFFCURVE",
"74 618 OFFCURVE",
"44 618 CURVE SMOOTH",
"30 618 OFFCURVE",
"17 607 OFFCURVE",
"17 590 CURVE SMOOTH",
"17 584 OFFCURVE",
"17 578 OFFCURVE",
"20 572 CURVE",
"20 572 LINE"
);
},
{
closed = 1;
nodes = (
"175 543 OFFCURVE",
"150 582 OFFCURVE",
"141 606 CURVE SMOOTH",
"138 612 LINE SMOOTH",
"133 624 OFFCURVE",
"124 631 OFFCURVE",
"112 631 CURVE SMOOTH",
"95 631 OFFCURVE",
"86 616 OFFCURVE",
"86 601 CURVE",
"98 539 OFFCURVE",
"124 483 OFFCURVE",
"148 483 CURVE SMOOTH",
"166 483 OFFCURVE",
"176 497 OFFCURVE",
"176 514 CURVE SMOOTH",
"176 514 LINE"
);
}
);
width = 195;
}
);
unicode = 201C;
},
{
glyphname = quotedblright;
lastChange = "2019-03-20 22:33:18 +0000";
layers = (
{
hints = (
{
place = "{15, 153}";
type = Stem;
},
{
place = "{113, 55}";
type = Stem;
},
{
horizontal = 1;
place = "{452, 175}";
type = Stem;
}
);
layerId = UUID0;
paths = (
{
closed = 1;
nodes = (
"102 454 OFFCURVE",
"108 452 OFFCURVE",
"113 452 CURVE SMOOTH",
"139 452 OFFCURVE",
"148 487 OFFCURVE",
"152 505 CURVE SMOOTH",
"158 539 OFFCURVE",
"161 568 OFFCURVE",
"168 595 CURVE",
"165 627 OFFCURVE",
"143 627 OFFCURVE",
"140 627 CURVE SMOOTH",
"129 627 OFFCURVE",
"113 617 OFFCURVE",
"113 601 CURVE",
"104 563 OFFCURVE",
"95 525 OFFCURVE",
"87 486 CURVE SMOOTH",
"86 483 OFFCURVE",
"86 481 OFFCURVE",
"86 479 CURVE SMOOTH",
"86 470 OFFCURVE",
"90 462 OFFCURVE",
"98 457 CURVE SMOOTH",
"98 457 LINE"
);
},
{
closed = 1;
nodes = (
"35 457 OFFCURVE",
"39 456 OFFCURVE",
"42 456 CURVE SMOOTH",
"75 456 OFFCURVE",
"79 512 OFFCURVE",
"87 562 CURVE",
"89 593 LINE",
"89 615 OFFCURVE",
"77 627 OFFCURVE",
"60 627 CURVE SMOOTH",
"26 627 OFFCURVE",
"22 520 OFFCURVE",
"18 501 CURVE",
"16 498 OFFCURVE",
"15 490 OFFCURVE",
"15 483 CURVE SMOOTH",
"15 473 OFFCURVE",
"18 464 OFFCURVE",
"32 458 CURVE SMOOTH",
"32 458 LINE"
);
}
);
width = 187;
}
);
unicode = 201D;
},
{
glyphname = quoteleft;
lastChange = "2019-03-20 22:33:18 +0000";
layers = (
{
hints = (
{
place = "{17, 89}";
type = Stem;
},
{
horizontal = 1;
place = "{461, 157}";
type = Stem;
}
);
layerId = UUID0;
paths = (
{
closed = 1;
nodes = (
"37 519 OFFCURVE",
"46 461 OFFCURVE",
"78 461 CURVE SMOOTH",
"94 461 OFFCURVE",
"106 476 OFFCURVE",
"106 490 CURVE SMOOTH",
"106 494 OFFCURVE",
"105 498 OFFCURVE",
"103 502 CURVE SMOOTH",
"88 545 OFFCURVE",
"74 618 OFFCURVE",
"44 618 CURVE SMOOTH",
"30 618 OFFCURVE",
"17 607 OFFCURVE",
"17 590 CURVE SMOOTH",
"17 584 OFFCURVE",
"17 578 OFFCURVE",
"20 572 CURVE",
"20 572 LINE"
);
}
);
width = 121;
}
);
unicode = 2018;
},
{
glyphname = quoteright;
lastChange = "2019-03-20 22:33:18 +0000";
layers = (
{
hints = (
{
place = "{9, 82}";
type = Stem;
},
{
place = "{36, 55}";
type = Stem;
},
{
horizontal = 1;
place = "{452, 175}";
type = Stem;
}
);
layerId = UUID0;
paths = (
{
closed = 1;
nodes = (
"25 454 OFFCURVE",
"31 452 OFFCURVE",
"36 452 CURVE SMOOTH",
"62 452 OFFCURVE",
"71 487 OFFCURVE",
"75 505 CURVE SMOOTH",
"81 539 OFFCURVE",
"84 568 OFFCURVE",
"91 595 CURVE",
"88 627 OFFCURVE",
"66 627 OFFCURVE",
"63 627 CURVE SMOOTH",
"52 627 OFFCURVE",
"36 617 OFFCURVE",
"36 601 CURVE",
"27 563 OFFCURVE",
"18 525 OFFCURVE",
"10 486 CURVE SMOOTH",
"9 483 OFFCURVE",
"9 481 OFFCURVE",
"9 479 CURVE SMOOTH",
"9 470 OFFCURVE",
"13 462 OFFCURVE",
"21 457 CURVE SMOOTH",
"21 457 LINE"
);
}
);
width = 104;
}
);
unicode = 2019;
},
{
glyphname = quotedbl;
lastChange = "2019-03-20 22:33:18 +0000";
layers = (
{
hints = (
{
place = "{28, 61}";
type = Stem;
},
{
place = "{99, 64}";
type = Stem;
},
{
horizontal = 1;
place = "{467, 156}";
type = Stem;
},
{
horizontal = 1;
place = "{467, 166}";
type = Stem;
},
{
horizontal = 1;
place = "{471, 162}";
type = Stem;
}
);
layerId = UUID0;
paths = (
{
closed = 1;
nodes = (
"31 571 OFFCURVE",
"28 546 OFFCURVE",
"28 524 CURVE SMOOTH",
"28 495 OFFCURVE",
"34 471 OFFCURVE",
"57 471 CURVE SMOOTH",
"86 471 OFFCURVE",
"89 503 OFFCURVE",
"89 536 CURVE SMOOTH",
"89 571 LINE SMOOTH",
"89 606 OFFCURVE",
"84 633 OFFCURVE",
"61 633 CURVE SMOOTH",
"47 633 OFFCURVE",
"32 620 OFFCURVE",
"32 600 CURVE SMOOTH",
"32 600 LINE"
);
},
{
closed = 1;
nodes = (
"162 497 OFFCURVE",
"163 508 OFFCURVE",
"163 518 CURVE SMOOTH",
"163 543 OFFCURVE",
"158 570 OFFCURVE",
"157 588 CURVE SMOOTH",
"156 594 LINE",
"156 609 OFFCURVE",
"146 623 OFFCURVE",
"129 623 CURVE SMOOTH",
"100 623 OFFCURVE",
"99 577 OFFCURVE",
"99 550 CURVE SMOOTH",
"99 496 OFFCURVE",
"110 467 OFFCURVE",
"133 467 CURVE SMOOTH",
"145 467 OFFCURVE",
"155 476 OFFCURVE",
"159 489 CURVE SMOOTH",
"159 489 LINE"
);
}
);
width = 189;
}
);
unicode = 0022;
},
{
glyphname = quotesingle;
lastChange = "2019-03-20 22:33:18 +0000";
layers = (
{
hints = (
{
place = "{28, 61}";
type = Stem;
},
{
horizontal = 1;
place = "{471, 162}";
type = Stem;
}
);
layerId = UUID0;
paths = (
{
closed = 1;
nodes = (
"31 571 OFFCURVE",
"28 546 OFFCURVE",
"28 524 CURVE SMOOTH",
"28 495 OFFCURVE",
"34 471 OFFCURVE",
"57 471 CURVE SMOOTH",
"86 471 OFFCURVE",
"89 503 OFFCURVE",
"89 536 CURVE SMOOTH",
"89 571 LINE SMOOTH",
"89 606 OFFCURVE",
"84 633 OFFCURVE",
"61 633 CURVE SMOOTH",
"47 633 OFFCURVE",
"32 620 OFFCURVE",
"32 600 CURVE SMOOTH",
"32 600 LINE"
);
}
);
width = 125;
}
);
unicode = 0027;
},
{
glyphname = .notdef;
lastChange = "2019-03-20 22:33:18 +0000";
layers = (
{
hints = (
{
place = "{43, 67}";
type = Stem;
},
{
place = "{382, 67}";
type = Stem;
},
{
horizontal = 1;
place = "{0, 68}";
type = Stem;
},
{
horizontal = 1;
place = "{468, 68}";
type = Stem;
}
);
layerId = UUID0;
paths = (
{
closed = 1;
nodes = (
"449 0 LINE",
"449 536 LINE",
"43 536 LINE",
"43 0 LINE"
);
},
{
closed = 1;
nodes = (
"110 468 LINE",
"382 468 LINE",
"382 68 LINE",
"110 68 LINE"
);
}
);
width = 500;
}
);
},
{
glyphname = dollar;
lastChange = "2019-03-20 22:33:18 +0000";
layers = (
{
hints = (
{
place = "{151, 58}";
type = Stem;
},
{
place = "{267, 56}";
type = Stem;
},
{
horizontal = 1;
place = "{-185, 21}";
target = up;
type = BottomGhost;
},
{
horizontal = 1;
place = "{51, 55}";
type = Stem;
},
{
horizontal = 1;
place = "{250, 57}";
type = Stem;
},
{
horizontal = 1;
place = "{436, -20}";
target = down;
type = TopGhost;
}
);
layerId = UUID0;
paths = (
{
closed = 1;
nodes = (
"261 575 OFFCURVE",
"248 588 OFFCURVE",
"233 598 CURVE",
"233 619 OFFCURVE",
"234 635 OFFCURVE",
"234 639 CURVE",
"248 648 OFFCURVE",
"252 659 OFFCURVE",
"252 669 CURVE SMOOTH",
"252 688 OFFCURVE",
"237 696 OFFCURVE",
"218 696 CURVE SMOOTH",
"202 696 LINE SMOOTH",
"170 696 OFFCURVE",
"145 687 OFFCURVE",
"145 671 CURVE SMOOTH",
"145 651 OFFCURVE",
"153 636 OFFCURVE",
"175 636 CURVE",
"175 611 LINE",
"124 603 OFFCURVE",
"32 556 OFFCURVE",
"32 490 CURVE SMOOTH",
"32 385 OFFCURVE",
"111 329 OFFCURVE",
"187 280 CURVE",
"186 240 OFFCURVE",
"185 160 OFFCURVE",
"185 90 CURVE",
"160 117 OFFCURVE",
"137 152 OFFCURVE",
"119 184 CURVE SMOOTH",
"110 202 LINE",
"118 207 OFFCURVE",
"126 218 OFFCURVE",
"126 228 CURVE SMOOTH",
"126 246 OFFCURVE",
"110 256 OFFCURVE",
"99 256 CURVE SMOOTH",
"64 256 OFFCURVE",
"14 216 OFFCURVE",
"14 194 CURVE SMOOTH",
"14 176 OFFCURVE",
"32 170 OFFCURVE",
"39 170 CURVE SMOOTH",
"50 170 OFFCURVE",
"57 174 OFFCURVE",
"58 175 CURVE",
"82 119 OFFCURVE",
"125 46 OFFCURVE",
"185 13 CURVE",
"185 -22 LINE",
"165 -27 OFFCURVE",
"160 -34 OFFCURVE",
"160 -55 CURVE SMOOTH",
"160 -83 OFFCURVE",
"174 -85 OFFCURVE",
"203 -85 CURVE SMOOTH",
"216 -85 OFFCURVE",
"228 -84 OFFCURVE",
"236 -84 CURVE",
"253 -82 OFFCURVE",
"267 -71 OFFCURVE",
"267 -53 CURVE SMOOTH",
"267 -42 OFFCURVE",
"261 -31 OFFCURVE",
"249 -24 CURVE SMOOTH",
"243 -21 LINE",
"243 -5 LINE",
"306 -5 OFFCURVE",
"378 73 OFFCURVE",
"378 123 CURVE SMOOTH",
"378 161 OFFCURVE",
"367 226 OFFCURVE",
"230 309 CURVE",
"230 343 OFFCURVE",
"231 436 OFFCURVE",
"232 518 CURVE",
"252 494 OFFCURVE",
"271 465 OFFCURVE",
"278 455 CURVE",
"273 450 LINE",
"266 446 OFFCURVE",
"260 436 OFFCURVE",
"260 427 CURVE SMOOTH",
"260 413 OFFCURVE",
"275 403 OFFCURVE",
"288 403 CURVE SMOOTH",
"293 403 OFFCURVE",
"297 405 OFFCURVE",
"302 407 CURVE SMOOTH",
"357 436 LINE SMOOTH",
"366 440 OFFCURVE",
"373 451 OFFCURVE",
"373 463 CURVE SMOOTH",
"373 481 OFFCURVE",
"357 489 OFFCURVE",
"343 489 CURVE SMOOTH",
"338 489 OFFCURVE",
"333 487 OFFCURVE",
"326 485 CURVE",
"320 494 LINE SMOOTH",
"311 507 OFFCURVE",
"274 558 OFFCURVE",
"270 562 CURVE",
"270 562 LINE"
);
},
{
closed = 1;
nodes = (
"86 523 OFFCURVE",
"148 549 OFFCURVE",
"178 553 CURVE",
"178 347 LINE",
"92 405 OFFCURVE",
"86 440 OFFCURVE",
"86 484 CURVE SMOOTH",
"86 484 LINE"
);
},
{
closed = 1;
nodes = (
"325 94 OFFCURVE",
"277 51 OFFCURVE",
"241 52 CURVE",
"240 117 OFFCURVE",
"237 206 OFFCURVE",
"236 247 CURVE",
"280 214 OFFCURVE",
"325 174 OFFCURVE",
"325 124 CURVE SMOOTH",
"325 124 LINE"
);
}
);
width = 397;
}
);
unicode = 0024;
},
{
glyphname = plus;
lastChange = "2019-03-20 22:33:18 +0000";
layers = (
{
layerId = UUID0;
paths = (
{
closed = 1;
nodes = (
"213 81 OFFCURVE",
"203 71 OFFCURVE",
"191 71 CURVE SMOOTH",
"173 71 OFFCURVE",
"162 86 OFFCURVE",
"162 100 CURVE SMOOTH",
"162 161 OFFCURVE",
"171 197 OFFCURVE",
"178 256 CURVE",
"139 256 OFFCURVE",
"145 257 OFFCURVE",
"131 257 CURVE",
"105 254 LINE",
"48 254 LINE",
"31 255 OFFCURVE",
"19 265 OFFCURVE",
"19 279 CURVE SMOOTH",
"19 295 OFFCURVE",
"30 307 OFFCURVE",
"47 308 CURVE SMOOTH",
"99 311 OFFCURVE",
"123 311 OFFCURVE",
"183 312 CURVE",
"192 393 OFFCURVE",
"197 428 OFFCURVE",
"197 432 CURVE SMOOTH",
"201 460 OFFCURVE",
"209 474 OFFCURVE",
"226 474 CURVE SMOOTH",
"252 474 OFFCURVE",
"254 451 OFFCURVE",
"255 433 CURVE",
"241 314 LINE",
"324 315 OFFCURVE",
"366 317 OFFCURVE",
"368 317 CURVE SMOOTH",
"398 317 OFFCURVE",
"413 310 OFFCURVE",
"413 291 CURVE SMOOTH",
"413 267 OFFCURVE",
"400 264 OFFCURVE",
"376 260 CURVE",
"353 259 OFFCURVE",
"303 257 OFFCURVE",
"234 257 CURVE",
"228 210 OFFCURVE",
"225 195 OFFCURVE",
"224 179 CURVE SMOOTH",
"216 96 LINE"
);
}
);
width = 439;
}
);
unicode = 002B;
},
{
glyphname = equal;
lastChange = "2019-03-20 22:33:18 +0000";
layers = (
{
layerId = UUID0;
paths = (
{
closed = 1;
nodes = (
"125 133 LINE",
"180 136 LINE",
"223 136 OFFCURVE",
"267 133 OFFCURVE",
"311 133 CURVE SMOOTH",
"354 133 OFFCURVE",
"377 135 OFFCURVE",
"377 165 CURVE SMOOTH",
"377 184 OFFCURVE",
"362 191 OFFCURVE",
"332 191 CURVE SMOOTH",
"333 191 OFFCURVE",
"292 191 OFFCURVE",
"272 191 CURVE SMOOTH",
"217 191 OFFCURVE",
"154 191 OFFCURVE",
"67 187 CURVE SMOOTH",
"50 186 OFFCURVE",
"39 174 OFFCURVE",
"39 158 CURVE SMOOTH",
"39 144 OFFCURVE",
"51 134 OFFCURVE",
"68 133 CURVE SMOOTH",
"72 133 LINE"
);
},
{
closed = 1;
nodes = (
"180 328 LINE",
"194 329 OFFCURVE",
"208 330 OFFCURVE",
"223 330 CURVE SMOOTH",
"252 330 OFFCURVE",
"282 328 OFFCURVE",
"311 328 CURVE SMOOTH",
"354 328 OFFCURVE",
"377 330 OFFCURVE",
"377 360 CURVE SMOOTH",
"377 379 OFFCURVE",
"362 386 OFFCURVE",
"332 386 CURVE SMOOTH",
"333 386 OFFCURVE",
"292 386 OFFCURVE",
"272 386 CURVE SMOOTH",
"217 386 OFFCURVE",
"154 386 OFFCURVE",
"67 382 CURVE SMOOTH",
"50 381 OFFCURVE",
"39 369 OFFCURVE",
"39 353 CURVE SMOOTH",
"39 339 OFFCURVE",
"51 329 OFFCURVE",
"68 328 CURVE SMOOTH",
"72 328 LINE"
);
}
);
width = 428;
}
);
unicode = 003D;
},
{
glyphname = percent;
lastChange = "2019-03-20 22:33:18 +0000";
layers = (
{
hints = (
{
place = "{56, 135}";
type = Stem;
},
{
place = "{315, 124}";
type = Stem;
},
{
horizontal = 1;
place = "{107, 130}";
type = Stem;
},
{
horizontal = 1;
place = "{376, 144}";
type = Stem;
}
);
layerId = UUID0;
paths = (
{
closed = 1;
nodes = (
"363 553 OFFCURVE",
"365 559 OFFCURVE",
"365 564 CURVE SMOOTH",
"365 569 LINE SMOOTH",
"365 581 OFFCURVE",
"361 600 OFFCURVE",
"339 600 CURVE SMOOTH",
"307 600 OFFCURVE",
"285 505 OFFCURVE",
"269 462 CURVE SMOOTH",
"218 324 OFFCURVE",
"165 187 OFFCURVE",
"126 39 CURVE",
"126 33 OFFCURVE",
"122 25 OFFCURVE",
"122 19 CURVE SMOOTH",
"122 4 OFFCURVE",
"132 -9 OFFCURVE",
"150 -9 CURVE SMOOTH",
"183 -9 OFFCURVE",
"199 87 OFFCURVE",
"215 135 CURVE SMOOTH",
"244 222 OFFCURVE",
"271 313 OFFCURVE",
"306 400 CURVE SMOOTH",
"326 449 OFFCURVE",
"343 498 OFFCURVE",
"361 548 CURVE SMOOTH",
"361 548 LINE"
);
},
{
closed = 1;
nodes = (
"187 484 OFFCURVE",
"158 520 OFFCURVE",
"122 520 CURVE SMOOTH",
"85 520 OFFCURVE",
"56 475 OFFCURVE",
"56 443 CURVE SMOOTH",
"56 407 OFFCURVE",
"84 376 OFFCURVE",
"120 376 CURVE SMOOTH",
"159 376 OFFCURVE",
"191 411 OFFCURVE",
"191 450 CURVE",
"191 450 LINE"
);
},
{
closed = 1;
nodes = (
"410 231 OFFCURVE",
"396 237 OFFCURVE",
"382 237 CURVE SMOOTH",
"344 237 OFFCURVE",
"315 201 OFFCURVE",
"315 162 CURVE SMOOTH",
"315 130 OFFCURVE",
"337 107 OFFCURVE",
"367 107 CURVE SMOOTH",
"403 107 OFFCURVE",
"439 139 OFFCURVE",
"439 181 CURVE SMOOTH",
"439 196 OFFCURVE",
"432 209 OFFCURVE",
"421 221 CURVE",
"421 221 LINE"
);
}
);
width = 470;
}
);
unicode = 0025;
},
{
glyphname = at;
lastChange = "2019-03-20 22:33:18 +0000";
layers = (
{
layerId = UUID0;
paths = (
{
closed = 1;
nodes = (
"269 232 OFFCURVE",
"224 194 OFFCURVE",
"182 194 CURVE SMOOTH",
"170 194 OFFCURVE",
"162 194 OFFCURVE",
"162 202 CURVE SMOOTH",
"162 259 OFFCURVE",
"226 388 OFFCURVE",
"288 388 CURVE SMOOTH",
"320 388 OFFCURVE",
"331 359 OFFCURVE",
"331 332 CURVE SMOOTH",
"331 310 OFFCURVE",
"318 295 OFFCURVE",
"309 278 CURVE SMOOTH",
"309 278 LINE"
);
},
{
closed = 1;
nodes = (
"211 31 OFFCURVE",
"260 34 OFFCURVE",
"260 66 CURVE SMOOTH",
"260 77 OFFCURVE",
"252 87 OFFCURVE",
"239 87 CURVE SMOOTH",
"222 87 OFFCURVE",
"205 78 OFFCURVE",
"186 78 CURVE SMOOTH",
"115 78 OFFCURVE",
"61 152 OFFCURVE",
"61 220 CURVE SMOOTH",
"61 269 LINE SMOOTH",
"61 409 OFFCURVE",
"161 521 OFFCURVE",
"289 521 CURVE SMOOTH",
"348 521 OFFCURVE",
"392 456 OFFCURVE",
"398 443 CURVE SMOOTH",
"412 413 OFFCURVE",
"425 376 OFFCURVE",
"425 309 CURVE SMOOTH",
"425 250 OFFCURVE",
"420 149 OFFCURVE",
"365 149 CURVE SMOOTH",
"356 149 OFFCURVE",
"349 158 OFFCURVE",
"349 168 CURVE SMOOTH",
"349 182 OFFCURVE",
"359 202 OFFCURVE",
"369 235 CURVE SMOOTH",
"376 259 OFFCURVE",
"388 299 OFFCURVE",
"388 337 CURVE SMOOTH",
"388 392 OFFCURVE",
"353 445 OFFCURVE",
"290 445 CURVE SMOOTH",
"193 445 OFFCURVE",
"106 296 OFFCURVE",
"106 206 CURVE SMOOTH",
"106 166 OFFCURVE",
"134 137 OFFCURVE",
"176 137 CURVE SMOOTH",
"221 137 OFFCURVE",
"265 170 OFFCURVE",
"294 195 CURVE",
"290 185 OFFCURVE",
"289 175 OFFCURVE",
"289 165 CURVE SMOOTH",
"289 132 OFFCURVE",
"313 98 OFFCURVE",
"351 98 CURVE SMOOTH",
"461 98 OFFCURVE",
"479 226 OFFCURVE",
"479 319 CURVE SMOOTH",
"479 420 OFFCURVE",
"414 571 OFFCURVE",
"292 571 CURVE SMOOTH",
"148 571 OFFCURVE",
"65 479 OFFCURVE",
"35 391 CURVE SMOOTH",
"18 341 OFFCURVE",
"6 285 OFFCURVE",
"6 232 CURVE SMOOTH",
"6 113 OFFCURVE",
"96 31 OFFCURVE",
"190 31 CURVE SMOOTH",
"190 31 LINE"
);
}
);
width = 498;
}
);
unicode = 0040;
},
{
glyphname = ampersand;
lastChange = "2019-03-20 22:33:18 +0000";
layers = (
{
layerId = UUID0;
paths = (
{
closed = 1;
nodes = (
"147 81 OFFCURVE",
"110 287 OFFCURVE",
"110 376 CURVE SMOOTH",
"110 425 OFFCURVE",
"117 511 OFFCURVE",
"173 511 CURVE SMOOTH",
"190 511 OFFCURVE",
"194 484 OFFCURVE",
"194 459 CURVE SMOOTH",
"194 354 OFFCURVE",
"16 211 OFFCURVE",
"16 99 CURVE SMOOTH",
"16 42 OFFCURVE",
"61 -1 OFFCURVE",
"113 -1 CURVE SMOOTH",
"210 -1 OFFCURVE",
"276 116 OFFCURVE",
"292 182 CURVE SMOOTH",
"293 187 LINE",
"308 188 OFFCURVE",
"324 192 OFFCURVE",
"324 213 CURVE SMOOTH",
"324 248 OFFCURVE",
"273 241 OFFCURVE",
"252 245 CURVE",
"234 245 OFFCURVE",
"220 238 OFFCURVE",
"220 220 CURVE SMOOTH",
"220 202 OFFCURVE",
"230 196 OFFCURVE",
"243 193 CURVE",
"239 151 OFFCURVE",
"172 55 OFFCURVE",
"117 55 CURVE SMOOTH",
"96 55 OFFCURVE",
"75 71 OFFCURVE",
"75 92 CURVE SMOOTH",
"75 198 OFFCURVE",
"250 344 OFFCURVE",
"250 458 CURVE SMOOTH",
"250 535 OFFCURVE",
"219 565 OFFCURVE",
"175 565 CURVE SMOOTH",
"83 565 OFFCURVE",
"61 456 OFFCURVE",
"61 388 CURVE SMOOTH",
"61 274 OFFCURVE",
"98 27 OFFCURVE",
"335 4 CURVE",
"333 -5 LINE",
"333 -18 OFFCURVE",
"343 -33 OFFCURVE",
"357 -33 CURVE SMOOTH",
"384 -33 OFFCURVE",
"398 9 OFFCURVE",
"398 38 CURVE SMOOTH",
"398 50 OFFCURVE",
"392 62 OFFCURVE",
"376 62 CURVE SMOOTH",
"364 62 OFFCURVE",
"356 57 OFFCURVE",
"351 52 CURVE",
"351 52 LINE"
);
}
);
width = 409;
}
);
unicode = 0026;
},
